<?xml version="1.0" encoding="UTF-8" standalone="no"?>
<!-- Generator: PDFTron PDF2SVG Converter (DEMO VERSION) -->

<svg
   xmlns:dc="http://purl.org/dc/elements/1.1/"
   xmlns:cc="http://creativecommons.org/ns#"
   xmlns:rdf="http://www.w3.org/1999/02/22-rdf-syntax-ns#"
   xmlns:svg="http://www.w3.org/2000/svg"
   xmlns="http://www.w3.org/2000/svg"
   xmlns:sodipodi="http://sodipodi.sourceforge.net/DTD/sodipodi-0.dtd"
   xmlns:inkscape="http://www.inkscape.org/namespaces/inkscape"
   id="svgRoot"
   viewBox="0 0 109.6233 115.4105"
   xml:space="preserve"
   version="1.1"
   inkscape:version="0.47 r22583"
   width="100%"
   height="100%"
   sodipodi:docname="ifema.svg"><defs
   id="defs3494"><inkscape:perspective
   sodipodi:type="inkscape:persp3d"
   inkscape:vp_x="0 : 57.70525 : 1"
   inkscape:vp_y="0 : 1000 : 0"
   inkscape:vp_z="109.6233 : 57.70525 : 1"
   inkscape:persp3d-origin="54.81165 : 38.470167 : 1"
   id="perspective3496" />




































































































































































































































































</defs><metadata
   id="metadata3962"><rdf:RDF><cc:Work
       rdf:about=""><dc:format>image/svg+xml</dc:format><dc:type
         rdf:resource="http://purl.org/dc/dcmitype/StillImage" /><dc:title /></cc:Work></rdf:RDF></metadata><sodipodi:namedview
   pagecolor="#ffffff"
   bordercolor="#666666"
   borderopacity="1"
   objecttolerance="10"
   gridtolerance="10"
   guidetolerance="10"
   inkscape:pageopacity="0"
   inkscape:pageshadow="2"
   inkscape:window-width="1920"
   inkscape:window-height="1129"
   id="namedview3960"
   showgrid="false"
   inkscape:zoom="7.78"
   inkscape:cx="39.045071"
   inkscape:cy="49.948954"
   inkscape:window-x="-5"
   inkscape:window-y="47"
   inkscape:window-maximized="1"
   inkscape:current-layer="svgRoot" />


<path
   style="fill:#ffffff;fill-rule:nonzero;stroke:none"
   id="path806"
   class="ps016"
   d="m 5.7327,101.13468 13.865,-7.558 -14.173,-6.589 z m -1.325,-14.927 0.501,-0.012 0.21,-0.453 16.702,7.763 -17.05,9.293 z" /><path
   style="fill:#233a6d;fill-rule:nonzero;stroke:none"
   id="path1232"
   class="ps017"
   d="m 91.2278,93.02778 c 0,1.177 -0.953,2.131 -2.13,2.131 -1.177,0 -2.132,-0.954 -2.132,-2.131 0,-1.177 0.955,-2.13 2.132,-2.13 1.177,0 2.13,0.953 2.13,2.13" /><path
   style="fill:#233a6d;fill-rule:nonzero;stroke:none"
   id="path1236"
   class="ps017"
   d="m 88.2737,93.02678 c 0,0.452 0.368,0.824 0.824,0.824 0.452,0 0.822,-0.369 0.822,-0.824 0,-0.454 -0.368,-0.822 -0.822,-0.822 -0.456,0 -0.824,0.37 -0.824,0.822 m -2.616,0 c 0.002,-1.899 1.541,-3.436 3.44,-3.438 1.898,0 3.436,1.539 3.438,3.438 -0.002,1.9 -1.538,3.438 -3.438,3.44 -1.899,-0.002 -3.438,-1.538 -3.44,-3.44" /><path
   style="fill:#ffffff;fill-rule:nonzero;stroke:none"
   id="path1240"
   class="ps016"
   d="m 24.9353,83.22058 0,-0.393 z m 3.169,7.137 c 0.429,0.968 0.522,1.064 1.376,1.112 l 10.606,0 c 5.002,0 9.885,0 9.922,0.001 l 0.006,0 c 0.039,-0.012 0.4,0.023 0.855,-0.719 l 1.517,-2.716 c -0.005,-0.002 0.01,-0.013 0.036,-0.097 0.027,-0.082 0.056,-0.218 0.056,-0.396 l 0,-3.797 c -10e-4,-0.008 -10e-4,-0.017 -0.002,-0.025 -0.041,-0.003 0.088,-0.455 -0.658,-0.5 l -26.324,0 c 0.578,1.593 2.288,6.309 2.61,7.137 m -0.732,0.283 c -0.398,-1.027 -2.805,-7.677 -2.807,-7.679 l -0.189,-0.526 27.459,0 c 0.618,0.016 1.041,0.312 1.231,0.629 0.134,0.219 0.175,0.422 0.188,0.546 l 0.009,0.017 0,3.915 c 0,0.532 -0.175,0.846 -0.195,0.883 l -1.521,2.717 c -0.553,0.959 -1.266,1.126 -1.533,1.114 -0.043,0 -0.07,-0.002 -0.043,-0.002 l -20.491,0 c -0.04,0.002 -0.081,0.003 -0.12,0.003 -1.005,0 -1.646,-0.597 -1.988,-1.617" /><path
   style="fill:#ffffff;fill-rule:nonzero;stroke:none"
   id="path1244"
   class="ps016"
   d="m 82.5569,91.47498 c 0.015,-0.002 0.033,-0.004 0.06,-0.004 0.101,0.002 1.589,-0.031 2.706,-1.263 0.002,-0.004 2.24,-2.63 2.706,-3.191 0.452,-0.578 0.409,-0.526 0.431,-0.995 l 0,-1.356 0,-0.944 c -0.001,-0.008 -0.002,-0.017 -0.002,-0.026 -0.002,0 -0.006,-0.165 -0.066,-0.287 -0.074,-0.124 -0.099,-0.188 -0.328,-0.205 l -27.297,-0.003 0,0.002 c -0.058,0.059 -0.278,-0.128 -0.323,0.58 l 0,7.25 c 0.035,0 -0.061,0.442 0.542,0.44 0.002,0 0.024,-0.002 0.058,-0.002 l 0.01,0 z m -22.729,0.167 c -0.169,-0.305 -0.167,-0.569 -0.169,-0.609 l 0,-7.25 c -0.006,-0.537 0.184,-0.93 0.457,-1.138 0.265,-0.208 0.534,-0.225 0.651,-0.227 0.02,0 0.038,0.001 0.044,0.002 l 27.259,0 c 0.539,-0.002 0.908,0.353 1.034,0.655 0.079,0.172 0.112,0.331 0.127,0.446 l 0.014,0.014 0,0.163 0,2.324 c 0.022,0.522 -0.125,0.949 -0.614,1.498 -0.474,0.568 -2.71,3.195 -2.72,3.206 -1.334,1.457 -3.009,1.524 -3.277,1.529 l -0.017,0 0,-0.299 -0.01,0.301 -21.563,0 0,-0.392 -0.008,0.392 c -0.004,-0.002 -0.017,0 -0.05,0 -0.011,0.001 -0.022,0.001 -0.033,0.001 -0.567,0 -0.967,-0.31 -1.125,-0.616" /><path
   style="fill:#ffffff;fill-rule:nonzero;stroke:none"
   id="path1248"
   class="ps016"
   d="m 24.9353,83.22058 0,-0.393 z m 3.169,7.137 c 0.429,0.968 0.522,1.064 1.376,1.112 l 10.606,0 c 5.002,0 9.885,0 9.922,0.001 l 0.006,0 c 0.039,-0.012 0.4,0.023 0.855,-0.719 l 1.517,-2.716 c -0.005,-0.002 0.01,-0.013 0.036,-0.097 0.027,-0.082 0.056,-0.218 0.056,-0.396 l 0,-3.797 c -10e-4,-0.008 -10e-4,-0.017 -0.002,-0.025 -0.041,-0.003 0.088,-0.455 -0.658,-0.5 l -26.324,0 c 0.578,1.593 2.288,6.309 2.61,7.137 m -0.732,0.283 c -0.398,-1.027 -2.805,-7.677 -2.807,-7.679 l -0.189,-0.526 27.459,0 c 0.618,0.016 1.041,0.312 1.231,0.629 0.134,0.219 0.175,0.422 0.188,0.546 l 0.009,0.017 0,3.915 c 0,0.532 -0.175,0.846 -0.195,0.883 l -1.521,2.717 c -0.553,0.959 -1.266,1.126 -1.533,1.114 -0.043,0 -0.07,-0.002 -0.043,-0.002 l -20.491,0 c -0.04,0.002 -0.081,0.003 -0.12,0.003 -1.005,0 -1.646,-0.597 -1.988,-1.617" /><path
   style="fill:#97a9c7;fill-rule:nonzero;stroke:none"
   id="path1252"
   class="ps021"
   d="m 23.1643,51.21718 0.984,0 c 1.176,0 2.131,0.915 2.131,2.053 l 0,14.674 -3.115,0 z" /><path
   style="fill:#97a9c7;fill-rule:nonzero;stroke:none"
   id="path1256"
   class="ps021"
   d="m 20.1682,75.31488 c 0.502,0.705 1.336,1.067 2.269,1.067 1.53,0 2.771,-1.24 2.771,-2.771 0,-1.53 -1.241,-2.772 -2.771,-2.772 l -0.025,0.002 -0.003,-19.624 -2.241,-0.012 0,20.832 0,2.396 c 0.006,0.011 -0.008,0.773 0,0.782 z" /><path
   style="fill:#ffffff;fill-rule:nonzero;stroke:none"
   id="path1260"
   class="ps016"
   d="m 82.5569,91.47498 c 0.015,-0.002 0.033,-0.004 0.06,-0.004 0.101,0.002 1.589,-0.031 2.706,-1.263 0.002,-0.004 2.24,-2.63 2.706,-3.191 0.452,-0.578 0.409,-0.526 0.431,-0.995 l 0,-1.356 0,-0.944 c -0.001,-0.008 -0.002,-0.017 -0.002,-0.026 -0.002,0 -0.006,-0.165 -0.066,-0.287 -0.074,-0.124 -0.099,-0.188 -0.328,-0.205 l -27.297,-0.003 0,0.002 c -0.058,0.059 -0.278,-0.128 -0.323,0.58 l 0,7.25 c 0.035,0 -0.061,0.442 0.542,0.44 0.002,0 0.024,-0.002 0.058,-0.002 l 0.01,0 z m -22.729,0.167 c -0.169,-0.305 -0.167,-0.569 -0.169,-0.609 l 0,-7.25 c -0.006,-0.537 0.184,-0.93 0.457,-1.138 0.265,-0.208 0.534,-0.225 0.651,-0.227 0.02,0 0.038,0.001 0.044,0.002 l 27.259,0 c 0.539,-0.002 0.908,0.353 1.034,0.655 0.079,0.172 0.112,0.331 0.127,0.446 l 0.014,0.014 0,0.163 0,2.324 c 0.022,0.522 -0.125,0.949 -0.614,1.498 -0.474,0.568 -2.71,3.195 -2.72,3.206 -1.334,1.457 -3.009,1.524 -3.277,1.529 l -0.017,0 0,-0.299 -0.01,0.301 -21.563,0 0,-0.392 -0.008,0.392 c -0.004,-0.002 -0.017,0 -0.05,0 -0.011,0.001 -0.022,0.001 -0.033,0.001 -0.567,0 -0.967,-0.31 -1.125,-0.616" /><path
   style="fill:#233a6d;fill-rule:nonzero;stroke:none"
   id="path1264"
   class="ps017"
   d="m 25.0169,92.54578 0.978,-0.373 7.772,20.247 -0.976,0.375 z" /><path
   style="fill:#233a6d;fill-rule:nonzero;stroke:none"
   id="path1268"
   class="ps017"
   d="m 55.3523,113.11078 33.688,-19.898 0.532,0.9 -33.687,19.9 z" /><path
   style="fill:#233a6d;fill-rule:nonzero;stroke:none"
   id="path1272"
   class="ps017"
   d="m 23.7532,5.46818 c 10.072,1.098 21.7,4.336 21.7,4.336 l 40.738,9.959 c 7.083,2.241 7.889,8.216 7.889,12.729 0,12.71 0.157,49.303 0.17,50.838 l 0,1.038 c 0,5.127 -4.136,9.284 -9.262,9.284 l -0.5,-0.007 -53.54,0 -2.335,-0.004 c -1.625,0 -3.021,-0.971 -3.644,-2.363 l -0.249,-0.627 -21.459,-55.991 -1.105,-3.213 c -0.55,-1.85 -0.847,-3.809 -0.847,-5.837 0,-11.253 9.107,-20.244 20.36,-20.244 z" /><path
   style="fill:#233a6d;fill-rule:nonzero;stroke:none"
   id="path1276"
   class="ps017"
   d="m 2.617,25.60878 c 0,1.9 0.277,3.732 0.775,5.412 l 1.09,3.171 21.451,55.975 0.23,0.576 c 0.421,0.938 1.357,1.591 2.452,1.589 l 2.334,0.004 53.556,0.002 0.484,0.006 c 4.399,-0.008 7.953,-3.567 7.953,-7.975 l 0,-1.029 c -0.013,-1.544 -0.17,-38.128 -0.17,-50.848 0.004,-2.179 -0.209,-4.615 -1.167,-6.666 -0.965,-2.033 -2.561,-3.756 -5.752,-4.799 l -40.751,-9.964 c -0.008,0 -2.875,-0.801 -7.012,-1.741 -4.134,-0.94 -9.52,-2.013 -14.471,-2.552 l -1.971,-0.096 c -10.534,0.014 -19.031,8.415 -19.031,18.935 m 81.872,69.344 -53.542,0 -2.334,-0.004 c -2.157,-0.002 -4.014,-1.289 -4.859,-3.189 l -0.256,-0.641 -21.474,-56.033 -1.121,-3.266 C 0.316,29.85178 0,27.76578 0,25.60878 c 0.023,-11.979 9.706,-21.527 21.668,-21.55 l 0.019,0 2.129,0.103 -0.064,1.305 0.064,-1.305 0.042,0.002 0.037,0.004 c 10.227,1.118 21.872,4.369 21.868,4.365 l 40.772,9.969 0.048,0.014 c 3.855,1.2 6.191,3.577 7.393,6.209 1.217,2.625 1.407,5.435 1.411,7.767 0,12.701 0.157,49.304 0.171,50.838 l 0,1.039 c -0.012,5.845 -4.72,10.59 -10.588,10.59 z" /><path
   style="fill:#233a6d;fill-rule:nonzero;stroke:none"
   id="path1280"
   class="ps017"
   d="m 5.7659,35.18398 c 0,1.177 -0.953,2.131 -2.13,2.131 -1.177,0 -2.132,-0.954 -2.132,-2.131 0,-1.177 0.955,-2.13 2.132,-2.13 1.177,0 2.13,0.953 2.13,2.13" /><path
   style="fill:#233a6d;fill-rule:nonzero;stroke:none"
   id="path1284"
   class="ps017"
   d="m 2.8123,35.18398 c 0,0.452 0.37,0.821 0.823,0.823 0.454,-0.002 0.822,-0.369 0.822,-0.823 0,-0.456 -0.368,-0.821 -0.822,-0.821 -0.455,0 -0.823,0.367 -0.823,0.821 m -2.616,0 c 0,-1.9 1.541,-3.437 3.439,-3.439 1.899,0.002 3.437,1.539 3.437,3.439 0,1.898 -1.536,3.437 -3.437,3.439 -1.9,-0.002 -3.439,-1.539 -3.439,-3.439" /><path
   style="fill:#233a6d;fill-rule:nonzero;stroke:none"
   id="path1288"
   class="ps017"
   d="m 20.3714,5.40568 c 0,1.176 -0.955,2.131 -2.131,2.131 -1.178,0 -2.131,-0.955 -2.131,-2.131 0,-1.177 0.953,-2.131 2.131,-2.131 1.176,0 2.131,0.954 2.131,2.131" /><path
   style="fill:#233a6d;fill-rule:nonzero;stroke:none"
   id="path1292"
   class="ps017"
   d="m 17.4178,5.40568 c 0,0.452 0.369,0.823 0.823,0.823 0.45,0 0.821,-0.371 0.823,-0.823 -0.002,-0.455 -0.371,-0.823 -0.823,-0.823 -0.456,0 -0.823,0.368 -0.823,0.823 m -2.616,0 c 0,-1.9 1.537,-3.439 3.439,-3.439 1.898,0.002 3.437,1.539 3.437,3.439 -0.002,1.899 -1.537,3.437 -3.437,3.439 -1.902,-0.002 -3.439,-1.542 -3.439,-3.439" /><path
   style="fill:#233a6d;fill-rule:nonzero;stroke:none"
   id="path1296"
   class="ps017"
   d="m 28.2083,93.56588 c 0,1.177 -0.954,2.131 -2.13,2.131 -1.178,0 -2.131,-0.954 -2.131,-2.131 0,-1.177 0.953,-2.13 2.131,-2.13 1.176,0 2.13,0.953 2.13,2.13" /><path
   style="fill:#233a6d;fill-rule:nonzero;stroke:none"
   id="path1300"
   class="ps017"
   d="m 25.2552,93.56538 c 0,0.455 0.367,0.822 0.824,0.824 0.451,-0.002 0.82,-0.369 0.822,-0.824 -0.002,-0.453 -0.369,-0.822 -0.822,-0.822 -0.457,0 -0.824,0.367 -0.824,0.822 m -2.616,0 c 0,-1.899 1.54,-3.436 3.44,-3.438 1.897,0.002 3.436,1.539 3.436,3.438 -0.002,1.899 -1.539,3.438 -3.436,3.438 -1.902,0 -3.44,-1.539 -3.44,-3.438" /><path
   style="fill:#233a6d;fill-rule:nonzero;stroke:none"
   id="path1304"
   class="ps017"
   d="m 93.22,22.85298 c 0,1.176 -0.954,2.13 -2.131,2.13 -1.177,0 -2.131,-0.954 -2.131,-2.13 0,-1.177 0.954,-2.131 2.131,-2.131 1.177,0 2.131,0.954 2.131,2.131" /><path
   style="fill:#233a6d;fill-rule:nonzero;stroke:none"
   id="path1308"
   class="ps017"
   d="m 90.2649,22.85298 c 0,0.452 0.369,0.822 0.824,0.822 0.452,0 0.822,-0.37 0.822,-0.822 0,-0.455 -0.37,-0.822 -0.822,-0.824 -0.455,0.002 -0.824,0.369 -0.824,0.824 m -2.615,0 c 0,-1.9 1.539,-3.439 3.439,-3.439 1.9,0 3.437,1.539 3.439,3.439 -0.002,1.898 -1.539,3.437 -3.439,3.437 -1.9,0 -3.437,-1.539 -3.439,-3.437" /><path
   style="fill:#233a6d;fill-rule:nonzero;stroke:none"
   id="path1312"
   class="ps017"
   d="m 52.4827,94.87538 c 0,-2.063 1.672,-3.735 3.736,-3.735 2.063,0 3.737,1.672 3.737,3.735 0,2.063 -1.674,3.736 -3.737,3.736 -2.064,0 -3.736,-1.673 -3.736,-3.736" /><path
   style="fill:#233a6d;fill-rule:nonzero;stroke:none"
   id="path1316"
   class="ps017"
   d="m 53.7903,94.87488 c 0.002,1.341 1.086,2.427 2.429,2.429 1.337,-0.002 2.425,-1.09 2.427,-2.429 -0.002,-1.339 -1.087,-2.425 -2.427,-2.427 -1.343,0.002 -2.427,1.086 -2.429,2.427 m -2.617,0 c 0.003,-2.785 2.259,-5.044 5.046,-5.044 2.783,0.002 5.042,2.257 5.044,5.044 -0.002,2.787 -2.259,5.044 -5.044,5.044 -2.787,0 -5.043,-2.259 -5.046,-5.044" /><path
   style="fill:#ffffff;fill-rule:nonzero;stroke:none"
   id="path1320"
   class="ps016"
   d="m 1.8308,25.60878 c 0,1.979 0.289,3.887 0.82,5.667 l 1.099,3.198 21.455,55.984 0.242,0.606 c 0.541,1.21 1.753,2.054 3.166,2.054 l 2.336,0.003 53.546,0 0.493,0.008 c 4.837,-0.008 8.738,-3.92 8.738,-8.76 l 0,-1.034 c -0.012,-1.541 -0.169,-38.13 -0.169,-50.842 -0.029,-4.492 -0.752,-10.075 -7.491,-12.221 l -40.754,-9.964 c -0.021,-0.002 -11.599,-3.228 -21.607,-4.32 l -2.036,-0.097 c -10.969,0 -19.836,8.757 -19.838,19.718 m 82.657,68.559 -53.541,0 -2.334,-0.004 c -1.838,0 -3.418,-1.097 -4.131,-2.694 l -0.252,-0.632 -21.463,-56.007 -1.112,-3.235 c -0.566,-1.898 -0.869,-3.907 -0.869,-5.987 0.021,-11.543 9.346,-20.745 20.908,-20.766 l 2.084,0.103 -0.025,0.521 0.056,-0.518 c 10.135,1.105 21.771,4.347 21.769,4.347 l 40.769,9.968 c 7.394,2.325 8.284,8.693 8.255,13.229 0,12.706 0.157,49.303 0.17,50.838 l 0,1.038 c -0.009,5.414 -4.369,9.805 -9.792,9.805 z" /><path
   style="fill:#233a6d;fill-rule:nonzero;stroke:none"
   id="path1324"
   class="ps017"
   d="m 20.3714,5.40568 c 0,1.176 -0.955,2.131 -2.131,2.131 -1.178,0 -2.131,-0.955 -2.131,-2.131 0,-1.177 0.953,-2.131 2.131,-2.131 1.176,0 2.131,0.954 2.131,2.131" /><path
   style="fill:#ffffff;fill-rule:nonzero;stroke:none"
   id="path1328"
   class="ps016"
   d="m 16.6331,5.40568 c 0,0.886 0.719,1.606 1.607,1.606 0.886,0 1.607,-0.72 1.607,-1.606 0,-0.889 -0.721,-1.607 -1.607,-1.609 -0.888,0.002 -1.607,0.72 -1.607,1.609 m -1.048,0 c 0.002,-1.466 1.19,-2.655 2.655,-2.655 1.465,0 2.653,1.189 2.655,2.655 -0.002,1.465 -1.19,2.652 -2.655,2.652 -1.468,0 -2.653,-1.189 -2.655,-2.652" /><path
   style="fill:#233a6d;fill-rule:nonzero;stroke:none"
   id="path1332"
   class="ps017"
   d="m 52.4827,94.87538 c 0,-2.063 1.672,-3.735 3.736,-3.735 2.063,0 3.737,1.672 3.737,3.735 0,2.063 -1.674,3.736 -3.737,3.736 -2.064,0 -3.736,-1.673 -3.736,-3.736" /><path
   style="fill:#ffffff;fill-rule:nonzero;stroke:none"
   id="path1336"
   class="ps016"
   d="m 53.0042,94.87448 c 0.004,1.775 1.438,3.21 3.215,3.212 1.772,-0.002 3.208,-1.437 3.213,-3.212 -0.005,-1.773 -1.441,-3.208 -3.213,-3.211 -1.777,0.003 -3.211,1.436 -3.215,3.211 m -1.044,0 c 0,-2.351 1.906,-4.258 4.259,-4.258 2.35,0 4.258,1.905 4.258,4.258 0,2.353 -1.908,4.26 -4.258,4.26 -2.353,0 -4.259,-1.907 -4.259,-4.26" /><path
   style="fill:#233a6d;fill-rule:nonzero;stroke:none"
   id="path1340"
   class="ps017"
   d="m 28.2083,93.56588 c 0,1.177 -0.954,2.131 -2.13,2.131 -1.178,0 -2.131,-0.954 -2.131,-2.131 0,-1.177 0.953,-2.13 2.131,-2.13 1.176,0 2.13,0.953 2.13,2.13" /><path
   style="fill:#ffffff;fill-rule:nonzero;stroke:none"
   id="path1344"
   class="ps016"
   d="m 24.4705,93.56638 c 0.002,0.887 0.719,1.604 1.608,1.606 0.886,-0.002 1.605,-0.719 1.607,-1.606 -0.002,-0.889 -0.721,-1.606 -1.607,-1.608 -0.889,0.002 -1.606,0.719 -1.608,1.608 m -1.047,0 c 0,-1.467 1.189,-2.653 2.655,-2.653 1.463,0 2.652,1.186 2.652,2.653 0,1.465 -1.187,2.653 -2.652,2.653 -1.466,0 -2.655,-1.188 -2.655,-2.653" /><path
   style="fill:#233a6d;fill-rule:nonzero;stroke:none"
   id="path1348"
   class="ps017"
   d="m 91.2278,93.02778 c 0,1.177 -0.953,2.131 -2.13,2.131 -1.177,0 -2.132,-0.954 -2.132,-2.131 0,-1.177 0.955,-2.13 2.132,-2.13 1.177,0 2.13,0.953 2.13,2.13" /><path
   style="fill:#ffffff;fill-rule:nonzero;stroke:none"
   id="path1352"
   class="ps016"
   d="m 87.4886,93.02778 c 0.003,0.888 0.721,1.606 1.608,1.608 0.888,-0.002 1.605,-0.72 1.607,-1.608 -0.002,-0.888 -0.719,-1.606 -1.607,-1.606 -0.887,0 -1.605,0.718 -1.608,1.606 m -1.046,0 c 0,-1.466 1.189,-2.653 2.654,-2.653 1.466,0 2.654,1.187 2.654,2.653 0,1.466 -1.188,2.653 -2.654,2.653 -1.465,0 -2.654,-1.187 -2.654,-2.653" /><path
   style="fill:#233a6d;fill-rule:nonzero;stroke:none"
   id="path1356"
   class="ps017"
   d="m 93.22,22.85298 c 0,1.176 -0.954,2.13 -2.131,2.13 -1.177,0 -2.131,-0.954 -2.131,-2.13 0,-1.177 0.954,-2.131 2.131,-2.131 1.177,0 2.131,0.954 2.131,2.131" /><path
   style="fill:#ffffff;fill-rule:nonzero;stroke:none"
   id="path1360"
   class="ps016"
   d="m 89.4807,22.85298 c 0.002,0.886 0.721,1.604 1.608,1.607 0.886,-0.003 1.605,-0.721 1.607,-1.607 -0.002,-0.888 -0.721,-1.606 -1.607,-1.609 -0.887,0.003 -1.606,0.721 -1.608,1.609 m -1.047,0 c 0,-1.466 1.187,-2.654 2.655,-2.654 1.466,0 2.654,1.188 2.654,2.654 0,1.464 -1.188,2.652 -2.654,2.652 -1.468,0 -2.655,-1.188 -2.655,-2.652" /><path
   style="fill:#233a6d;fill-rule:nonzero;stroke:none"
   id="path1364"
   class="ps017"
   d="m 5.7659,35.18398 c 0,1.177 -0.953,2.131 -2.13,2.131 -1.177,0 -2.132,-0.954 -2.132,-2.131 0,-1.177 0.955,-2.13 2.132,-2.13 1.177,0 2.13,0.953 2.13,2.13" /><path
   style="fill:#ffffff;fill-rule:nonzero;stroke:none"
   id="path1368"
   class="ps016"
   d="m 2.0271,35.18398 c 0.002,0.887 0.721,1.606 1.608,1.608 0.887,-0.002 1.606,-0.721 1.606,-1.608 0,-0.889 -0.717,-1.606 -1.606,-1.608 -0.887,0.002 -1.606,0.721 -1.608,1.608 m -1.046,0 c 0,-1.467 1.189,-2.654 2.654,-2.654 1.465,0 2.652,1.187 2.654,2.654 -0.002,1.465 -1.187,2.652 -2.654,2.654 -1.465,-0.002 -2.654,-1.189 -2.654,-2.654" /><path
   style="fill:#ffffff;fill-rule:nonzero;stroke:none"
   id="path1372"
   class="ps016"
   d="m 77.5188,61.63228 -0.577,-3.325 0.8,-4.731 c 0,0 0.037,-0.257 0.343,-0.254 l 1.54,-0.043 1.312,-0.393 2.765,0 2.311,-0.39 3.047,0.54 c 0,0 0.301,0.073 0.326,0.286 l 0.682,3.985 -0.122,4.629 -0.779,2.592 -0.324,0.54 0.67,3.953 0.238,4.665 -0.734,3.392 c 0,0 -0.074,0.278 -0.356,0.278 l -2.864,0.089 -3.023,-0.227 -1.285,0.249 -3.133,-0.249 c 0,0 -0.29,-0.028 -0.296,-0.244 l -1.053,-4.418 z" /><path
   style="fill:#233a6d;fill-rule:nonzero;stroke:none"
   id="path1376"
   class="ps017"
   d="m 78.0882,53.19138 -0.008,0 0.008,0 m -0.569,8.441 0.13,0.006 -0.516,10.887 1.057,4.444 c -0.008,0.073 0.175,0.118 0.175,0.118 l 3.097,0.252 1.32,-0.252 3.01,0.227 2.867,-0.089 c 0.087,0.005 0.145,-0.043 0.18,-0.088 0.035,-0.046 0.05,-0.091 0.05,-0.087 l 0.73,-3.359 -0.237,-4.648 -0.679,-4.001 0.027,-0.043 0.311,-0.508 0.773,-2.56 0.124,-4.603 -0.682,-3.99 c 0.013,-0.089 -0.225,-0.175 -0.221,-0.173 l -3.001,-0.539 -2.333,0.39 -2.728,-0.006 -1.344,0.4 -1.551,0.039 0,0.002 c -0.206,0 -0.2,0.145 -0.208,0.147 l -0.802,4.686 0.579,3.325 z m 0.822,15.715 c 0.002,-0.006 -0.374,-0.01 -0.409,-0.343 l -1.057,-4.454 0.511,-10.913 -0.575,-3.353 0.8,-4.727 c 0,-0.012 0.069,-0.366 0.467,-0.366 0,0.004 0.009,0.002 0.011,0 l -0.001,0 1.499,-0.037 1.349,-0.401 2.743,0.003 2.355,-0.388 3.055,0.541 c 0.004,0.01 0.361,0.057 0.425,0.39 l 0.683,4.011 -0.128,4.663 -0.79,2.623 -0.299,0.496 0.663,3.922 0.235,4.698 -0.735,3.4 c -0.002,0.008 -0.095,0.365 -0.479,0.373 l -2.878,0.091 -2.989,-0.231 -1.318,0.252 z" /><path
   style="fill:#ffffff;fill-rule:nonzero;stroke:none"
   id="path1380"
   class="ps016"
   d="m 56.0491,75.48678 c -1.067,0 -1.934,-0.865 -1.934,-1.935 0,-1.068 0.867,-1.935 1.934,-1.935 1.069,0 1.935,0.867 1.935,1.935 0,1.07 -0.866,1.935 -1.935,1.935 m -3.354,1.385 6.673,0 0,-6.672 -6.673,0 z" /><path
   style="fill:#233a6d;fill-rule:nonzero;stroke:none"
   id="path1384"
   class="ps017"
   d="m 53.9851,73.55168 c 0,-1.14 0.924,-2.065 2.063,-2.067 1.141,0.002 2.063,0.927 2.063,2.067 0,1.141 -0.922,2.064 -2.063,2.064 l 0,-0.129 0,-0.131 c 0.997,0 1.804,-0.806 1.804,-1.804 0,-0.996 -0.807,-1.804 -1.804,-1.806 -0.996,0.002 -1.802,0.81 -1.802,1.806 0,0.998 0.806,1.804 1.802,1.804 l 0,0.131 0,0.129 c -1.139,0 -2.063,-0.923 -2.063,-2.064 m -1.289,-3.223 0,-0.129 z m 0.129,6.411 6.41,0 0,-6.41 -6.41,0 z m -0.261,0.263 0,-6.803 0,-0.132 6.934,0 0,6.935 z" /><path
   style="fill:#ffffff;fill-rule:nonzero;stroke:none"
   id="path1386"
   class="ps016"
   d="m 82.6959,63.946779 -4.44,0 0,2.64 4.44,0 z" /><path
   style="fill:#233a6d;fill-rule:nonzero;stroke:none"
   id="path1388"
   class="ps017"
   d="m 78.3859,66.456779 4.18,0 0,-2.38 -4.18,0 z m -0.26,0.26 0,-2.9 4.57,0 0,0.13 0,-0.13 0.13,0 0,2.9 z" /><path
   style="fill:#ffffff;fill-rule:nonzero;stroke:none"
   id="path1390"
   class="ps016"
   d="m 57.7159,47.056779 -3.44,0 0,-0.66 3.44,0 z" /><path
   style="fill:#233a6d;fill-rule:nonzero;stroke:none"
   id="path1394"
   class="ps017"
   d="m 54.2757,47.02188 3.408,0 0.031,-0.598 -3.406,-0.031 z m -0.033,0.033 0.033,-0.695 3.473,0.033 0,0.662 -0.034,0 0,0.031 z" /><path
   style="fill:#ffffff;fill-rule:nonzero;stroke:none"
   id="path1396"
   class="ps016"
   d="m 63.0159,68.036779 -2.71,0 0,2.52 2.71,0 z" /><path
   style="fill:#233a6d;fill-rule:nonzero;stroke:none"
   id="path1398"
   class="ps017"
   d="m 60.4359,70.416779 2.44,0 0,-2.25 -2.44,0 z m -0.27,0.27 0,-2.78 2.85,0 0,0.13 0,-0.13 0.12,0 0,2.78 z" /><path
   style="fill:#ffffff;fill-rule:nonzero;stroke:none"
   id="path1400"
   class="ps016"
   d="m 51.6159,68.036779 -2.65,0 0,2.52 2.65,0 z" /><path
   style="fill:#233a6d;fill-rule:nonzero;stroke:none"
   id="path1402"
   class="ps017"
   d="m 49.0959,70.426779 2.38,0 0,-2.26 -2.38,0 z m -0.26,0.26 0,-2.78 2.78,0 0,0.13 0,-0.13 0.13,0 0,2.78 z" /><path
   style="fill:#ffffff;fill-rule:nonzero;stroke:none"
   id="path1404"
   class="ps016"
   d="m 60.4959,39.076779 -2.78,0 0,-2.46 2.78,0 z" /><path
   style="fill:#233a6d;fill-rule:nonzero;stroke:none"
   id="path1408"
   class="ps017"
   d="m 57.845,38.94528 2.524,0 -0.002,-2.197 -2.522,0 z m 2.655,0.129 0,-0.129 z m -2.916,0.132 0,-2.719 3.046,0 0,2.587 0,0.132 z" /><path
   style="fill:#ffffff;fill-rule:nonzero;stroke:none"
   id="path1410"
   class="ps016"
   d="m 54.2759,39.076779 -2.79,0 0,-2.46 2.79,0 z" /><path
   style="fill:#233a6d;fill-rule:nonzero;stroke:none"
   id="path1412"
   class="ps017"
   d="m 51.6159,38.946779 2.53,0 0,-2.2 -2.53,0 z m 2.66,0.13 0,-0.13 z m -2.92,0.13 0,-2.72 3.05,0 0,2.59 0,0.13 z" /><path
   style="fill:#ffffff;fill-rule:nonzero;stroke:none"
   id="path1414"
   class="ps016"
   d="m 54.2759,49.566779 -2.79,0 0,-2.51 2.79,0 z" /><path
   style="fill:#233a6d;fill-rule:nonzero;stroke:none"
   id="path1416"
   class="ps017"
   d="m 51.6159,49.436779 2.53,0 0,-2.26 -2.53,0 z m 2.66,0.13 0,-0.13 z m -2.92,0.13 0,-2.77 3.05,0 0,2.64 0,0.13 z" /><path
   style="fill:#ffffff;fill-rule:nonzero;stroke:none"
   id="path1418"
   class="ps016"
   d="m 60.4959,49.566779 -2.78,0 0,-2.51 2.78,0 z" /><path
   style="fill:#233a6d;fill-rule:nonzero;stroke:none"
   id="path1420"
   class="ps017"
   d="m 57.8459,49.436779 2.52,0 0,-2.25 -2.52,0 z m 2.65,0.13 0,-0.13 z m -2.91,0.13 0,-2.77 3.04,0 0,2.64 0,0.13 z" /><path
   style="fill:#ffffff;fill-rule:nonzero;stroke:none"
   id="path1422"
   class="ps016"
   d="m 63.1759,60.086779 -2.78,0 0,-2.59 2.78,0 z" /><path
   style="fill:#233a6d;fill-rule:nonzero;stroke:none"
   id="path1426"
   class="ps017"
   d="m 60.5218,59.95398 2.526,0 -0.002,-2.331 -2.524,0 z m 2.656,0.13 0,-0.13 z m -2.916,0.131 0,-2.853 3.047,0 0,2.722 0,0.131 z" /><path
   style="fill:#ffffff;fill-rule:nonzero;stroke:none"
   id="path1428"
   class="ps016"
   d="m 54.2759,60.086779 -2.79,0 0,-2.61 2.79,0 z" /><path
   style="fill:#233a6d;fill-rule:nonzero;stroke:none"
   id="path1430"
   class="ps017"
   d="m 51.6259,59.956779 2.52,0 0,-2.35 -2.52,0 z m 2.65,0.13 0,-0.13 z m -2.92,0.13 0,-2.87 3.05,0 0,2.74 0,0.13 z" /><path
   style="fill:#233a6d;fill-rule:nonzero;stroke:none"
   id="path1434"
   class="ps017"
   d="m 84.302,73.48968 0.486,0 0,2.737 -0.549,0 0,-2.113 -0.462,0.376 -0.275,-0.356 z" /><path
   style="fill:#233a6d;fill-rule:nonzero;stroke:none"
   id="path1438"
   class="ps017"
   d="m 85.5345,76.22698 0,-0.459 c 0.255,-0.247 1.184,-1.023 1.184,-1.525 0,-0.251 -0.224,-0.369 -0.447,-0.369 -0.231,0 -0.451,0.102 -0.632,0.22 l -0.042,-0.455 c 0.247,-0.126 0.533,-0.196 0.811,-0.196 0.522,0 0.859,0.263 0.859,0.8 0,0.58 -0.585,1.114 -1.032,1.552 l 1.118,0 0,0.432 z" /><path
   style="fill:#233a6d;fill-rule:nonzero;stroke:none"
   id="path1440"
   class="ps017"
   d="m 88.0359,66.296779 -4.09,0 0,-2.03 4.09,0 z" /><path
   style="fill:#ffffff;fill-rule:nonzero;stroke:none"
   id="path1444"
   class="ps016"
   d="m 75.6878,61.13718 -0.043,-1.059 -0.476,-2.808 0.094,-0.945 1.257,0.2 0.547,1.017 0.369,-2.236 -1.374,0.226 -2.397,-0.299 0,0.84 0.458,0.073 0.939,5.661 -0.02,5.918 c 0,0 -0.24,0.557 -0.243,0.999 -0.952,-0.26 -1.634,-0.505 -1.634,-0.505 l -0.207,-0.18 -1.169,0 0.298,0.859 5.023,1.298 0.044,-0.965 c -0.494,-0.071 -0.994,-0.171 -1.466,-0.281 z" /><path
   style="fill:#233a6d;fill-rule:nonzero;stroke:none"
   id="path1448"
   class="ps017"
   d="m 72.1868,68.78798 4.799,1.241 0.031,-0.685 c -0.46,-0.071 -0.922,-0.165 -1.359,-0.267 l -0.101,-0.025 0,-7.91 -0.043,-1.042 -0.476,-2.844 0.107,-1.082 1.457,0.231 0.031,0.058 0.365,0.68 0.278,-1.68 -1.231,0.198 -2.253,-0.28 0,0.579 0.444,0.072 0.956,5.775 -0.032,5.969 c 0.002,0.002 -0.23,0.548 -0.232,0.948 l 0,0.171 -0.165,-0.045 c -0.956,-0.262 -1.64,-0.507 -1.685,-0.532 l -0.171,-0.148 -0.936,0 z m -0.202,0.218 -0.381,-1.098 0.184,0 1.217,0 0.037,0.033 0.166,0.155 c 10e-4,0 0.605,0.216 1.471,0.46 0.045,-0.422 0.225,-0.84 0.231,-0.834 l 0.023,-5.894 -0.926,-5.569 -0.474,-0.076 0,-0.11 0,-0.989 2.507,0.317 1.553,-0.256 -0.462,2.797 -0.698,-1.3 -1.056,-0.167 -0.08,0.773 0.477,2.826 0.043,1.057 -0.13,0.006 0.13,0 0,7.708 c 0.439,0.101 0.9,0.191 1.354,0.256 l 0.118,0.017 -0.006,0.119 -0.052,1.126 z" /><path
   style="fill:#ffffff;fill-rule:nonzero;stroke:none"
   id="path1450"
   class="ps016"
   d="m 37.1259,66.736779 1.34,0 0,-5.33 -1.34,0 z" /><path
   style="fill:#233a6d;fill-rule:nonzero;stroke:none"
   id="path1454"
   class="ps017"
   d="m 37.1297,61.53998 0,-0.129 z m 0.131,5.067 1.077,0 0,-5.067 -1.077,0 z m -0.262,0.262 0,-5.458 0,-0.132 1.6,0 0,5.59 z" /><path
   style="fill:#ffffff;fill-rule:nonzero;stroke:none"
   id="path1458"
   class="ps016"
   d="m 54.2796,60.08728 0,-0.002 -6.781,0 0,-0.864 -2.305,0 0,0.922 -6.725,0 0,1.267 0,5.328 0,1.296 15.811,0 0,-7.286 -0.001,0 0,-0.661 z" /><path
   style="fill:#233a6d;fill-rule:nonzero;stroke:none"
   id="path1462"
   class="ps017"
   d="m 54.2791,60.08638 0,-0.13 z m -15.68,1.323 0,5.33 0,1.163 15.549,0 0,-7.023 0,-0.131 0,-0.533 -6.781,0 0,-0.131 0,-0.734 -2.043,0 0,0.923 -6.725,0 z m -0.26,6.756 0,-0.131 0,-1.295 0,-5.33 0,-1.397 6.724,0 0,-0.923 2.565,0 0,0.132 0,0.733 6.782,0 0,0.13 0,0.002 0,0.131 -0.002,0 0,0.399 0.002,0 0,7.549 z" /><path
   style="fill:#ffffff;fill-rule:nonzero;stroke:none"
   id="path1464"
   class="ps016"
   d="m 42.3259,56.186779 1.38,0 0,-5.35 -1.38,0 z" /><path
   style="fill:#233a6d;fill-rule:nonzero;stroke:none"
   id="path1468"
   class="ps017"
   d="m 42.3289,50.96868 0,-0.129 z m 0.129,5.083 1.113,0 0,-5.083 -1.113,0 z m -0.26,0.262 0,-5.474 0,-0.132 1.635,0 0,5.606 z" /><path
   style="fill:#ffffff;fill-rule:nonzero;stroke:none"
   id="path1472"
   class="ps016"
   d="m 54.2786,50.22698 0,-0.661 -10.575,0 0,1.273 -0.001,0 0,5.344 0.001,0 0,1.296 10.576,0 0,-7.252 z" /><path
   style="fill:#233a6d;fill-rule:nonzero;stroke:none"
   id="path1476"
   class="ps017"
   d="m 54.4085,50.22698 -0.129,0 z m -10.576,5.825 0.002,0 0,0.131 -0.002,1.166 10.315,0 0,-7.122 0,-0.53 -10.313,0 0,1.272 -0.002,0 z m -0.259,1.558 0,-0.132 -0.002,-1.165 0,-5.605 0.002,0 0,-1.274 10.835,0 0,0.131 0,0.531 0.002,0 0,7.514 z" /><path
   style="fill:#ffffff;fill-rule:nonzero;stroke:none"
   id="path1480"
   class="ps016"
   d="m 54.2796,36.61858 0,-10.588 -15.759,0 0,10.588 1.758,0 0.827,0 z" /><path
   style="fill:#233a6d;fill-rule:nonzero;stroke:none"
   id="path1484"
   class="ps017"
   d="m 38.6507,36.48768 1.628,0 0.826,0 13.043,0 0,-10.328 -15.497,0 z m 15.628,0.131 0,-0.131 z m -13.174,0.13 -0.826,0 -1.889,0 0,-10.85 16.021,0 0,10.72 0,0.13 z" /><path
   style="fill:#ffffff;fill-rule:nonzero;stroke:none"
   id="path1486"
   class="ps016"
   d="m 37.1159,45.756779 1.37,0 0,-5.38 -1.37,0 z" /><path
   style="fill:#233a6d;fill-rule:nonzero;stroke:none"
   id="path1490"
   class="ps017"
   d="m 37.116,40.50818 0,-0.129 z m 0.131,5.118 1.106,-0.002 -0.002,-5.116 -1.104,0 z m -0.262,0.26 0,-5.507 0,-0.132 1.629,0 0,5.639 z" /><path
   style="fill:#ffffff;fill-rule:nonzero;stroke:none"
   id="path1494"
   class="ps016"
   d="m 54.2796,47.05408 0,-7.972 -6.774,0 0,-0.821 -2.268,0 0,0.84 -4.132,0 0,0.002 -0.827,0 0,-0.002 -1.791,0 0,1.277 -0.004,0 0,5.379 0.004,0 0,1.297 z" /><path
   style="fill:#233a6d;fill-rule:nonzero;stroke:none"
   id="path1498"
   class="ps017"
   d="m 38.614,45.62538 0.004,0 0,0.131 0,1.166 15.53,0 0,-7.71 -6.775,0 0,-0.131 0,-0.691 -2.006,0 0,0.841 -4.131,0 0,0.002 -0.131,0 -0.958,0 0,-0.002 -1.529,0 0,1.276 -0.004,0 z m 15.665,1.428 0,-0.131 z m -15.922,0.132 0,-0.132 0,-1.165 -0.004,0 0,-5.642 0.004,0 0,-1.276 2.051,0 0,0.002 0.567,-0.002 4.131,-0.002 0,-0.839 2.529,0 0,0.132 0,0.691 6.775,0 0,8.101 0,0.132 z" /><path
   style="fill:#ffffff;fill-rule:nonzero;stroke:none"
   id="path1500"
   class="ps016"
   d="m 41.1059,36.616779 -0.83,0 0,2.48 0.83,0 z" /><path
   style="fill:#233a6d;fill-rule:nonzero;stroke:none"
   id="path1502"
   class="ps017"
   d="m 40.4059,38.966779 0.57,0 0,-2.22 -0.57,0 z m 0.7,0.26 -0.96,0 0,-2.74 0.13,0 0.83,0 0,0.13 0,-0.13 0.13,0 0,2.74 z" /><path
   style="fill:#9ba9ca;fill-rule:nonzero;stroke:none"
   id="path1504"
   class="ps022"
   d="m 41.1059,39.096779 -0.83,0 0,0.01 0.83,0 z" /><path
   style="fill:#161215;fill-rule:nonzero;stroke:none"
   id="path1508"
   class="ps018"
   d="m 40.2464,39.10348 0.033,-0.035 0.053,0.002 0.773,0 0,0.03 0.031,0.001 0,0.002 -0.031,0 0,0.029 0,0.002 z" /><path
   style="fill:#ffffff;fill-rule:nonzero;stroke:none"
   id="path1510"
   class="ps016"
   d="m 38.5159,27.386779 -1.78,0 0,8.04 1.78,0 z" /><path
   style="fill:#233a6d;fill-rule:nonzero;stroke:none"
   id="path1512"
   class="ps017"
   d="m 36.8659,35.296779 1.52,0 0,-7.78 -1.52,0 z m -0.26,0.26 0,-8.3 1.91,0 0,0.14 0,-0.14 0.13,0 0,8.3 z" /><path
   style="fill:#ffffff;fill-rule:nonzero;stroke:none"
   id="path1516"
   class="ps016"
   d="m 73.4749,36.61858 0,-10.588 -15.759,0 0,10.588 13.173,0 0.827,0 z" /><path
   style="fill:#233a6d;fill-rule:nonzero;stroke:none"
   id="path1520"
   class="ps017"
   d="m 57.844,36.48678 13.044,0 0.828,0 1.628,0 -0.002,-10.325 -15.498,0 z m 15.63,0.132 0,-0.132 z m -1.758,0.129 -0.828,0 -13.304,0 0,-10.848 16.022,0 0,10.719 0,0.129 z" /><path
   style="fill:#ffffff;fill-rule:nonzero;stroke:none"
   id="path1522"
   class="ps016"
   d="m 71.7159,36.616779 -0.83,0 0,2.48 0.83,0 z" /><path
   style="fill:#233a6d;fill-rule:nonzero;stroke:none"
   id="path1524"
   class="ps017"
   d="m 71.0159,38.966779 0.57,0 0,-2.22 -0.57,0 z m 0.7,0.27 -0.96,0 0,-2.75 0.13,0 0.83,0 0,0.13 0,-0.13 0.13,0 0,2.75 z" /><path
   style="fill:#9ba9ca;fill-rule:nonzero;stroke:none"
   id="path1526"
   class="ps022"
   d="m 71.7159,39.096779 -0.83,0 0,0.01 0.83,0 z" /><path
   style="fill:#161215;fill-rule:nonzero;stroke:none"
   id="path1530"
   class="ps018"
   d="m 70.8548,39.10248 0.032,-0.035 0.055,0.002 0.773,0 0,0.03 0.034,10e-4 0,0.002 -0.034,0 0,0.031 0,0.002 z" /><path
   style="fill:#ffffff;fill-rule:nonzero;stroke:none"
   id="path1532"
   class="ps016"
   d="m 73.4759,35.426779 1.79,0 0,-8.04 -1.79,0 z" /><path
   style="fill:#233a6d;fill-rule:nonzero;stroke:none"
   id="path1536"
   class="ps017"
   d="m 73.4749,27.52088 0,-0.13 z m 0.128,7.778 1.526,0 0,-7.778 -1.524,0 z m -0.26,0.262 0,-8.17 0,-0.132 2.048,0 0,8.302 z" /><path
   style="fill:#ffffff;fill-rule:nonzero;stroke:none"
   id="path1540"
   class="ps016"
   d="m 73.6575,57.49158 0,-7.926 -13.26,0 0,0.661 -0.003,0 0,7.265 z" /><path
   style="fill:#233a6d;fill-rule:nonzero;stroke:none"
   id="path1544"
   class="ps017"
   d="m 60.5247,57.36128 13.001,0 0,-7.666 -12.999,0 0,0.662 -0.002,0 z m 13.133,0.13 0,-0.13 z m -13.395,0.13 0,-7.526 0.004,0 0,-0.661 13.521,0 0,8.057 0,0.13 z" /><path
   style="fill:#ffffff;fill-rule:nonzero;stroke:none"
   id="path1548"
   class="ps016"
   d="m 43.635,71.88908 -10e-4,0 0,2.721 10e-4,0 0,1.331 7.975,0 0,-5.384 -7.975,0 z" /><path
   style="fill:#233a6d;fill-rule:nonzero;stroke:none"
   id="path1552"
   class="ps017"
   d="m 43.6341,71.88908 0,-0.131 z m 0.129,2.589 0.002,0 0,0.131 0,1.2 7.713,0 0,-5.122 -7.713,0 0,1.202 0,0.129 -0.002,0 z m -0.258,1.592 0,-0.129 -0.002,-1.2 0,-2.983 0.002,0 0,-1.332 8.234,0 0,5.644 z" /><path
   style="fill:#ffffff;fill-rule:nonzero;stroke:none"
   id="path1554"
   class="ps016"
   d="m 42.3759,74.606779 1.26,0 0,-2.72 -1.26,0 z" /><path
   style="fill:#233a6d;fill-rule:nonzero;stroke:none"
   id="path1558"
   class="ps017"
   d="m 42.3753,72.01848 0,-0.129 z m 0.132,2.461 0.995,0 0,-2.461 -0.995,0 z m -0.263,0.261 0,-2.851 0,-0.132 1.521,0 0,2.983 z" /><path
   style="fill:#ffffff;fill-rule:nonzero;stroke:none"
   id="path1560"
   class="ps016"
   d="m 62.6059,20.726779 -13.29,0 0,5.3 13.29,0 z" /><path
   style="fill:#233a6d;fill-rule:nonzero;stroke:none"
   id="path1562"
   class="ps017"
   d="m 49.4459,25.896779 13.03,0 0,-5.04 -13.03,0 z m -0.26,0.26 0,-5.56 13.42,0 0,0.13 0,-0.13 0.13,0 0,5.56 z" /><path
   style="fill:#ffffff;fill-rule:nonzero;stroke:none"
   id="path1564"
   class="ps016"
   d="m 54.2759,50.226779 6.12,0 0,-0.66 -6.12,0 z" /><path
   style="fill:#233a6d;fill-rule:nonzero;stroke:none"
   id="path1568"
   class="ps017"
   d="m 54.2786,49.69528 0,-0.129 z m 0.132,0.401 5.853,0 0,-0.401 -5.853,0 z m -0.261,0.261 0,-0.131 0,-0.66 0,-0.132 6.375,0 0,0.132 0,0.791 z" /><path
   style="fill:#9ba9ca;fill-rule:nonzero;stroke:none"
   id="path1570"
   class="ps022"
   d="m 54.2759,50.226779 0,0 0,-0.66 0,0 z" /><path
   style="fill:#161215;fill-rule:nonzero;stroke:none"
   id="path1574"
   class="ps018"
   d="m 54.2454,50.22748 0,-0.662 0.033,0 0,-0.032 0.032,0.032 -0.03,0.693 z" /><path
   style="fill:#9ba9ca;fill-rule:nonzero;stroke:none"
   id="path1576"
   class="ps022"
   d="m 60.3959,49.566779 0,0 0,0.66 0,0 z" /><path
   style="fill:#161215;fill-rule:nonzero;stroke:none"
   id="path1580"
   class="ps018"
   d="m 60.3606,50.22598 0.004,-0.087 0,-0.574 0.027,0 0.002,-0.032 0.004,0 0,0.032 0.031,0 -0.031,0.694 z" /><path
   style="fill:#ffffff;fill-rule:nonzero;stroke:none"
   id="path1582"
   class="ps016"
   d="m 60.3959,56.826779 -6.11,0 0,0.66 6.11,0 z" /><path
   style="fill:#233a6d;fill-rule:nonzero;stroke:none"
   id="path1584"
   class="ps017"
   d="m 54.4159,57.356779 5.85,0 0,-0.4 -5.85,0 z m 5.98,0.14 0,-0.14 z m -6.24,0.12 0,-0.12 0,-0.8 6.37,0 0,0.13 0,0.67 0,0.12 z" /><path
   style="fill:#ffffff;fill-rule:nonzero;stroke:none"
   id="path1586"
   class="ps016"
   d="m 54.2759,60.746779 3.38,0 0,-0.66 -3.38,0 z" /><path
   style="fill:#233a6d;fill-rule:nonzero;stroke:none"
   id="path1590"
   class="ps017"
   d="m 54.2801,60.21718 0,-0.129 z m 0.129,0.401 3.117,0 0,-0.401 -3.117,0 z m -0.261,0.261 0,-0.131 0,-0.66 0,-0.132 3.639,0 0,0.132 0,0.791 z" /><path
   style="fill:#9ba9ca;fill-rule:nonzero;stroke:none"
   id="path1592"
   class="ps022"
   d="m 54.2759,60.746779 0,0 0,-0.66 0,0 z" /><path
   style="fill:#161215;fill-rule:nonzero;stroke:none"
   id="path1596"
   class="ps018"
   d="m 54.2454,60.74848 0,-0.662 0.033,0 0,-0.033 0.032,0.033 -0.03,0.695 z" /><path
   style="fill:#ffffff;fill-rule:nonzero;stroke:none"
   id="path1600"
   class="ps016"
   d="m 68.2796,71.88908 0,-1.332 -7.976,0 0,5.384 7.976,0 0,-1.331 0.004,0 0,-2.721 z" /><path
   style="fill:#233a6d;fill-rule:nonzero;stroke:none"
   id="path1604"
   class="ps017"
   d="m 68.4095,71.88908 -0.13,0 z m -7.978,3.92 7.717,0 0,-1.33 0.004,0 0,-2.461 -0.004,0 0,-0.129 0,-1.203 -7.717,0 z m -0.259,0.261 0,-5.645 8.237,0 0,0.132 0,1.2 0.005,0 0,2.983 -0.005,0 0,1.33 z" /><path
   style="fill:#ffffff;fill-rule:nonzero;stroke:none"
   id="path1606"
   class="ps016"
   d="m 69.5359,71.886779 -1.25,0 0,2.72 1.25,0 z" /><path
   style="fill:#233a6d;fill-rule:nonzero;stroke:none"
   id="path1608"
   class="ps017"
   d="m 68.4159,74.476779 0.99,0 0,-2.46 -0.99,0 z m -0.26,0.26 0,-2.98 0.13,0 1.25,0 0,0.13 0,-0.13 0.13,0 0,2.98 z" /><path
   style="fill:#ffffff;fill-rule:nonzero;stroke:none"
   id="path1612"
   class="ps016"
   d="m 73.468,61.41058 0,-1.268 -6.726,0 0,-0.921 -2.302,0 0,0.864 -6.784,0 0,0.002 0,0.661 0,7.286 15.812,0 0,-1.296 10e-4,0 0,-5.328 z" /><path
   style="fill:#233a6d;fill-rule:nonzero;stroke:none"
   id="path1616"
   class="ps017"
   d="m 73.597,61.40958 -0.13,0 z m -15.812,-0.661 0,7.154 15.552,0 0,-1.163 0,-5.33 0,-1.137 -6.725,0 0,-0.13 0,-0.791 -2.042,0 0,0.863 -6.785,0 z m -0.258,7.416 0,-7.416 0,-0.662 0,-0.132 6.781,-0.002 0,-0.863 2.562,0 0,0.132 0,0.791 6.727,0 0,0.13 0,1.137 0.002,0 0,5.589 -0.002,0 0,1.296 z" /><path
   style="fill:#ffffff;fill-rule:nonzero;stroke:none"
   id="path1618"
   class="ps016"
   d="m 74.8059,61.406779 -1.34,0 0,5.33 1.34,0 z" /><path
   style="fill:#233a6d;fill-rule:nonzero;stroke:none"
   id="path1620"
   class="ps017"
   d="m 73.5959,66.606779 1.08,0 0,-5.07 -1.08,0 z m -0.26,0.26 0,-5.59 1.47,0 0,0.13 0,-0.13 0.13,0 0,5.59 z" /><path
   style="fill:#ffffff;fill-rule:nonzero;stroke:none"
   id="path1624"
   class="ps016"
   d="m 73.5081,40.37838 0,-1.277 -1.792,0 0,0.002 -0.827,0 0,-0.002 -4.131,0 0,-0.84 -2.268,0 0,0.821 -6.774,0 0,7.972 15.792,0 0,-1.297 z" /><path
   style="fill:#233a6d;fill-rule:nonzero;stroke:none"
   id="path1628"
   class="ps017"
   d="m 57.844,46.92228 15.532,0 0,-1.166 0,-5.379 0,-1.147 -1.53,0 0,0.002 -0.13,0 -0.958,0 -4.133,0 0,-0.132 0,-0.709 -2.006,0 0,0.822 -6.775,-0.002 z m -0.26,0.262 0,-8.232 6.776,-0.003 0,-0.819 2.527,0 0,0.131 0,0.709 4.131,0 0,0.002 0.566,-0.002 2.054,0 0,0.13 0,1.277 0,5.379 0,1.428 z" /><path
   style="fill:#ffffff;fill-rule:nonzero;stroke:none"
   id="path1630"
   class="ps016"
   d="m 74.8859,45.766779 -1.38,0 0,-5.39 1.38,0 z" /><path
   style="fill:#233a6d;fill-rule:nonzero;stroke:none"
   id="path1632"
   class="ps017"
   d="m 73.6359,45.636779 1.12,0 0,-5.13 -1.12,0 z m 1.25,0.13 0,-0.13 z m -1.51,0.13 0,-5.65 1.64,0 0,5.52 0,0.13 z" /><path
   style="fill:#233a6d;fill-rule:nonzero;stroke:none"
   id="path1636"
   class="ps017"
   d="m 41.3958,33.61418 c 0,-0.259 -0.11,-0.486 -0.381,-0.486 -0.255,0 -0.36,0.247 -0.36,0.49 0,0.267 0.109,0.514 0.372,0.514 0.266,0 0.369,-0.244 0.369,-0.518 m -1.082,1.396 c 0.144,0.063 0.294,0.11 0.478,0.11 0.474,0 0.635,-0.44 0.651,-0.847 l -0.008,-0.008 c -0.13,0.192 -0.298,0.274 -0.529,0.274 -0.518,0 -0.8,-0.329 -0.8,-0.835 0,-0.592 0.29,-0.984 0.909,-0.984 0.761,0 0.93,0.631 0.93,1.274 0,0.742 -0.239,1.557 -1.125,1.557 -0.2,0 -0.389,-0.031 -0.577,-0.098 z" /><path
   style="fill:#233a6d;fill-rule:nonzero;stroke:none"
   id="path1640"
   class="ps017"
   d="m 68.8577,32.76698 0.486,0 0,2.737 -0.549,0 0,-2.113 -0.462,0.376 -0.275,-0.357 z" /><path
   style="fill:#233a6d;fill-rule:nonzero;stroke:none"
   id="path1644"
   class="ps017"
   d="m 71.4231,34.14348 c 0,-0.353 0,-1.016 -0.408,-1.016 -0.4,0 -0.4,0.663 -0.4,1.016 0,0.345 -0.005,1 0.4,1 0.412,0 0.408,-0.655 0.408,-1 m -1.356,0 c 0,-0.686 0.207,-1.423 0.948,-1.423 0.801,0 0.957,0.788 0.957,1.423 0,0.635 -0.165,1.408 -0.957,1.408 -0.843,0 -0.948,-0.835 -0.948,-1.408" /><path
   style="fill:#233a6d;fill-rule:nonzero;stroke:none"
   id="path1648"
   class="ps017"
   d="m 45.5579,72.24358 0.486,0 0,2.737 -0.549,0 0,-2.113 -0.462,0.376 -0.275,-0.356 z" /><path
   style="fill:#233a6d;fill-rule:nonzero;stroke:none"
   id="path1652"
   class="ps017"
   d="m 40.1409,66.59418 c 0.188,0.074 0.392,0.125 0.607,0.125 0.228,0 0.578,-0.109 0.578,-0.388 0,-0.321 -0.255,-0.427 -0.605,-0.427 l -0.267,0 0,-0.431 0.251,0 c 0.37,0 0.609,-0.122 0.609,-0.361 0,-0.275 -0.224,-0.361 -0.471,-0.361 -0.216,0 -0.424,0.051 -0.616,0.145 l -0.031,-0.44 c 0.219,-0.086 0.482,-0.136 0.764,-0.136 0.337,0 0.903,0.117 0.903,0.702 0,0.372 -0.232,0.549 -0.51,0.654 l 0,0.008 c 0.349,0.048 0.521,0.318 0.521,0.651 0,0.652 -0.592,0.816 -1.046,0.816 -0.24,0 -0.514,-0.032 -0.718,-0.09 z" /><path
   style="fill:#233a6d;fill-rule:nonzero;stroke:none"
   id="path1656"
   class="ps017"
   d="m 46.8518,54.22208 -1.056,0 -0.011,0.584 c 0.063,-0.012 0.145,-0.027 0.251,-0.027 0.384,0 0.882,0.18 0.882,0.889 0,0.515 -0.361,0.93 -1.066,0.93 -0.212,0 -0.459,-0.035 -0.64,-0.078 l 0.012,-0.49 c 0.134,0.054 0.321,0.136 0.561,0.136 0.287,0 0.585,-0.132 0.585,-0.481 0,-0.354 -0.315,-0.475 -0.628,-0.475 -0.168,0 -0.329,0.024 -0.491,0.075 l 0.028,-1.471 1.573,0 z" /><path
   style="fill:#233a6d;fill-rule:nonzero;stroke:none"
   id="path1660"
   class="ps017"
   d="m 40.1292,43.29928 1.765,0 0,0.455 -0.973,2.282 -0.596,0 1.016,-2.305 -1.212,0 z" /><path
   style="fill:#233a6d;fill-rule:nonzero;stroke:none"
   id="path1664"
   class="ps017"
   d="m 65.0872,74.98088 0,-0.459 c 0.255,-0.247 1.184,-1.023 1.184,-1.525 0,-0.251 -0.224,-0.369 -0.447,-0.369 -0.231,0 -0.451,0.102 -0.632,0.22 l -0.042,-0.455 c 0.247,-0.126 0.533,-0.196 0.811,-0.196 0.522,0 0.859,0.263 0.859,0.8 0,0.58 -0.585,1.114 -1.032,1.552 l 1.118,0 0,0.432 z" /><path
   style="fill:#233a6d;fill-rule:nonzero;stroke:none"
   id="path1668"
   class="ps017"
   d="m 71.1722,66.12738 0,-1.188 -0.008,0 -0.679,1.188 z m -1.181,-0.035 1.024,-1.726 0.682,0 0,1.761 0.349,0 0,0.408 -0.349,0 0,0.569 -0.525,0 0,-0.569 -1.181,0 z" /><path
   style="fill:#233a6d;fill-rule:nonzero;stroke:none"
   id="path1672"
   class="ps017"
   d="m 70.6507,55.70448 c 0,0.259 0.109,0.486 0.38,0.486 0.255,0 0.361,-0.247 0.361,-0.49 0,-0.267 -0.11,-0.514 -0.373,-0.514 -0.266,0 -0.368,0.244 -0.368,0.518 m 1.082,-1.396 c -0.144,-0.063 -0.294,-0.11 -0.478,-0.11 -0.475,0 -0.635,0.439 -0.651,0.847 l 0.008,0.008 c 0.129,-0.189 0.298,-0.275 0.529,-0.275 0.518,0 0.8,0.329 0.8,0.835 0,0.593 -0.29,0.985 -0.91,0.985 -0.761,0 -0.929,-0.631 -0.929,-1.275 0,-0.741 0.239,-1.557 1.125,-1.557 0.2,0 0.389,0.032 0.576,0.098 z" /><path
   style="fill:#233a6d;fill-rule:nonzero;stroke:none"
   id="path1676"
   class="ps017"
   d="m 71.0706,44.40128 c 0.152,-0.055 0.306,-0.228 0.306,-0.396 0,-0.204 -0.13,-0.345 -0.338,-0.345 -0.198,0 -0.4,0.11 -0.4,0.329 0,0.236 0.244,0.341 0.432,0.412 m -0.04,1.274 c 0.22,0 0.394,-0.137 0.394,-0.364 0,-0.271 -0.233,-0.4 -0.459,-0.475 -0.198,0.094 -0.35,0.22 -0.35,0.451 0,0.228 0.196,0.388 0.415,0.388 m -0.462,-1.066 c -0.275,-0.122 -0.455,-0.349 -0.455,-0.635 0,-0.49 0.372,-0.722 0.87,-0.722 0.483,0 0.918,0.2 0.918,0.659 0,0.247 -0.153,0.533 -0.455,0.655 l 0,0.003 c 0.36,0.169 0.525,0.405 0.525,0.718 0,0.553 -0.399,0.796 -0.941,0.796 -0.533,0 -0.964,-0.231 -0.964,-0.788 0,-0.306 0.172,-0.518 0.502,-0.678 z" /><path
   style="fill:#ec2923;fill-rule:nonzero;stroke:none"
   id="path1678"
   class="ps023"
   d="m 84.7659,46.436779 -5.71,0 0,-12.13 5.71,0 z" /><path
   style="fill:#ec2923;fill-rule:nonzero;stroke:none"
   id="path1680"
   class="ps023"
   d="m 91.3159,46.436779 -5.72,0 0,-12.13 5.72,0 z" /><path
   style="fill:#b48439;fill-rule:nonzero;stroke:none"
   id="path1682"
   class="ps024"
   d="m 84.7659,33.556779 -5.72,0 0,-10.1 5.72,0 z" /><path
   style="fill:#f8a11a;fill-rule:nonzero;stroke:none"
   id="path1684"
   class="ps025"
   d="m 21.9259,34.906779 -10.31,0 0,-11.43 10.31,0 z" /><path
   style="fill:#f8a11a;fill-rule:nonzero;stroke:none"
   id="path1686"
   class="ps025"
   d="m 33.0259,34.916779 -10.31,0 0,-11.44 10.31,0 z" /><path
   style="fill:#54b435;fill-rule:nonzero;stroke:none"
   id="path1688"
   class="ps026"
   d="m 33.0259,46.206779 -10.32,0 0,-10.51 10.32,0 z" /><path
   style="fill:#54b435;fill-rule:nonzero;stroke:none"
   id="path1690"
   class="ps026"
   d="m 21.9359,46.206779 -10.31,0 0,-10.44 10.31,0 z" /><path
   style="fill:#ffffff;fill-rule:nonzero;stroke:none"
   id="path1692"
   class="ps016"
   d="m 33.0459,58.566779 -4.45,0 0,-6.86 4.45,0 z" /><path
   style="fill:#4192d6;fill-rule:nonzero;stroke:none"
   id="path1694"
   class="ps027"
   d="m 28.5959,77.276779 4.45,0 0,-17.92 -4.45,0 z" /><path
   style="fill:#fad318;fill-rule:nonzero;stroke:none"
   id="path1698"
   class="ps028"
   d="m 24.9358,82.82858 c 0,0 2.41,6.658 2.803,7.672 0.392,1.014 0.778,1.362 1.742,1.362 l 20.49,0 c 0,0 0.643,0.093 1.24,-0.919 l 1.515,-2.709 c 0,0 0.145,-0.247 0.145,-0.692 l 0,-3.821 c 0,0 0.014,-0.85 -1.051,-0.893 z" /><path
   style="fill:#892494;fill-rule:nonzero;stroke:none"
   id="path1702"
   class="ps029"
   d="m 61.0452,91.86468 21.563,0 c 0,0 1.707,0.036 3.014,-1.402 0,0 2.238,-2.629 2.709,-3.194 0.47,-0.563 0.522,-0.751 0.522,-1.247 l 0,-2.323 c 0,0 0.011,-0.871 -0.788,-0.886 l -27.269,0 c 0,0 -0.744,-0.069 -0.744,0.969 l 0,7.253 c 0,0 0.005,0.864 0.993,0.83" /><path
   style="fill:#233a6d;fill-rule:nonzero;stroke:none"
   id="path1706"
   class="ps017"
   d="m 82.5569,91.47498 c 0.015,-0.002 0.033,-0.004 0.06,-0.004 0.101,0.002 1.589,-0.031 2.706,-1.263 0.002,-0.004 2.24,-2.63 2.706,-3.191 0.452,-0.578 0.409,-0.526 0.431,-0.995 l 0,-1.356 0,-0.944 c -0.001,-0.008 -0.002,-0.017 -0.002,-0.026 -0.002,0 -0.006,-0.165 -0.066,-0.287 -0.074,-0.124 -0.099,-0.188 -0.328,-0.205 l -27.297,-0.003 0,0.002 c -0.058,0.059 -0.278,-0.128 -0.323,0.58 l 0,7.25 c 0.035,0 -0.061,0.442 0.542,0.44 0.002,0 0.024,-0.002 0.058,-0.002 l 0.01,0 z m -22.729,0.167 c -0.169,-0.305 -0.167,-0.569 -0.169,-0.609 l 0,-7.25 c -0.006,-0.537 0.184,-0.93 0.457,-1.138 0.265,-0.208 0.534,-0.225 0.651,-0.227 0.02,0 0.038,0.001 0.044,0.002 l 27.259,0 c 0.539,-0.002 0.908,0.353 1.034,0.655 0.079,0.172 0.112,0.331 0.127,0.446 l 0.014,0.014 0,0.163 0,2.324 c 0.022,0.522 -0.125,0.949 -0.614,1.498 -0.474,0.568 -2.71,3.195 -2.72,3.206 -1.334,1.457 -3.009,1.524 -3.277,1.529 l -0.017,0 0,-0.299 -0.01,0.301 -21.563,0 0,-0.392 -0.008,0.392 c -0.004,-0.002 -0.017,0 -0.05,0 -0.011,0.001 -0.022,0.001 -0.033,0.001 -0.567,0 -0.967,-0.31 -1.125,-0.616" /><path
   style="fill:#233a6d;fill-rule:nonzero;stroke:none"
   id="path1710"
   class="ps017"
   d="m 24.9353,83.22058 0,-0.393 z m 3.169,7.137 c 0.429,0.968 0.522,1.064 1.376,1.112 l 10.606,0 c 5.002,0 9.885,0 9.922,0.001 l 0.006,0 c 0.039,-0.012 0.4,0.023 0.855,-0.719 l 1.517,-2.716 c -0.005,-0.002 0.01,-0.013 0.036,-0.097 0.027,-0.082 0.056,-0.218 0.056,-0.396 l 0,-3.797 c -10e-4,-0.008 -10e-4,-0.017 -0.002,-0.025 -0.041,-0.003 0.088,-0.455 -0.658,-0.5 l -26.324,0 c 0.578,1.593 2.288,6.309 2.61,7.137 m -0.732,0.283 c -0.398,-1.027 -2.805,-7.677 -2.807,-7.679 l -0.189,-0.526 27.459,0 c 0.618,0.016 1.041,0.312 1.231,0.629 0.134,0.219 0.175,0.422 0.188,0.546 l 0.009,0.017 0,3.915 c 0,0.532 -0.175,0.846 -0.195,0.883 l -1.521,2.717 c -0.553,0.959 -1.266,1.126 -1.533,1.114 -0.043,0 -0.07,-0.002 -0.043,-0.002 l -20.491,0 c -0.04,0.002 -0.081,0.003 -0.12,0.003 -1.005,0 -1.646,-0.597 -1.988,-1.617" /><path
   style="fill:#233a6d;fill-rule:nonzero;stroke:none"
   id="path1714"
   class="ps017"
   d="m 84.302,60.45448 0.486,0 0,2.737 -0.549,0 0,-2.113 -0.462,0.376 -0.275,-0.356 z" /><path
   style="fill:#233a6d;fill-rule:nonzero;stroke:none"
   id="path1718"
   class="ps017"
   d="m 86.6165,62.21528 0,-1.188 -0.008,0 -0.679,1.188 z m -1.181,-0.035 1.024,-1.726 0.682,0 0,1.761 0.349,0 0,0.408 -0.349,0 0,0.569 -0.525,0 0,-0.569 -1.181,0 z" /><path
   style="fill:#ea1f25;fill-rule:nonzero;stroke:none"
   id="path1722"
   class="ps030"
   d="m 45.6282,104.06048 -10.704,5.676 10.704,5.674 10.64,-5.674 z" /><path
   style="fill:#ffffff;fill-rule:nonzero;stroke:none"
   id="path1726"
   class="ps016"
   d="m 45.6282,113.05458 -2.505,-1.314 -2.604,0 0,-1.374 -1.204,-0.63 1.204,-0.627 0,-1.383 2.634,0 2.475,-1.293 2.465,1.293 2.658,0 0,1.392 1.176,0.618 -1.176,0.619 0,1.385 -2.628,0 z" /><path
   style="fill:#2c48a3;fill-rule:nonzero;stroke:none"
   id="path1728"
   class="ps031"
   d="m 40.5159,107.72678 10.24,0 0,4.01 -10.24,0 z" /><path
   style="fill:#ffffff;fill-rule:nonzero;stroke:none"
   id="path1732"
   class="ps016"
   d="m 41.4348,108.65808 0.681,0 0.518,1.512 0.006,0 0.485,-1.512 0.685,0 0,2.201 -0.455,0 0,-1.562 -0.006,0 -0.538,1.562 -0.374,0 -0.54,-1.547 -0.009,0 0,1.547 -0.453,0 z" /><path
   style="fill:#ffffff;fill-rule:nonzero;stroke:none"
   id="path1736"
   class="ps016"
   d="m 45.7796,110.16988 c 0.03,-0.492 -0.23,-0.951 -0.774,-0.951 -0.483,0 -0.816,0.367 -0.816,0.844 0,0.496 0.314,0.841 0.816,0.841 0.358,0 0.625,-0.164 0.747,-0.541 l -0.389,0 c -0.025,0.102 -0.167,0.209 -0.344,0.209 -0.242,0 -0.377,-0.125 -0.392,-0.402 z m -1.152,-0.279 c 0.007,-0.123 0.088,-0.338 0.368,-0.338 0.212,0 0.307,0.115 0.348,0.338 z" /><path
   style="fill:#ffffff;fill-rule:nonzero;stroke:none"
   id="path1740"
   class="ps016"
   d="m 46.6731,109.26558 0.321,0 0,0.291 -0.321,0 0,0.793 c 0,0.148 0.037,0.184 0.184,0.184 0.047,0 0.091,-0.004 0.137,-0.012 l 0,0.344 c -0.074,0.011 -0.168,0.013 -0.255,0.013 -0.269,0 -0.504,-0.06 -0.504,-0.381 l 0,-0.941 -0.264,0 0,-0.291 0.264,0 0,-0.48 0.438,0 z" /><path
   style="fill:#ffffff;fill-rule:nonzero;stroke:none"
   id="path1744"
   class="ps016"
   d="m 47.2796,109.26558 0.419,0 0,0.295 0.006,0 c 0.08,-0.201 0.294,-0.342 0.509,-0.342 0.031,0 0.069,0.008 0.096,0.018 l 0,0.406 c -0.038,-0.01 -0.105,-0.014 -0.158,-0.014 -0.321,0 -0.432,0.229 -0.432,0.512 l 0,0.719 -0.44,0 z" /><path
   style="fill:#ffffff;fill-rule:nonzero;stroke:none"
   id="path1748"
   class="ps016"
   d="m 48.4573,110.06238 c 0,0.506 0.323,0.842 0.822,0.842 0.506,0 0.827,-0.336 0.827,-0.842 0,-0.51 -0.321,-0.844 -0.827,-0.844 -0.499,0 -0.822,0.334 -0.822,0.844 m 0.438,0 c 0,-0.256 0.088,-0.51 0.384,-0.51 0.301,0 0.39,0.254 0.39,0.51 0,0.256 -0.089,0.51 -0.39,0.51 -0.296,0 -0.384,-0.254 -0.384,-0.51" /><path
   style="fill:#b31b2d;fill-rule:nonzero;stroke:none"
   id="path1822"
   class="ps035"
   d="m 59.9798,101.59808 -4.168,-21.916 -4.166,21.916 z" /><path
   style="fill:#ffffff;fill-rule:nonzero;stroke:none"
   id="path1826"
   class="ps016"
   d="m 51.7962,101.47308 8.032,0 -4.017,-21.122 z m -0.15,0.249 -0.123,-0.148 4.165,-21.916 0.246,0 4.167,21.916 0.002,0 -0.123,0.024 0,0.124 z" /><path
   style="fill:#b31b2d;fill-rule:nonzero;stroke:none"
   id="path1830"
   class="ps035"
   d="m 109.4973,69.35878 -21.916,-4.168 21.916,-4.166 z" /><path
   style="fill:#ffffff;fill-rule:nonzero;stroke:none"
   id="path1834"
   class="ps016"
   d="m 88.2493,65.19088 21.122,4.017 0,-8.034 z m -0.691,0.122 0,-0.244 22.063,-4.194 0.002,8.483 -0.126,0 -0.022,0.124 z" /><path
   style="fill:#b31b2d;fill-rule:nonzero;stroke:none"
   id="path1838"
   class="ps035"
   d="m 59.9788,0.12638 -4.168,21.916 -4.165,-21.916 z" /><path
   style="fill:#ffffff;fill-rule:nonzero;stroke:none"
   id="path1842"
   class="ps016"
   d="m 55.8108,21.37298 4.018,-21.122 -8.033,0 z m -0.123,0.691 -4.194,-22.064 8.484,0.002 0,0.124 0.123,0.024 -4.168,21.914 z" />
</svg>