<?xml version="1.0" encoding="UTF-8" standalone="no"?>
<!-- Generator: PDFTron PDF2SVG Converter (DEMO VERSION) -->

<svg
   xmlns:dc="http://purl.org/dc/elements/1.1/"
   xmlns:cc="http://creativecommons.org/ns#"
   xmlns:rdf="http://www.w3.org/1999/02/22-rdf-syntax-ns#"
   xmlns:svg="http://www.w3.org/2000/svg"
   xmlns="http://www.w3.org/2000/svg"
   xmlns:sodipodi="http://sodipodi.sourceforge.net/DTD/sodipodi-0.dtd"
   xmlns:inkscape="http://www.inkscape.org/namespaces/inkscape"
   id="svgRoot"
   viewBox="0 0 702.26831 737.76249"
   xml:space="preserve"
   version="1.1"
   inkscape:version="0.47 r22583"
   width="698.27533"
   height="735.13837"
   sodipodi:docname="ifema.svg"><defs
   id="defs3494"><inkscape:perspective
   sodipodi:type="inkscape:persp3d"
   inkscape:vp_x="0 : 57.70525 : 1"
   inkscape:vp_y="0 : 1000 : 0"
   inkscape:vp_z="109.6233 : 57.70525 : 1"
   inkscape:persp3d-origin="54.81165 : 38.470167 : 1"
   id="perspective3496" />




































































































































































































































































</defs><metadata
   id="metadata3962"><rdf:RDF><cc:Work
       rdf:about=""><dc:format>image/svg+xml</dc:format><dc:type
         rdf:resource="http://purl.org/dc/dcmitype/StillImage" /><dc:title /></cc:Work></rdf:RDF></metadata><sodipodi:namedview
   pagecolor="#ffffff"
   bordercolor="#666666"
   borderopacity="1"
   objecttolerance="10"
   gridtolerance="10"
   guidetolerance="10"
   inkscape:pageopacity="0"
   inkscape:pageshadow="2"
   inkscape:window-width="1280"
   inkscape:window-height="739"
   id="namedview3960"
   showgrid="false"
   inkscape:zoom="0.34383067"
   inkscape:cx="757.41484"
   inkscape:cy="-12.431649"
   inkscape:window-x="-4"
   inkscape:window-y="36"
   inkscape:window-maximized="1"
   inkscape:current-layer="svgRoot" />


<path
   style="fill:#ffffff;fill-rule:nonzero;stroke:none"
   id="path806"
   class="ps016"
   d="M 36.724793,647.46064 125.54668,599.04261 34.751685,556.8322 z m -8.488208,-95.62527 3.209503,-0.077 1.345301,-2.902 106.996261,49.73128 -109.225616,59.53277 z" /><path
   style="fill:#233a6d;fill-rule:nonzero;stroke:none"
   id="path1232"
   class="ps017"
   d="m 584.42304,595.52625 c 0,7.54009 -6.1051,13.65161 -13.64519,13.65161 -7.5401,0 -13.658,-6.11152 -13.658,-13.65161 0,-7.5401 6.1179,-13.64519 13.658,-13.64519 7.54009,0 13.64519,6.10509 13.64519,13.64519" /><path
   style="fill:#233a6d;fill-rule:nonzero;stroke:none"
   id="path1236"
   class="ps017"
   d="m 565.49851,595.51984 c 0,2.8956 2.35747,5.27871 5.27871,5.27871 2.89558,0 5.26588,-2.36389 5.26588,-5.27871 0,-2.90841 -2.35747,-5.26589 -5.26588,-5.26589 -2.92124,0 -5.27871,2.37029 -5.27871,5.26589 m -16.7586,0 c 0.0129,-12.16537 9.87194,-22.01168 22.03731,-22.02448 12.15895,0 22.01168,9.85911 22.02448,22.02448 -0.0129,12.17178 -9.85273,22.02451 -22.02448,22.03732 -12.16537,-0.0129 -22.02451,-9.85274 -22.03731,-22.03732" /><path
   style="fill:#ffffff;fill-rule:nonzero;stroke:none"
   id="path1240"
   class="ps016"
   d="m 159.74039,532.69942 0,-2.51763 z m 20.30123,45.72101 c 2.74825,6.2012 3.34403,6.8162 8.81492,7.12369 l 67.9441,0 c 32.04378,0 63.32524,0 63.56227,0.006 l 0.0384,0 c 0.24985,-0.077 2.56249,0.14728 5.4773,-4.60605 l 9.71819,-17.39922 c -0.0319,-0.0129 0.064,-0.0832 0.23063,-0.62141 0.17293,-0.52531 0.35874,-1.39655 0.35874,-2.53686 l 0,-24.32432 c -0.006,-0.0513 -0.006,-0.10889 -0.0129,-0.16019 -0.26264,-0.0192 0.56375,-2.91482 -4.21526,-3.2031 l -168.63668,0 c 3.70278,10.20507 14.65737,40.41669 16.72017,45.72102 m -4.68934,1.81294 c -2.54966,-6.57915 -17.96937,-49.18034 -17.98218,-49.19317 l -1.21077,-3.36965 175.90769,0 c 3.95904,0.10243 6.66885,1.99874 7.88602,4.0295 0.85844,1.40296 1.1211,2.70341 1.20437,3.49778 l 0.0576,0.10889 0,25.08025 c 0,3.4081 -1.12107,5.41965 -1.24919,5.65667 l -9.74383,17.40564 c -3.54262,6.14354 -8.11024,7.21336 -9.82071,7.1365 -0.27545,0 -0.44842,-0.0129 -0.27545,-0.0129 l -131.26934,0 c -0.25624,0.0129 -0.51891,0.0192 -0.76874,0.0192 -6.43823,0 -10.5446,-3.8245 -12.73552,-10.35882" /><path
   style="fill:#ffffff;fill-rule:nonzero;stroke:none"
   id="path1244"
   class="ps016"
   d="m 528.87558,585.57871 c 0.0961,-0.0129 0.21139,-0.0257 0.38436,-0.0257 0.64704,0.0129 10.17945,-0.1986 17.33516,-8.09103 0.0129,-0.0257 14.34987,-16.84828 17.33517,-20.44216 2.8956,-3.70278 2.62013,-3.36966 2.76108,-6.37417 l 0,-8.6868 0,-6.04745 c -0.006,-0.0513 -0.0129,-0.10888 -0.0129,-0.16647 -0.0129,0 -0.0384,-1.05701 -0.4228,-1.83856 -0.47406,-0.79438 -0.63422,-1.20437 -2.10123,-1.31328 l -174.8699,-0.0192 0,0.0129 c -0.37157,0.37795 -1.78093,-0.81999 -2.06921,3.71559 l 0,46.4449 c 0.22422,0 -0.39078,2.83154 3.47216,2.81873 0.0129,0 0.15374,-0.0129 0.37156,-0.0129 l 0.064,0 z m -145.60641,1.06984 c -1.08265,-1.95389 -1.06983,-3.64512 -1.08265,-3.90138 l 0,-46.44491 c -0.0384,-3.44012 1.17875,-5.95776 2.92764,-7.29025 1.69764,-1.33249 3.42091,-1.4414 4.17043,-1.45421 0.12809,0 0.24344,0.006 0.28188,0.0129 l 174.62644,0 c 3.45295,-0.0129 5.81684,2.26139 6.62403,4.19607 0.50607,1.10187 0.71748,2.12044 0.81358,2.85716 l 0.0897,0.0897 0,1.04421 0,14.88798 c 0.141,3.34404 -0.80078,6.07948 -3.93341,9.59649 -3.03653,3.63871 -17.36078,20.46778 -17.42484,20.53826 -8.54586,9.33381 -19.27624,9.76304 -20.99311,9.79506 l -0.10889,0 0,-1.91545 -0.064,1.92828 -138.13678,0 0,-2.51125 -0.0513,2.51125 c -0.0257,-0.0129 -0.10889,0 -0.32032,0 -0.0705,0.006 -0.141,0.006 -0.21141,0.006 -3.6323,0 -6.19478,-1.98593 -7.20697,-3.94621" /><path
   style="fill:#ffffff;fill-rule:nonzero;stroke:none"
   id="path1248"
   class="ps016"
   d="m 159.74039,532.69942 0,-2.51763 z m 20.30123,45.72101 c 2.74825,6.2012 3.34403,6.8162 8.81492,7.12369 l 67.9441,0 c 32.04378,0 63.32524,0 63.56227,0.006 l 0.0384,0 c 0.24985,-0.077 2.56249,0.14728 5.4773,-4.60605 l 9.71819,-17.39922 c -0.0319,-0.0129 0.064,-0.0832 0.23063,-0.62141 0.17293,-0.52531 0.35874,-1.39655 0.35874,-2.53686 l 0,-24.32432 c -0.006,-0.0513 -0.006,-0.10889 -0.0129,-0.16019 -0.26264,-0.0192 0.56375,-2.91482 -4.21526,-3.2031 l -168.63668,0 c 3.70278,10.20507 14.65737,40.41669 16.72017,45.72102 m -4.68934,1.81294 c -2.54966,-6.57915 -17.96937,-49.18034 -17.98218,-49.19317 l -1.21077,-3.36965 175.90769,0 c 3.95904,0.10243 6.66885,1.99874 7.88602,4.0295 0.85844,1.40296 1.1211,2.70341 1.20437,3.49778 l 0.0576,0.10889 0,25.08025 c 0,3.4081 -1.12107,5.41965 -1.24919,5.65667 l -9.74383,17.40564 c -3.54262,6.14354 -8.11024,7.21336 -9.82071,7.1365 -0.27545,0 -0.44842,-0.0129 -0.27545,-0.0129 l -131.26934,0 c -0.25624,0.0129 -0.51891,0.0192 -0.76874,0.0192 -6.43823,0 -10.5446,-3.8245 -12.73552,-10.35882" /><path
   style="fill:#97a9c7;fill-rule:nonzero;stroke:none"
   id="path1252"
   class="ps021"
   d="m 148.39502,327.67942 6.30369,0 c 7.53369,0 13.6516,5.86166 13.6516,13.1519 l 0,94.0045 -19.95529,0 z" /><path
   style="fill:#97a9c7;fill-rule:nonzero;stroke:none"
   id="path1256"
   class="ps021"
   d="m 129.20142,482.05396 c 3.21591,4.51637 8.55867,6.83542 14.53565,6.83542 9.80148,0 17.75157,-7.94369 17.75157,-17.75157 0,-9.80148 -7.95009,-17.75797 -17.75157,-17.75797 l -0.16016,0.0129 -0.0192,-125.71517 -14.35628,-0.077 0,133.45384 0,15.34925 c 0.0384,0.0705 -0.0513,4.95199 0,5.00964 z" /><path
   style="fill:#ffffff;fill-rule:nonzero;stroke:none"
   id="path1260"
   class="ps016"
   d="m 528.87558,585.57871 c 0.0961,-0.0129 0.21139,-0.0257 0.38436,-0.0257 0.64704,0.0129 10.17945,-0.1986 17.33516,-8.09103 0.0129,-0.0257 14.34987,-16.84828 17.33517,-20.44216 2.8956,-3.70278 2.62013,-3.36966 2.76108,-6.37417 l 0,-8.6868 0,-6.04745 c -0.006,-0.0513 -0.0129,-0.10888 -0.0129,-0.16647 -0.0129,0 -0.0384,-1.05701 -0.4228,-1.83856 -0.47406,-0.79438 -0.63422,-1.20437 -2.10123,-1.31328 l -174.8699,-0.0192 0,0.0129 c -0.37157,0.37795 -1.78093,-0.81999 -2.06921,3.71559 l 0,46.4449 c 0.22422,0 -0.39078,2.83154 3.47216,2.81873 0.0129,0 0.15374,-0.0129 0.37156,-0.0129 l 0.064,0 z m -145.60641,1.06984 c -1.08265,-1.95389 -1.06983,-3.64512 -1.08265,-3.90138 l 0,-46.44491 c -0.0384,-3.44012 1.17875,-5.95776 2.92764,-7.29025 1.69764,-1.33249 3.42091,-1.4414 4.17043,-1.45421 0.12809,0 0.24344,0.006 0.28188,0.0129 l 174.62644,0 c 3.45295,-0.0129 5.81684,2.26139 6.62403,4.19607 0.50607,1.10187 0.71748,2.12044 0.81358,2.85716 l 0.0897,0.0897 0,1.04421 0,14.88798 c 0.141,3.34404 -0.80078,6.07948 -3.93341,9.59649 -3.03653,3.63871 -17.36078,20.46778 -17.42484,20.53826 -8.54586,9.33381 -19.27624,9.76304 -20.99311,9.79506 l -0.10889,0 0,-1.91545 -0.064,1.92828 -138.13678,0 0,-2.51125 -0.0513,2.51125 c -0.0257,-0.0129 -0.10889,0 -0.32032,0 -0.0705,0.006 -0.141,0.006 -0.21141,0.006 -3.6323,0 -6.19478,-1.98593 -7.20697,-3.94621" /><path
   style="fill:#233a6d;fill-rule:nonzero;stroke:none"
   id="path1264"
   class="ps017"
   d="m 160.26313,592.43846 6.26526,-2.3895 49.78895,129.70621 -6.25245,2.40233 z" /><path
   style="fill:#233a6d;fill-rule:nonzero;stroke:none"
   id="path1268"
   class="ps017"
   d="m 354.59761,724.18186 215.81188,-127.47046 3.4081,5.76557 -215.80547,127.48327 z" /><path
   style="fill:#233a6d;fill-rule:nonzero;stroke:none"
   id="path1272"
   class="ps017"
   d="M 152.16762,34.602397 C 216.69081,41.6364 291.18205,62.379658 291.18205,62.379658 L 552.1576,126.17895 c 45.37508,14.35628 50.53847,52.6333 50.53847,81.54446 0,81.42273 1.00579,315.84462 1.08906,325.67812 l 0,6.64964 c 0,32.84456 -26.49603,59.47511 -59.33418,59.47511 l -3.2031,-0.0448 -342.98765,0 -14.95847,-0.0257 c -10.41007,0 -19.35312,-6.22041 -23.34417,-15.13784 L 158.36241,580.3013 20.891882,221.61204 13.813037,201.02895 C 10.28963,189.17747 8.38699,176.62774 8.38699,163.63597 8.38699,91.547064 66.728205,33.948967 138.81711,33.948967 z" /><path
   style="fill:#233a6d;fill-rule:nonzero;stroke:none"
   id="path1276"
   class="ps017"
   d="m 16.765011,163.627 c 0,12.17177 1.774516,23.90793 4.964801,34.67034 l 6.982753,20.31404 137.419285,358.58674 1.47342,3.68998 c 2.69701,6.00902 8.69321,10.19226 15.70799,10.17943 l 14.95205,0.0257 343.09018,0.0129 3.10059,0.0384 c 28.18085,-0.0513 50.94846,-22.8509 50.94846,-51.08941 l 0,-6.59196 c -0.0832,-9.89118 -1.08906,-244.25539 -1.08906,-325.7422 0.0257,-13.95909 -1.33889,-29.56459 -7.47603,-42.7037 -6.18197,-13.02387 -16.40625,-24.06174 -36.84843,-30.7434 L 288.93219,70.442497 c -0.0513,0 -18.41782,-5.131363 -44.92023,-11.153188 C 217.52874,53.267486 183.02498,46.393641 151.30791,42.9407 L 138.6813,42.325705 C 71.198447,42.415393 16.765011,96.233837 16.765011,163.627 m 524.487969,444.23118 -343.00047,0 -14.95206,-0.0257 c -13.81816,-0.0129 -25.71447,-8.25758 -31.1277,-20.42936 l -1.63999,-4.1063 L 12.966138,224.33853 5.7847937,203.41589 C 2.0243575,190.8085 0,177.44517 0,163.627 0.14734249,86.887198 62.178526,25.720849 138.80943,25.573507 l 0.12171,0 13.63879,0.659839 -0.41,8.360084 0.41,-8.360084 0.26906,0.01273 0.23703,0.02562 c 65.51616,7.162126 140.11628,27.988664 140.09067,27.96304 l 261.19337,63.863354 0.30749,0.0897 c 24.69589,7.68743 39.66076,22.91496 47.36099,39.77606 7.79635,16.81626 9.01353,34.81769 9.03915,49.75692 0,81.36509 1.00576,315.85103 1.09546,325.67812 l 0,6.65604 c -0.077,37.44422 -30.23724,67.8416 -67.82879,67.8416 z" /><path
   style="fill:#233a6d;fill-rule:nonzero;stroke:none"
   id="path1280"
   class="ps017"
   d="m 36.937477,224.96761 c 0,7.54009 -6.105103,13.6516 -13.645193,13.6516 -7.540092,0 -13.6580079,-6.11151 -13.6580079,-13.6516 0,-7.54009 6.1179159,-13.64519 13.6580079,-13.64519 7.54009,0 13.645193,6.1051 13.645193,13.64519" /><path
   style="fill:#233a6d;fill-rule:nonzero;stroke:none"
   id="path1284"
   class="ps017"
   d="m 18.016141,224.96761 c 0,2.8956 2.370293,5.25949 5.272299,5.2723 2.908412,-0.0129 5.265891,-2.36389 5.265891,-5.2723 0,-2.92122 -2.357479,-5.25949 -5.265891,-5.25949 -2.914818,0 -5.272299,2.35108 -5.272299,5.25949 m -16.758605,0 c 0,-12.17177 9.871946,-22.0181 22.030904,-22.03091 12.165364,0.0129 22.018091,9.85914 22.018091,22.03091 0,12.15895 -9.839915,22.01808 -22.018091,22.03091 C 11.11667,246.9856 1.257536,237.13938 1.257536,224.96761" /><path
   style="fill:#233a6d;fill-rule:nonzero;stroke:none"
   id="path1288"
   class="ps017"
   d="m 130.50315,34.20201 c 0,7.533686 -6.11791,13.651601 -13.6516,13.651601 -7.54649,0 -13.6516,-6.117915 -13.6516,-13.651601 0,-7.54009 6.10511,-13.651601 13.6516,-13.651601 7.53369,0 13.6516,6.111511 13.6516,13.651601" /><path
   style="fill:#233a6d;fill-rule:nonzero;stroke:none"
   id="path1292"
   class="ps017"
   d="m 111.58182,34.20201 c 0,2.8956 2.36388,5.272299 5.27229,5.272299 2.88279,0 5.25949,-2.376699 5.2723,-5.272299 -0.0127,-2.914818 -2.37669,-5.272297 -5.2723,-5.272297 -2.92122,0 -5.27229,2.357479 -5.27229,5.272297 m -16.758608,0 c 0,-12.17177 9.846318,-22.030902 22.030898,-22.030902 12.15896,0.01281 22.0181,9.859132 22.0181,22.030902 -0.0127,12.165364 -9.84633,22.018091 -22.0181,22.030903 C 104.66953,56.220179 94.823212,46.354562 94.823212,34.20201" /><path
   style="fill:#233a6d;fill-rule:nonzero;stroke:none"
   id="path1296"
   class="ps017"
   d="m 180.70786,598.97342 c 0,7.54009 -6.11151,13.65161 -13.64519,13.65161 -7.5465,0 -13.65161,-6.11152 -13.65161,-13.65161 0,-7.54009 6.10511,-13.64519 13.65161,-13.64519 7.53368,0 13.64519,6.1051 13.64519,13.64519" /><path
   style="fill:#233a6d;fill-rule:nonzero;stroke:none"
   id="path1300"
   class="ps017"
   d="m 161.78973,598.97022 c 0,2.91482 2.35107,5.2659 5.2787,5.27871 2.8892,-0.0129 5.25308,-2.36389 5.26589,-5.27871 -0.0127,-2.902 -2.36388,-5.26589 -5.26589,-5.26589 -2.92763,0 -5.2787,2.35108 -5.2787,5.26589 m -16.75861,0 c 0,-12.16536 9.86554,-22.01169 22.03731,-22.0245 12.15255,0.0129 22.01168,9.85914 22.01168,22.0245 -0.0129,12.16536 -9.85913,22.02449 -22.01168,22.02449 -12.18458,0 -22.03731,-9.85913 -22.03731,-22.02449" /><path
   style="fill:#233a6d;fill-rule:nonzero;stroke:none"
   id="path1304"
   class="ps017"
   d="m 597.18547,145.97281 c 0,7.53369 -6.11152,13.6452 -13.6516,13.6452 -7.54009,0 -13.65161,-6.11151 -13.65161,-13.6452 0,-7.54009 6.11152,-13.6516 13.65161,-13.6516 7.54008,0 13.6516,6.11151 13.6516,13.6516" /><path
   style="fill:#233a6d;fill-rule:nonzero;stroke:none"
   id="path1308"
   class="ps017"
   d="m 578.25452,145.97281 c 0,2.8956 2.36389,5.26589 5.27871,5.26589 2.8956,0 5.26589,-2.37029 5.26589,-5.26589 0,-2.91482 -2.37029,-5.26589 -5.26589,-5.2787 -2.91482,0.0127 -5.27871,2.36388 -5.27871,5.2787 m -16.7522,0 c 0,-12.17177 9.85913,-22.0309 22.03091,-22.0309 12.17177,0 22.01808,9.85913 22.03091,22.0309 -0.0129,12.15896 -9.85914,22.01809 -22.03091,22.01809 -12.17178,0 -22.0181,-9.85913 -22.03091,-22.01809" /><path
   style="fill:#233a6d;fill-rule:nonzero;stroke:none"
   id="path1312"
   class="ps017"
   d="m 336.2144,607.36233 c 0,-13.21597 10.71114,-23.92713 23.93353,-23.92713 13.21598,0 23.93996,10.71116 23.93996,23.92713 0,13.21598 -10.72398,23.93355 -23.93996,23.93355 -13.22239,0 -23.93353,-10.71757 -23.93353,-23.93355" /><path
   style="fill:#233a6d;fill-rule:nonzero;stroke:none"
   id="path1316"
   class="ps017"
   d="m 344.59113,607.35913 c 0.0129,8.59071 6.95713,15.54784 15.56066,15.56065 8.56507,-0.0129 15.53501,-6.98275 15.54781,-15.56065 -0.0129,-8.57789 -6.96353,-15.53502 -15.54781,-15.54783 -8.60353,0.0129 -15.54784,6.95713 -15.56066,15.54783 m -16.76502,0 c 0.0192,-17.84126 14.47161,-32.31284 32.32568,-32.31284 17.82843,0.0129 32.30002,14.45878 32.31283,32.31284 -0.0129,17.85407 -14.47159,32.31285 -32.31283,32.31285 -17.85407,0 -32.30644,-14.4716 -32.32568,-32.31285" /><path
   style="fill:#ffffff;fill-rule:nonzero;stroke:none"
   id="path1320"
   class="ps016"
   d="m 11.728461,163.627 c 0,12.67786 1.851391,24.90088 5.25308,36.30392 l 7.040407,20.48701 137.444912,358.64439 1.55029,3.88216 c 3.46576,7.7515 11.23006,13.15832 20.28202,13.15832 l 14.96487,0.0192 343.0261,0 3.15824,0.0513 c 30.98678,-0.0513 55.97733,-25.11227 55.97733,-56.11826 l 0,-6.62401 c -0.077,-9.87198 -1.08263,-244.26823 -1.08263,-325.70379 -0.18579,-28.77663 -4.81746,-64.54241 -47.98882,-78.29011 L 290.27622,65.60582 C 290.14167,65.593085 215.97076,44.926622 151.85756,37.931057 l -13.04301,-0.621401 c -70.269549,0 -127.073276,56.099049 -127.086089,126.317344 m 529.516829,439.20231 -342.99406,0 -14.95206,-0.0256 c -11.77459,0 -21.89638,-7.0276 -26.46399,-17.2583 L 155.22082,581.49668 17.724659,222.70493 10.600971,201.9809 C 6.9750648,189.82195 5.0339877,176.95189 5.0339877,163.627 5.1685178,89.680299 64.906283,30.730494 138.97471,30.595964 l 13.35051,0.659837 -0.16016,3.337629 0.35874,-3.318409 c 64.92678,7.078845 139.46927,27.847727 139.45646,27.847727 L 553.15442,122.9797 c 47.36739,14.8944 53.0689,55.68905 52.88313,84.74755 0,81.39711 1.00576,315.84462 1.08905,325.67814 l 0,6.64962 c -0.0576,34.68314 -27.98867,62.81274 -62.72945,62.81274 z" /><path
   style="fill:#233a6d;fill-rule:nonzero;stroke:none"
   id="path1324"
   class="ps017"
   d="m 130.50315,34.20201 c 0,7.533686 -6.11791,13.651601 -13.6516,13.651601 -7.54649,0 -13.6516,-6.117915 -13.6516,-13.651601 0,-7.54009 6.10511,-13.651601 13.6516,-13.651601 7.53369,0 13.6516,6.111511 13.6516,13.651601" /><path
   style="fill:#ffffff;fill-rule:nonzero;stroke:none"
   id="path1328"
   class="ps016"
   d="m 106.55488,34.20201 c 0,5.67589 4.60605,10.288348 10.29475,10.288348 5.67589,0 10.29476,-4.612458 10.29476,-10.288348 0,-5.695106 -4.61887,-10.294754 -10.29476,-10.307566 -5.6887,0.01273 -10.29475,4.61246 -10.29475,10.307566 m -6.713696,0 c 0.01274,-9.39148 7.623376,-17.008446 17.008446,-17.008446 9.38508,0 16.99564,7.616966 17.00845,17.008446 -0.0127,9.385076 -7.62337,16.989228 -17.00845,16.989228 -9.40429,0 -16.995634,-7.616964 -17.008446,-16.989228" /><path
   style="fill:#233a6d;fill-rule:nonzero;stroke:none"
   id="path1332"
   class="ps017"
   d="m 336.2144,607.36233 c 0,-13.21597 10.71114,-23.92713 23.93353,-23.92713 13.21598,0 23.93996,10.71116 23.93996,23.92713 0,13.21598 -10.72398,23.93355 -23.93996,23.93355 -13.22239,0 -23.93353,-10.71757 -23.93353,-23.93355" /><path
   style="fill:#ffffff;fill-rule:nonzero;stroke:none"
   id="path1336"
   class="ps016"
   d="m 339.55523,607.35657 c 0.0256,11.371 9.21211,20.56388 20.59591,20.5767 11.35177,-0.0129 20.55107,-9.2057 20.58311,-20.5767 -0.0321,-11.35819 -9.23134,-20.55107 -20.58311,-20.57028 -11.3838,0.0192 -20.5703,9.19928 -20.59591,20.57028 m -6.68807,0 c 0,-15.06097 12.2102,-27.27757 27.28398,-27.27757 15.05455,0 27.27758,12.20379 27.27758,27.27757 0,15.07378 -12.22303,27.29038 -27.27758,27.29038 -15.07378,0 -27.28398,-12.2166 -27.28398,-27.29038" /><path
   style="fill:#233a6d;fill-rule:nonzero;stroke:none"
   id="path1340"
   class="ps017"
   d="m 180.70786,598.97342 c 0,7.54009 -6.11151,13.65161 -13.64519,13.65161 -7.5465,0 -13.65161,-6.11152 -13.65161,-13.65161 0,-7.54009 6.10511,-13.64519 13.65161,-13.64519 7.53368,0 13.64519,6.1051 13.64519,13.64519" /><path
   style="fill:#ffffff;fill-rule:nonzero;stroke:none"
   id="path1344"
   class="ps016"
   d="m 156.76279,598.97663 c 0.0127,5.68229 4.60605,10.27553 10.30116,10.28834 5.67589,-0.0129 10.28194,-4.60605 10.29475,-10.28834 -0.0127,-5.69511 -4.61886,-10.28834 -10.29475,-10.30117 -5.69511,0.0129 -10.28835,4.60606 -10.30116,10.30117 m -6.70729,0 c 0,-9.39789 7.61697,-16.99564 17.00845,-16.99564 9.37226,0 16.98923,7.59775 16.98923,16.99564 0,9.38508 -7.60416,16.99563 -16.98923,16.99563 -9.39148,0 -17.00845,-7.61055 -17.00845,-16.99563" /><path
   style="fill:#233a6d;fill-rule:nonzero;stroke:none"
   id="path1348"
   class="ps017"
   d="m 584.42304,595.52625 c 0,7.54009 -6.1051,13.65161 -13.64519,13.65161 -7.5401,0 -13.658,-6.11152 -13.658,-13.65161 0,-7.5401 6.1179,-13.64519 13.658,-13.64519 7.54009,0 13.64519,6.10509 13.64519,13.64519" /><path
   style="fill:#ffffff;fill-rule:nonzero;stroke:none"
   id="path1352"
   class="ps016"
   d="m 560.469,595.52625 c 0.0192,5.6887 4.61887,10.28836 10.30117,10.30117 5.6887,-0.0129 10.28194,-4.61247 10.29474,-10.30117 -0.0129,-5.6887 -4.60604,-10.28835 -10.29474,-10.28835 -5.6823,0 -10.28194,4.59965 -10.30117,10.28835 m -6.70087,0 c 0,-9.39149 7.61696,-16.99564 17.00204,-16.99564 9.39148,0 17.00204,7.60415 17.00204,16.99564 0,9.39148 -7.61056,16.99563 -17.00204,16.99563 -9.38508,0 -17.00204,-7.60415 -17.00204,-16.99563" /><path
   style="fill:#233a6d;fill-rule:nonzero;stroke:none"
   id="path1356"
   class="ps017"
   d="m 597.18547,145.97281 c 0,7.53369 -6.11152,13.6452 -13.6516,13.6452 -7.54009,0 -13.65161,-6.11151 -13.65161,-13.6452 0,-7.54009 6.11152,-13.6516 13.65161,-13.6516 7.54008,0 13.6516,6.11151 13.6516,13.6516" /><path
   style="fill:#ffffff;fill-rule:nonzero;stroke:none"
   id="path1360"
   class="ps016"
   d="m 573.23079,145.97281 c 0.0129,5.67589 4.61885,10.27554 10.30115,10.29476 5.67589,-0.0192 10.28195,-4.61887 10.29476,-10.29476 -0.0129,-5.6887 -4.61887,-10.28835 -10.29476,-10.30756 -5.6823,0.0192 -10.28835,4.61886 -10.30115,10.30756 m -6.7073,0 c 0,-9.39148 7.60415,-17.00204 17.00845,-17.00204 9.39148,0 17.00204,7.61056 17.00204,17.00204 0,9.37867 -7.61056,16.98923 -17.00204,16.98923 -9.4043,0 -17.00845,-7.61056 -17.00845,-16.98923" /><path
   style="fill:#233a6d;fill-rule:nonzero;stroke:none"
   id="path1364"
   class="ps017"
   d="m 36.937477,224.96761 c 0,7.54009 -6.105103,13.6516 -13.645193,13.6516 -7.540092,0 -13.6580079,-6.11151 -13.6580079,-13.6516 0,-7.54009 6.1179159,-13.64519 13.6580079,-13.64519 7.54009,0 13.645193,6.1051 13.645193,13.64519" /><path
   style="fill:#ffffff;fill-rule:nonzero;stroke:none"
   id="path1368"
   class="ps016"
   d="m 12.985997,224.96761 c 0.01281,5.6823 4.618867,10.28834 10.301162,10.30115 5.682294,-0.0129 10.288348,-4.61885 10.288348,-10.30115 0,-5.6951 -4.593242,-10.28834 -10.288348,-10.30117 -5.682295,0.0129 -10.288349,4.61887 -10.301162,10.30117 m -6.7008794,0 c 0,-9.39789 7.6169654,-17.00204 17.0020414,-17.00204 9.385074,0 16.989228,7.60415 17.00204,17.00204 -0.01274,9.38508 -7.604154,16.98923 -17.00204,17.00204 -9.385076,-0.0129 -17.0020414,-7.61696 -17.0020414,-17.00204" /><path
   style="fill:#ffffff;fill-rule:nonzero;stroke:none"
   id="path1372"
   class="ps016"
   d="m 496.60053,394.40056 -3.69638,-21.30059 5.12495,-30.3077 c 0,0 0.23702,-1.64641 2.19732,-1.62718 l 9.86554,-0.27547 8.40493,-2.51762 17.71313,0 14.80473,-2.49842 19.51966,3.45933 c 0,0 1.92826,0.46766 2.08842,1.83218 l 4.36902,25.52869 -0.78154,29.65427 -4.99043,16.60486 -2.07561,3.45935 4.29215,25.32368 1.52467,29.88489 -4.70215,21.72982 c 0,0 -0.47405,1.78091 -2.2806,1.78091 l -18.34733,0.57016 -19.36593,-1.45421 -8.23197,1.59516 -20.07061,-1.59516 c 0,0 -1.85779,-0.17939 -1.89622,-1.56311 l -6.74573,-28.30257 z" /><path
   style="fill:#233a6d;fill-rule:nonzero;stroke:none"
   id="path1376"
   class="ps017"
   d="m 500.2482,340.32652 -0.0513,0 0.0513,0 m -3.64511,54.07469 0.8328,0.0384 -3.3056,69.74424 6.77136,28.46911 c -0.0513,0.46765 1.12108,0.75593 1.12108,0.75593 l 19.83998,1.61437 8.45618,-1.61437 19.28264,1.45421 18.36657,-0.57014 c 0.55733,0.0321 0.9289,-0.27547 1.15312,-0.56375 0.2242,-0.29468 0.3203,-0.58296 0.3203,-0.55734 l 4.67653,-21.51841 -1.51829,-29.77599 -4.3498,-25.63119 0.17293,-0.27546 1.99234,-3.25434 4.95198,-16.39987 0.79437,-29.48771 -4.36902,-25.56072 c 0.0832,-0.57015 -1.44139,-1.12108 -1.41578,-1.10827 l -19.22498,-3.45293 -14.94566,2.49842 -17.4761,-0.0384 -8.60991,2.56247 -9.93603,0.24984 0,0.0129 c -1.31966,0 -1.28123,0.9289 -1.33248,0.9417 l -5.13776,30.01942 3.70919,21.3006 z m 5.26588,100.67334 c 0.0129,-0.0384 -2.39591,-0.064 -2.62013,-2.19732 l -6.77134,-28.5332 3.27356,-69.91078 -3.68357,-21.47999 5.12497,-30.28208 c 0,-0.077 0.44202,-2.34466 2.99168,-2.34466 0,0.0256 0.0576,0.0129 0.0705,0 l -0.006,0 9.60289,-0.23703 8.64196,-2.56888 17.57219,0.0192 15.08659,-2.48561 19.57092,3.46576 c 0.0257,0.064 2.31264,0.36514 2.72263,2.49841 l 4.37543,25.69525 -0.81999,29.87209 -5.06089,16.80344 -1.91546,3.17747 4.24731,25.1251 1.50545,30.0963 -4.70855,21.78106 c -0.0129,0.0513 -0.60857,2.33825 -3.06856,2.38951 l -18.43704,0.58296 -19.14811,-1.47982 -8.44336,1.61436 z" /><path
   style="fill:#ffffff;fill-rule:nonzero;stroke:none"
   id="path1380"
   class="ps016"
   d="m 359.06144,483.15518 c -6.8354,0 -12.38957,-5.54135 -12.38957,-12.39597 0,-6.84182 5.55417,-12.396 12.38957,-12.396 6.84822,0 12.39599,5.55418 12.39599,12.396 0,6.85462 -5.54777,12.39597 -12.39599,12.39597 m -21.48637,8.87258 42.74854,0 0,-42.74212 -42.74854,0 z" /><path
   style="fill:#233a6d;fill-rule:nonzero;stroke:none"
   id="path1384"
   class="ps017"
   d="m 345.83905,470.75856 c 0,-7.30306 5.91932,-13.22879 13.21599,-13.2416 7.30946,0.0129 13.21598,5.93854 13.21598,13.2416 0,7.30947 -5.90652,13.22239 -13.21598,13.22239 l 0,-0.8264 0,-0.83922 c 6.38697,0 11.55677,-5.16339 11.55677,-11.55677 0,-6.38057 -5.1698,-11.55677 -11.55677,-11.56958 -6.38058,0.0129 -11.54397,5.18901 -11.54397,11.56958 0,6.39338 5.16339,11.55677 11.54397,11.55677 l 0,0.83922 0,0.8264 c -7.29667,0 -13.21599,-5.91292 -13.21599,-13.22239 m -8.25758,-20.64717 0,-0.82639 z m 0.8264,41.07012 41.06371,0 0,-41.06371 -41.06371,0 z m -1.672,1.68483 0,-43.58134 0,-0.84563 44.42054,0 0,44.42697 z" /><path
   style="fill:#ffffff;fill-rule:nonzero;stroke:none"
   id="path1386"
   class="ps016"
   d="m 529.76603,409.2277 -28.4435,0 0,16.91234 28.4435,0 z" /><path
   style="fill:#233a6d;fill-rule:nonzero;stroke:none"
   id="path1388"
   class="ps017"
   d="m 502.15533,425.30724 26.7779,0 0,-15.24674 -26.7779,0 z m -1.6656,1.66562 0,-18.57796 29.2763,0 0,0.8328 0,-0.8328 0.8328,0 0,18.57796 z" /><path
   style="fill:#ffffff;fill-rule:nonzero;stroke:none"
   id="path1390"
   class="ps016"
   d="m 369.73929,301.02707 -22.03731,0 0,-4.22809 22.03731,0 z" /><path
   style="fill:#233a6d;fill-rule:nonzero;stroke:none"
   id="path1394"
   class="ps017"
   d="m 347.7007,300.8035 21.83231,0 0.19859,-3.83091 -21.8195,-0.19858 z m -0.21141,0.21141 0.21141,-4.45231 22.24871,0.21141 0,4.2409 -0.21781,0 0,0.19858 z" /><path
   style="fill:#ffffff;fill-rule:nonzero;stroke:none"
   id="path1396"
   class="ps016"
   d="m 403.69212,435.42904 -17.36078,0 0,16.14361 17.36078,0 z" /><path
   style="fill:#233a6d;fill-rule:nonzero;stroke:none"
   id="path1398"
   class="ps017"
   d="m 387.16413,450.67577 15.63113,0 0,-14.41393 -15.63113,0 z m -1.72967,1.72968 0,-17.80922 18.25766,0 0,0.83281 0,-0.83281 0.76874,0 0,17.80922 z" /><path
   style="fill:#ffffff;fill-rule:nonzero;stroke:none"
   id="path1400"
   class="ps016"
   d="m 330.6615,435.42904 -16.97641,0 0,16.14361 16.97641,0 z" /><path
   style="fill:#233a6d;fill-rule:nonzero;stroke:none"
   id="path1402"
   class="ps017"
   d="m 314.51789,450.73983 15.24675,0 0,-14.47799 -15.24675,0 z m -1.66562,1.66562 0,-17.80922 17.80923,0 0,0.83281 0,-0.83281 0.83281,0 0,17.80922 z" /><path
   style="fill:#ffffff;fill-rule:nonzero;stroke:none"
   id="path1404"
   class="ps016"
   d="m 387.54851,249.90564 -17.80922,0 0,-15.75925 17.80922,0 z" /><path
   style="fill:#233a6d;fill-rule:nonzero;stroke:none"
   id="path1408"
   class="ps017"
   d="m 370.56633,249.06322 16.16924,0 -0.0129,-14.0744 -16.15641,0 z m 17.00845,0.82642 0,-0.82642 z m -18.68047,0.8456 0,-17.41844 19.51326,0 0,16.57284 0,0.8456 z" /><path
   style="fill:#ffffff;fill-rule:nonzero;stroke:none"
   id="path1410"
   class="ps016"
   d="m 347.70198,249.90564 -17.87328,0 0,-15.75925 17.87328,0 z" /><path
   style="fill:#233a6d;fill-rule:nonzero;stroke:none"
   id="path1412"
   class="ps017"
   d="m 330.6615,249.07284 16.20768,0 0,-14.09363 -16.20768,0 z m 17.04048,0.8328 0,-0.8328 z m -18.70608,0.8328 0,-17.42485 19.53888,0 0,16.59205 0,0.8328 z" /><path
   style="fill:#ffffff;fill-rule:nonzero;stroke:none"
   id="path1414"
   class="ps016"
   d="m 347.70198,317.10661 -17.87328,0 0,-16.07954 17.87328,0 z" /><path
   style="fill:#233a6d;fill-rule:nonzero;stroke:none"
   id="path1416"
   class="ps017"
   d="m 330.6615,316.27382 16.20768,0 0,-14.47801 -16.20768,0 z m 17.04048,0.83279 0,-0.83279 z m -18.70608,0.83282 0,-17.74516 19.53888,0 0,16.91234 0,0.83282 z" /><path
   style="fill:#ffffff;fill-rule:nonzero;stroke:none"
   id="path1418"
   class="ps016"
   d="m 387.54851,317.10661 -17.80922,0 0,-16.07954 17.80922,0 z" /><path
   style="fill:#233a6d;fill-rule:nonzero;stroke:none"
   id="path1420"
   class="ps017"
   d="m 370.57209,316.27382 16.14362,0 0,-14.41395 -16.14362,0 z m 16.97642,0.83279 0,-0.83279 z m -18.64202,0.83282 0,-17.74516 19.47482,0 0,16.91234 0,0.83282 z" /><path
   style="fill:#ffffff;fill-rule:nonzero;stroke:none"
   id="path1422"
   class="ps016"
   d="m 404.71712,384.49979 -17.80923,0 0,-16.59204 17.80923,0 z" /><path
   style="fill:#233a6d;fill-rule:nonzero;stroke:none"
   id="path1426"
   class="ps017"
   d="m 387.71443,383.64905 16.18205,0 -0.0129,-14.93285 -16.16924,0 z m 17.01485,0.8328 0,-0.8328 z m -18.68047,0.83922 0,-18.27687 19.51969,0 0,17.43765 0,0.83922 z" /><path
   style="fill:#ffffff;fill-rule:nonzero;stroke:none"
   id="path1428"
   class="ps016"
   d="m 347.70198,384.49979 -17.87328,0 0,-16.72016 17.87328,0 z" /><path
   style="fill:#233a6d;fill-rule:nonzero;stroke:none"
   id="path1430"
   class="ps017"
   d="m 330.72557,383.66697 16.14361,0 0,-15.05455 -16.14361,0 z m 16.97641,0.83282 0,-0.83282 z m -18.70608,0.8328 0,-18.38578 19.53888,0 0,17.55298 0,0.8328 z" /><path
   style="fill:#233a6d;fill-rule:nonzero;stroke:none"
   id="path1434"
   class="ps017"
   d="m 540.05502,470.36137 3.11342,0 0,17.53376 -3.51701,0 0,-13.53629 -2.95966,2.40874 -1.7617,-2.28062 z" /><path
   style="fill:#233a6d;fill-rule:nonzero;stroke:none"
   id="path1438"
   class="ps017"
   d="m 547.95066,487.89706 0,-2.94045 c 1.63358,-1.58232 7.58492,-6.55353 7.58492,-9.76944 0,-1.60796 -1.43497,-2.36389 -2.86356,-2.36389 -1.47982,0 -2.8892,0.65343 -4.04872,1.40936 l -0.26905,-2.91481 c 1.58233,-0.80719 3.41451,-1.25562 5.19542,-1.25562 3.34404,0 5.50292,1.68482 5.50292,5.12496 0,3.7156 -3.74763,7.1365 -6.61119,9.94241 l 7.16213,0 0,2.76748 z" /><path
   style="fill:#233a6d;fill-rule:nonzero;stroke:none"
   id="path1440"
   class="ps017"
   d="m 563.97512,424.28225 -26.20135,0 0,-13.00458 26.20135,0 z" /><path
   style="fill:#ffffff;fill-rule:nonzero;stroke:none"
   id="path1444"
   class="ps016"
   d="m 484.87079,391.22886 -0.27547,-6.78416 -3.04936,-17.98859 0.60219,-6.05385 8.05258,1.28124 3.50419,6.51509 2.3639,-14.32425 -8.80212,1.4478 -15.35566,-1.91545 0,5.3812 2.93405,0.46766 6.0154,36.26546 -0.12808,37.91185 c 0,0 -1.53748,3.56826 -1.55671,6.39981 -6.09869,-1.66562 -10.46771,-3.23514 -10.46771,-3.23514 l -1.32609,-1.15311 -7.48884,0 1.90905,5.50292 32.17832,8.31523 0.28186,-6.18196 c -3.16465,-0.45485 -6.36774,-1.09546 -9.39147,-1.80014 z" /><path
   style="fill:#233a6d;fill-rule:nonzero;stroke:none"
   id="path1448"
   class="ps017"
   d="m 462.44269,440.24137 30.74333,7.95009 0.19859,-4.38824 c -2.94684,-0.45484 -5.9065,-1.05703 -8.70602,-1.71046 l -0.64702,-0.16019 0,-50.673 -0.27548,-6.67525 -3.04933,-18.21922 0.68546,-6.93151 9.33383,1.47984 0.19859,0.37155 2.33825,4.35621 1.78093,-10.7624 -7.88603,1.26843 -14.43316,-1.79373 0,3.70918 2.84435,0.46125 6.12433,36.99576 -0.20501,38.23858 c 0.0129,0.0129 -1.47341,3.5106 -1.48622,6.07308 l 0,1.09546 -1.05704,-0.28828 c -6.12431,-1.67842 -10.50616,-3.24794 -10.79444,-3.4081 l -1.09544,-0.94811 -5.99621,0 z m -1.29404,1.39655 -2.44076,-7.034 1.17873,0 7.79633,0 0.23703,0.21141 1.06344,0.99296 c 0.006,0 3.87575,1.38374 9.42351,2.94685 0.28828,-2.70342 1.44139,-5.3812 1.47984,-5.34276 l 0.14727,-37.75812 -5.93213,-35.6761 -3.03653,-0.48688 0,-0.70468 0,-6.33572 16.06032,2.03076 9.94883,-1.63998 -2.95967,17.91813 -4.47152,-8.32806 -6.76495,-1.06983 -0.5125,4.95199 3.05577,18.1039 0.27547,6.77135 -0.8328,0.0384 0.8328,0 0,49.37897 c 2.81231,0.64702 5.76556,1.22358 8.67397,1.63998 l 0.75594,0.10889 -0.0384,0.76233 -0.33313,7.21337 z" /><path
   style="fill:#ffffff;fill-rule:nonzero;stroke:none"
   id="path1450"
   class="ps016"
   d="m 237.83575,427.10098 8.58428,0 0,-34.14503 -8.58428,0 z" /><path
   style="fill:#233a6d;fill-rule:nonzero;stroke:none"
   id="path1454"
   class="ps017"
   d="m 237.86009,393.80928 0,-0.8264 z m 0.83921,32.46018 6.89947,0 0,-32.46018 -6.89947,0 z m -1.67843,1.67842 0,-34.965 0,-0.84562 10.24992,0 0,35.81062 z" /><path
   style="fill:#ffffff;fill-rule:nonzero;stroke:none"
   id="path1458"
   class="ps016"
   d="m 347.72568,384.503 0,-0.0129 -43.4404,0 0,-5.53494 -14.76629,0 0,5.90651 -43.08164,0 0,8.11665 0,34.1322 0,8.30243 101.28833,0 0,-46.67553 -0.006,0 0,-4.23449 z" /><path
   style="fill:#233a6d;fill-rule:nonzero;stroke:none"
   id="path1462"
   class="ps017"
   d="m 347.72248,384.49723 0,-0.8328 z m -100.44912,8.47539 0,34.14503 0,7.45039 99.6099,0 0,-44.99069 0,-0.83923 0,-3.4145 -43.44039,0 0,-0.8392 0,-4.70215 -13.08786,0 0,5.91292 -43.08165,0 z m -1.66562,43.28025 0,-0.8392 0,-8.29602 0,-34.14503 0,-8.94945 43.07524,0 0,-5.91292 16.43191,0 0,0.84563 0,4.69574 43.4468,0 0,0.8328 0,0.0129 0,0.83922 -0.0129,0 0,2.55607 0.0129,0 0,48.36035 z" /><path
   style="fill:#ffffff;fill-rule:nonzero;stroke:none"
   id="path1464"
   class="ps016"
   d="m 271.14796,359.51562 8.84054,0 0,-34.27314 -8.84054,0 z" /><path
   style="fill:#233a6d;fill-rule:nonzero;stroke:none"
   id="path1468"
   class="ps017"
   d="m 271.16717,326.08748 0,-0.82642 z m 0.8264,32.56268 7.13009,0 0,-32.56268 -7.13009,0 z m -1.6656,1.67842 0,-35.06752 0,-0.8456 10.47412,0 0,35.91312 z" /><path
   style="fill:#ffffff;fill-rule:nonzero;stroke:none"
   id="path1472"
   class="ps016"
   d="m 347.71927,321.336 0,-4.2345 -67.7455,0 0,8.15508 -0.006,0 0,34.2347 0.006,0 0,8.30245 67.75191,0 0,-46.45773 z" /><path
   style="fill:#233a6d;fill-rule:nonzero;stroke:none"
   id="path1476"
   class="ps017"
   d="m 348.55144,321.336 -0.82639,0 z m -67.75192,37.31608 0.0129,0 0,0.8392 -0.0129,7.46963 66.0799,0 0,-45.62491 0,-3.39529 -66.06709,0 0,8.14869 -0.0129,0 z m -1.65919,9.98085 0,-0.84563 -0.0129,-7.4632 0,-35.90672 0.0129,0 0,-8.1615 69.41111,0 0,0.83922 0,3.40168 0.0129,0 0,48.13615 z" /><path
   style="fill:#ffffff;fill-rule:nonzero;stroke:none"
   id="path1480"
   class="ps016"
   d="m 347.72568,234.15793 0,-67.82879 -100.95523,0 0,67.82879 11.26211,0 5.29792,0 z" /><path
   style="fill:#233a6d;fill-rule:nonzero;stroke:none"
   id="path1484"
   class="ps017"
   d="m 247.6039,233.31937 10.42929,0 5.29151,0 83.55601,0 0,-66.16319 -99.27681,0 z m 100.11602,0.8392 0,-0.8392 z m -84.39522,0.83282 -5.29151,0 -12.10129,0 0,-69.50723 102.63364,0 0,68.67441 0,0.83282 z" /><path
   style="fill:#ffffff;fill-rule:nonzero;stroke:none"
   id="path1486"
   class="ps016"
   d="m 237.77167,292.69903 8.7765,0 0,-34.46535 -8.7765,0 z" /><path
   style="fill:#233a6d;fill-rule:nonzero;stroke:none"
   id="path1490"
   class="ps017"
   d="m 237.77232,259.07547 0,-0.8264 z m 0.83922,32.7869 7.08525,-0.0129 -0.0129,-32.77409 -7.07242,0 z m -1.67842,1.66562 0,-35.27892 0,-0.84562 10.43569,0 0,36.12454 z" /><path
   style="fill:#ffffff;fill-rule:nonzero;stroke:none"
   id="path1494"
   class="ps016"
   d="m 347.72568,301.00978 0,-51.07018 -43.39557,0 0,-5.2595 -14.52924,0 0,5.38121 -26.47039,0 0,0.0129 -5.29792,0 0,-0.0129 -11.4735,0 0,8.18071 -0.0256,0 0,34.45893 0.0256,0 0,8.30883 z" /><path
   style="fill:#233a6d;fill-rule:nonzero;stroke:none"
   id="path1498"
   class="ps017"
   d="m 247.36881,291.85726 0.0257,0 0,0.8392 0,7.46963 99.48821,0 0,-49.39178 -43.40197,0 0,-0.8392 0,-4.42667 -12.85083,0 0,5.38761 -26.46399,0 0,0.0129 -0.8392,0 -6.13714,0 0,-0.0129 -9.79508,0 0,8.17429 -0.0257,0 z m 100.35303,9.14803 0,-0.8392 z m -101.99943,0.84563 0,-0.84563 0,-7.4632 -0.0257,0 0,-36.14376 0.0257,0 0,-8.1743 13.13911,0 0,0.0129 3.6323,-0.0129 26.46399,-0.0129 0,-5.3748 16.20128,0 0,0.8456 0,4.4267 43.40197,0 0,51.89657 0,0.84563 z" /><path
   style="fill:#ffffff;fill-rule:nonzero;stroke:none"
   id="path1500"
   class="ps016"
   d="m 263.3324,234.14639 -5.31715,0 0,15.88737 5.31715,0 z" /><path
   style="fill:#233a6d;fill-rule:nonzero;stroke:none"
   id="path1502"
   class="ps017"
   d="m 258.84807,249.20096 3.65153,0 0,-14.22175 -3.65153,0 z m 4.48433,1.66561 -6.14995,0 0,-17.55298 0.8328,0 5.31715,0 0,0.8328 0,-0.8328 0.8328,0 0,17.55298 z" /><path
   style="fill:#9ba9ca;fill-rule:nonzero;stroke:none"
   id="path1504"
   class="ps022"
   d="m 263.3324,250.03376 -5.31715,0 0,0.064 5.31715,0 z" /><path
   style="fill:#161215;fill-rule:nonzero;stroke:none"
   id="path1508"
   class="ps018"
   d="m 257.82628,250.07669 0.21139,-0.22422 0.33953,0.0129 4.95199,0 0,0.19218 0.1986,0.006 0,0.0129 -0.1986,0 0,0.18578 0,0.0129 z" /><path
   style="fill:#ffffff;fill-rule:nonzero;stroke:none"
   id="path1510"
   class="ps016"
   d="m 246.74035,175.01721 -11.40303,0 0,51.50582 11.40303,0 z" /><path
   style="fill:#233a6d;fill-rule:nonzero;stroke:none"
   id="path1512"
   class="ps017"
   d="m 236.17014,225.69023 9.73741,0 0,-49.84021 -9.73741,0 z m -1.66562,1.6656 0,-53.17142 12.23583,0 0,0.89686 0,-0.89686 0.8328,0 0,53.17142 z" /><path
   style="fill:#ffffff;fill-rule:nonzero;stroke:none"
   id="path1516"
   class="ps016"
   d="m 470.69451,234.15793 0,-67.82879 -100.95522,0 0,67.82879 84.38879,0 5.29794,0 z" /><path
   style="fill:#233a6d;fill-rule:nonzero;stroke:none"
   id="path1520"
   class="ps017"
   d="m 370.55993,233.31359 83.5624,0 5.30432,0 10.42929,0 -0.0129,-66.14396 -99.2832,0 z m 100.12882,0.84563 0,-0.84563 z m -11.2621,0.82639 -5.30432,0 -85.22802,0 0,-69.4944 102.64005,0 0,68.66801 0,0.82639 z" /><path
   style="fill:#ffffff;fill-rule:nonzero;stroke:none"
   id="path1522"
   class="ps016"
   d="m 459.42602,234.14639 -5.31715,0 0,15.88737 5.31715,0 z" /><path
   style="fill:#233a6d;fill-rule:nonzero;stroke:none"
   id="path1524"
   class="ps017"
   d="m 454.94167,249.20096 3.65153,0 0,-14.22175 -3.65153,0 z m 4.48435,1.72967 -6.14995,0 0,-17.61704 0.8328,0 5.31715,0 0,0.8328 0,-0.8328 0.8328,0 0,17.61704 z" /><path
   style="fill:#9ba9ca;fill-rule:nonzero;stroke:none"
   id="path1526"
   class="ps022"
   d="m 459.42602,250.03376 -5.31715,0 0,0.064 5.31715,0 z" /><path
   style="fill:#161215;fill-rule:nonzero;stroke:none"
   id="path1530"
   class="ps018"
   d="m 453.90964,250.07028 0.20501,-0.22422 0.35234,0.0129 4.95198,0 0,0.1922 0.21782,0.006 0,0.0129 -0.21782,0 0,0.19858 0,0.0129 z" /><path
   style="fill:#ffffff;fill-rule:nonzero;stroke:none"
   id="path1532"
   class="ps016"
   d="m 470.70092,226.52303 11.46709,0 0,-51.50582 -11.46709,0 z" /><path
   style="fill:#233a6d;fill-rule:nonzero;stroke:none"
   id="path1536"
   class="ps017"
   d="m 470.69451,175.87629 0,-0.83281 z m 0.81999,49.82739 9.77587,0 0,-49.82739 -9.76306,0 z m -1.66561,1.67843 0,-52.33863 0,-0.84561 13.1199,0 0,53.18424 z" /><path
   style="fill:#ffffff;fill-rule:nonzero;stroke:none"
   id="path1540"
   class="ps016"
   d="m 471.86428,367.87443 0,-50.77549 -84.94614,0 0,4.23449 -0.0192,0 0,46.541 z" /><path
   style="fill:#233a6d;fill-rule:nonzero;stroke:none"
   id="path1544"
   class="ps017"
   d="m 387.73302,367.03972 83.28692,0 0,-49.1099 -83.27412,0 0,4.2409 -0.0129,0 z m 84.13255,0.83279 0,-0.83279 z m -85.81098,0.8328 0,-48.21302 0.0256,0 0,-4.23449 86.61816,0 0,51.61471 0,0.8328 z" /><path
   style="fill:#ffffff;fill-rule:nonzero;stroke:none"
   id="path1548"
   class="ps016"
   d="m 279.53431,460.10762 -0.006,0 0,17.43126 0.006,0 0,8.52665 51.08939,0 0,-34.49096 -51.08939,0 z" /><path
   style="fill:#233a6d;fill-rule:nonzero;stroke:none"
   id="path1552"
   class="ps017"
   d="m 279.52855,460.10762 0,-0.83921 z m 0.82639,16.58564 0.0129,0 0,0.83922 0,7.68742 49.41099,0 0,-32.81252 -49.41099,0 0,7.70024 0,0.82641 -0.0129,0 z m -1.65281,10.19866 0,-0.82639 -0.0129,-7.68744 0,-19.10968 0.0129,0 0,-8.53305 52.74861,0 0,36.15656 z" /><path
   style="fill:#ffffff;fill-rule:nonzero;stroke:none"
   id="path1554"
   class="ps016"
   d="m 271.46826,477.51773 8.0718,0 0,-17.42484 -8.0718,0 z" /><path
   style="fill:#233a6d;fill-rule:nonzero;stroke:none"
   id="path1558"
   class="ps017"
   d="m 271.46442,460.93658 0,-0.8264 z m 0.84563,15.76565 6.37415,0 0,-15.76565 -6.37415,0 z m -1.68485,1.67202 0,-18.26407 0,-0.8456 9.74382,0 0,19.10967 z" /><path
   style="fill:#ffffff;fill-rule:nonzero;stroke:none"
   id="path1560"
   class="ps016"
   d="m 401.06558,132.35195 -85.13833,0 0,33.95284 85.13833,0 z" /><path
   style="fill:#233a6d;fill-rule:nonzero;stroke:none"
   id="path1562"
   class="ps017"
   d="m 316.76006,165.47198 83.47273,0 0,-32.28722 -83.47273,0 z m -1.66561,1.66561 0,-35.61844 85.97113,0 0,0.8328 0,-0.8328 0.8328,0 0,35.61844 z" /><path
   style="fill:#ffffff;fill-rule:nonzero;stroke:none"
   id="path1564"
   class="ps016"
   d="m 347.70198,321.33471 39.20591,0 0,-4.2281 -39.20591,0 z" /><path
   style="fill:#233a6d;fill-rule:nonzero;stroke:none"
   id="path1568"
   class="ps017"
   d="m 347.71927,317.92982 0,-0.8264 z m 0.84563,2.56889 37.49545,0 0,-2.56889 -37.49545,0 z m -1.67202,1.67201 0,-0.83921 0,-4.22809 0,-0.84562 40.83949,0 0,0.84562 0,5.0673 z" /><path
   style="fill:#9ba9ca;fill-rule:nonzero;stroke:none"
   id="path1570"
   class="ps022"
   d="m 347.70198,321.33471 0,0 0,-4.2281 0,0 z" /><path
   style="fill:#161215;fill-rule:nonzero;stroke:none"
   id="path1574"
   class="ps018"
   d="m 347.50659,321.33919 0,-4.2409 0.21141,0 0,-0.20499 0.20499,0.20499 -0.19218,4.4395 z" /><path
   style="fill:#9ba9ca;fill-rule:nonzero;stroke:none"
   id="path1576"
   class="ps022"
   d="m 386.90789,317.10661 0,0 0,4.2281 0,0 z" /><path
   style="fill:#161215;fill-rule:nonzero;stroke:none"
   id="path1580"
   class="ps018"
   d="m 386.68176,321.32959 0.0256,-0.55734 0,-3.67715 0.17293,0 0.0129,-0.20501 0.0256,0 0,0.20501 0.19859,0 -0.19859,4.44589 z" /><path
   style="fill:#ffffff;fill-rule:nonzero;stroke:none"
   id="path1582"
   class="ps016"
   d="m 386.90789,363.6156 -39.14185,0 0,4.22809 39.14185,0 z" /><path
   style="fill:#233a6d;fill-rule:nonzero;stroke:none"
   id="path1584"
   class="ps017"
   d="m 348.59886,367.01087 37.47624,0 0,-2.56248 -37.47624,0 z m 38.30903,0.89688 0,-0.89688 z m -39.97465,0.76873 0,-0.76873 0,-5.12497 40.80745,0 0,0.83282 0,4.29215 0,0.76873 z" /><path
   style="fill:#ffffff;fill-rule:nonzero;stroke:none"
   id="path1586"
   class="ps016"
   d="m 347.70198,388.72788 21.65293,0 0,-4.22809 -21.65293,0 z" /><path
   style="fill:#233a6d;fill-rule:nonzero;stroke:none"
   id="path1590"
   class="ps017"
   d="m 347.72889,385.33515 0,-0.82639 z m 0.82639,2.5689 19.96811,0 0,-2.5689 -19.96811,0 z m -1.67202,1.672 0,-0.8392 0,-4.22809 0,-0.84563 23.31215,0 0,0.84563 0,5.06729 z" /><path
   style="fill:#9ba9ca;fill-rule:nonzero;stroke:none"
   id="path1592"
   class="ps022"
   d="m 347.70198,388.72788 0,0 0,-4.22809 0,0 z" /><path
   style="fill:#161215;fill-rule:nonzero;stroke:none"
   id="path1596"
   class="ps018"
   d="m 347.50659,388.73877 0,-4.2409 0.21141,0 0,-0.21141 0.20499,0.21141 -0.19218,4.45231 z" /><path
   style="fill:#ffffff;fill-rule:nonzero;stroke:none"
   id="path1600"
   class="ps016"
   d="m 437.4124,460.10762 0,-8.53305 -51.09579,0 0,34.49096 51.09579,0 0,-8.52665 0.0257,0 0,-17.43126 z" /><path
   style="fill:#233a6d;fill-rule:nonzero;stroke:none"
   id="path1604"
   class="ps017"
   d="m 438.24458,460.10762 -0.8328,0 z m -51.10863,25.11228 49.43661,0 0,-8.52024 0.0256,0 0,-15.76563 -0.0256,0 0,-0.82641 0,-7.70664 -49.43661,0 z m -1.65921,1.67202 0,-36.16296 52.76784,0 0,0.84561 0,7.68744 0.0319,0 0,19.10967 -0.0319,0 0,8.52024 z" /><path
   style="fill:#ffffff;fill-rule:nonzero;stroke:none"
   id="path1606"
   class="ps016"
   d="m 445.46051,460.09289 -8.00774,0 0,17.42484 8.00774,0 z" /><path
   style="fill:#233a6d;fill-rule:nonzero;stroke:none"
   id="path1608"
   class="ps017"
   d="m 438.28557,476.68493 6.34214,0 0,-15.75924 -6.34214,0 z m -1.6656,1.6656 0,-19.09046 0.8328,0 8.00774,0 0,0.83282 0,-0.83282 0.8328,0 0,19.09046 z" /><path
   style="fill:#ffffff;fill-rule:nonzero;stroke:none"
   id="path1612"
   class="ps016"
   d="m 470.65031,392.98032 0,-8.12306 -43.08807,0 0,-5.90011 -14.74706,0 0,5.53496 -43.45962,0 0,0.0129 0,4.2345 0,46.67552 101.29475,0 0,-8.30242 0.006,0 0,-34.1322 z" /><path
   style="fill:#233a6d;fill-rule:nonzero;stroke:none"
   id="path1616"
   class="ps017"
   d="m 471.47671,392.97391 -0.8328,0 z m -101.29476,-4.23449 0,45.82991 99.62914,0 0,-7.45041 0,-34.14501 0,-7.28385 -43.08165,0 0,-0.8328 0,-5.06729 -13.08146,0 0,5.52854 -43.46603,0 z m -1.65279,47.50834 0,-47.50834 0,-4.2409 0,-0.84563 43.44042,-0.0129 0,-5.52854 16.41265,0 0,0.84561 0,5.06731 43.09448,0 0,0.8328 0,7.28383 0.0129,0 0,35.80424 -0.0129,0 0,8.30243 z" /><path
   style="fill:#ffffff;fill-rule:nonzero;stroke:none"
   id="path1618"
   class="ps016"
   d="m 479.22116,392.95595 -8.5843,0 0,34.14503 8.5843,0 z" /><path
   style="fill:#233a6d;fill-rule:nonzero;stroke:none"
   id="path1620"
   class="ps017"
   d="m 471.46966,426.26818 6.9187,0 0,-32.47941 -6.9187,0 z m -1.6656,1.6656 0,-35.81062 9.4171,0 0,0.83279 0,-0.83279 0.8328,0 0,35.81062 z" /><path
   style="fill:#ffffff;fill-rule:nonzero;stroke:none"
   id="path1624"
   class="ps016"
   d="m 470.9072,258.24394 0,-8.18071 -11.47991,0 0,0.0129 -5.29791,0 0,-0.0129 -26.46399,0 0,-5.38121 -14.52926,0 0,5.2595 -43.39557,0 0,51.07018 101.16664,0 0,-8.30884 z" /><path
   style="fill:#233a6d;fill-rule:nonzero;stroke:none"
   id="path1628"
   class="ps017"
   d="m 370.55993,300.16544 99.50101,0 0,-7.46963 0,-34.45892 0,-7.34789 -9.80148,0 0,0.0129 -0.83281,0 -6.13712,0 -26.47682,0 0,-0.84563 0,-4.54198 -12.85081,0 0,5.26589 -43.40197,-0.0129 z m -1.66562,1.67843 0,-52.7358 43.40837,-0.0192 0,-5.24669 16.18846,0 0,0.83922 0,4.54199 26.46399,0 0,0.0129 3.62591,-0.0129 13.15833,0 0,0.8328 0,8.18071 0,34.45892 0,9.14805 z" /><path
   style="fill:#ffffff;fill-rule:nonzero;stroke:none"
   id="path1630"
   class="ps016"
   d="m 479.73366,292.76309 -8.84056,0 0,-34.52941 8.84056,0 z" /><path
   style="fill:#233a6d;fill-rule:nonzero;stroke:none"
   id="path1632"
   class="ps017"
   d="m 471.72591,291.93027 7.17493,0 0,-32.86377 -7.17493,0 z m 8.00775,0.83282 0,-0.83282 z m -9.67336,0.83279 0,-36.195 10.50616,0 0,35.36221 0,0.83279 z" /><path
   style="fill:#233a6d;fill-rule:nonzero;stroke:none"
   id="path1636"
   class="ps017"
   d="m 265.18955,214.91116 c 0,-1.65921 -0.70468,-3.11341 -2.44076,-3.11341 -1.63358,0 -2.30624,1.58234 -2.30624,3.13903 0,1.71047 0.6983,3.29279 2.38313,3.29279 1.70404,0 2.36387,-1.56311 2.36387,-3.31841 m -6.9315,8.94305 c 0.9225,0.40359 1.88342,0.70468 3.06217,0.70468 3.03653,0 4.06793,-2.81872 4.17042,-5.42604 l -0.0513,-0.0513 c -0.83282,1.22999 -1.90905,1.7553 -3.38889,1.7553 -3.3184,0 -5.12495,-2.10763 -5.12495,-5.34917 0,-3.79246 1.8578,-6.3037 5.82322,-6.3037 4.87512,0 5.95777,4.04231 5.95777,8.16149 0,4.7534 -1.53107,9.97445 -7.20696,9.97445 -1.28124,0 -2.49201,-0.1986 -3.69638,-0.62781 z" /><path
   style="fill:#233a6d;fill-rule:nonzero;stroke:none"
   id="path1640"
   class="ps017"
   d="m 441.11583,209.48384 3.1134,0 0,17.53375 -3.51699,0 0,-13.53629 -2.95966,2.40872 -1.76171,-2.287 z" /><path
   style="fill:#233a6d;fill-rule:nonzero;stroke:none"
   id="path1644"
   class="ps017"
   d="m 457.55029,218.30195 c 0,-2.26136 0,-6.50869 -2.61373,-6.50869 -2.56248,0 -2.56248,4.24733 -2.56248,6.50869 0,2.21016 -0.0321,6.40621 2.56248,6.40621 2.63934,0 2.61373,-4.19605 2.61373,-6.40621 m -8.68681,0 c 0,-4.39463 1.32608,-9.11601 6.07308,-9.11601 5.13135,0 6.13071,5.04808 6.13071,9.11601 0,4.06795 -1.05701,9.01994 -6.13071,9.01994 -5.40042,0 -6.07308,-5.34917 -6.07308,-9.01994" /><path
   style="fill:#233a6d;fill-rule:nonzero;stroke:none"
   id="path1648"
   class="ps017"
   d="m 291.85278,462.37862 3.1134,0 0,17.53375 -3.51699,0 0,-13.53628 -2.95966,2.40872 -1.76171,-2.2806 z" /><path
   style="fill:#233a6d;fill-rule:nonzero;stroke:none"
   id="path1652"
   class="ps017"
   d="m 257.15041,426.18746 c 1.20437,0.47407 2.51124,0.80077 3.88856,0.80077 1.46063,0 3.70278,-0.69827 3.70278,-2.4856 0,-2.05638 -1.63357,-2.73544 -3.87575,-2.73544 l -1.71044,0 0,-2.76106 1.60796,0 c 2.37029,0 3.90137,-0.78157 3.90137,-2.31264 0,-1.76172 -1.435,-2.31264 -3.01732,-2.31264 -1.38374,0 -2.71623,0.32672 -3.94622,0.9289 l -0.1986,-2.81874 c 1.40297,-0.55092 3.0878,-0.87124 4.89435,-0.87124 2.15888,0 5.78479,0.74953 5.78479,4.49716 0,2.3831 -1.48624,3.51699 -3.26717,4.18965 l 0,0.0513 c 2.23577,0.3075 3.33764,2.03717 3.33764,4.17044 0,4.17684 -3.79248,5.22745 -6.70089,5.22745 -1.53748,0 -3.29277,-0.20501 -4.59964,-0.57656 z" /><path
   style="fill:#233a6d;fill-rule:nonzero;stroke:none"
   id="path1656"
   class="ps017"
   d="m 300.14176,346.92939 -6.76495,0 -0.0705,3.74121 c 0.40359,-0.077 0.92889,-0.17293 1.60796,-0.17293 2.45997,0 5.65025,1.15311 5.65025,5.6951 0,3.29919 -2.31264,5.95777 -6.82901,5.95777 -1.3581,0 -2.94043,-0.22422 -4.09995,-0.49969 l 0.077,-3.13904 c 0.85844,0.34594 2.05638,0.87125 3.59388,0.87125 1.83858,0 3.74761,-0.84561 3.74761,-3.08138 0,-2.26779 -2.01794,-3.04294 -4.02308,-3.04294 -1.07623,0 -2.10763,0.15374 -3.14544,0.48046 l 0.17939,-9.4235 10.07695,0 z" /><path
   style="fill:#233a6d;fill-rule:nonzero;stroke:none"
   id="path1660"
   class="ps017"
   d="m 257.07546,276.9558 11.30694,0 0,2.91481 -6.23322,14.61894 -3.8181,0 6.50869,-14.76627 -7.76431,0 z" /><path
   style="fill:#233a6d;fill-rule:nonzero;stroke:none"
   id="path1664"
   class="ps017"
   d="m 416.96127,479.91429 0,-2.94043 c 1.63358,-1.58234 7.58494,-6.55354 7.58494,-9.76946 0,-1.60794 -1.43499,-2.36387 -2.86358,-2.36387 -1.47982,0 -2.88918,0.65343 -4.0487,1.40936 l -0.26906,-2.91482 c 1.58232,-0.80718 3.4145,-1.25562 5.19541,-1.25562 3.34404,0 5.50292,1.68483 5.50292,5.12495 0,3.71559 -3.74761,7.1365 -6.61119,9.94243 l 7.16213,0 0,2.76746 z" /><path
   style="fill:#233a6d;fill-rule:nonzero;stroke:none"
   id="path1668"
   class="ps017"
   d="m 455.94297,423.19705 0,-7.61056 -0.0513,0 -4.3498,7.61056 z m -7.56573,-0.22422 6.55995,-11.05708 4.36903,0 0,11.2813 2.23576,0 0,2.61372 -2.23576,0 0,3.64513 -3.36325,0 0,-3.64513 -7.56573,0 z" /><path
   style="fill:#233a6d;fill-rule:nonzero;stroke:none"
   id="path1672"
   class="ps017"
   d="m 452.60214,356.42592 c 0,1.65922 0.69828,3.11342 2.43436,3.11342 1.63357,0 2.31264,-1.58232 2.31264,-3.13903 0,-1.71047 -0.7047,-3.29279 -2.38953,-3.29279 -1.70404,0 -2.35747,1.56311 -2.35747,3.3184 m 6.9315,-8.94304 c -0.9225,-0.40359 -1.88342,-0.70468 -3.06217,-0.70468 -3.04293,0 -4.06793,2.81231 -4.17042,5.42604 l 0.0513,0.0513 c 0.82641,-1.21077 1.90905,-1.76169 3.38889,-1.76169 3.3184,0 5.12495,2.10763 5.12495,5.34917 0,3.79888 -1.8578,6.3101 -5.82963,6.3101 -4.87511,0 -5.95136,-4.04231 -5.95136,-8.1679 0,-4.74699 1.53109,-9.97445 7.20696,-9.97445 1.28124,0 2.49201,0.20501 3.68998,0.62781 z" /><path
   style="fill:#233a6d;fill-rule:nonzero;stroke:none"
   id="path1676"
   class="ps017"
   d="m 455.29209,284.01543 c 0.97375,-0.35234 1.9603,-1.46061 1.9603,-2.53686 0,-1.30687 -0.8328,-2.21013 -2.16529,-2.21013 -1.26843,0 -2.56247,0.70468 -2.56247,2.10763 0,1.51186 1.56311,2.18452 2.76746,2.63936 m -0.25624,8.16148 c 1.40936,0 2.52403,-0.87764 2.52403,-2.33185 0,-1.73608 -1.49263,-2.56247 -2.94043,-3.04293 -1.26843,0.60217 -2.24217,1.40935 -2.24217,2.88919 0,1.46061 1.25562,2.48559 2.65857,2.48559 m -2.95966,-6.82899 c -1.7617,-0.78156 -2.91482,-2.23577 -2.91482,-4.06793 0,-3.13905 2.38311,-4.62528 5.57339,-4.62528 3.09419,0 5.88088,1.28124 5.88088,4.22169 0,1.58232 -0.98015,3.41448 -2.91481,4.19605 l 0,0.0192 c 2.30623,1.08266 3.36325,2.59452 3.36325,4.59967 0,3.54262 -2.55607,5.09931 -6.02823,5.09931 -3.4145,0 -6.17556,-1.47982 -6.17556,-5.04808 0,-1.96028 1.10186,-3.31841 3.2159,-4.34339 z" /><path
   style="fill:#ec2923;fill-rule:nonzero;stroke:none"
   id="path1678"
   class="ps023"
   d="m 543.02686,297.05524 -36.57938,0 0,-77.70716 36.57938,0 z" /><path
   style="fill:#ec2923;fill-rule:nonzero;stroke:none"
   id="path1680"
   class="ps023"
   d="m 584.98743,297.05524 -36.64344,0 0,-77.70716 36.64344,0 z" /><path
   style="fill:#b48439;fill-rule:nonzero;stroke:none"
   id="path1682"
   class="ps024"
   d="m 543.02686,214.54343 -36.64344,0 0,-64.70256 36.64344,0 z" /><path
   style="fill:#f8a11a;fill-rule:nonzero;stroke:none"
   id="path1684"
   class="ps025"
   d="m 140.46158,223.19181 -66.047863,0 0,-73.22282 66.047863,0 z" /><path
   style="fill:#f8a11a;fill-rule:nonzero;stroke:none"
   id="path1686"
   class="ps025"
   d="m 211.57035,223.25587 -66.04787,0 0,-73.28688 66.04787,0 z" /><path
   style="fill:#54b435;fill-rule:nonzero;stroke:none"
   id="path1688"
   class="ps026"
   d="m 211.57035,295.5818 -66.11193,0 0,-67.3291 66.11193,0 z" /><path
   style="fill:#54b435;fill-rule:nonzero;stroke:none"
   id="path1690"
   class="ps026"
   d="m 140.52564,295.5818 -66.047861,0 0,-66.88068 66.047861,0 z" /><path
   style="fill:#ffffff;fill-rule:nonzero;stroke:none"
   id="path1692"
   class="ps016"
   d="m 211.69847,374.76237 -28.50757,0 0,-43.9465 28.50757,0 z" /><path
   style="fill:#4192d6;fill-rule:nonzero;stroke:none"
   id="path1694"
   class="ps027"
   d="m 183.1909,494.62228 28.50757,0 0,-114.79902 -28.50757,0 z" /><path
   style="fill:#fad318;fill-rule:nonzero;stroke:none"
   id="path1698"
   class="ps028"
   d="m 159.74359,530.1882 c 0,0 15.43893,42.65244 17.95656,49.14832 2.51123,6.49588 4.98402,8.72523 11.1596,8.72523 l 131.26292,0 c 0,0 4.11918,0.59577 7.94368,-5.88728 l 9.70538,-17.35438 c 0,0 0.9289,-1.58235 0.9289,-4.4331 l 0,-24.47807 c 0,0 0.0897,-5.44527 -6.73291,-5.72072 z" /><path
   style="fill:#892494;fill-rule:nonzero;stroke:none"
   id="path1702"
   class="ps029"
   d="m 391.06744,588.0752 138.13678,0 c 0,0 10.93536,0.23063 19.30825,-8.98149 0,0 14.33707,-16.84188 17.35438,-20.46137 3.01092,-3.60668 3.34404,-4.81105 3.34404,-7.98853 l 0,-14.8816 c 0,0 0.0705,-5.57979 -5.04808,-5.67587 l -174.69052,0 c 0,0 -4.76621,-0.44204 -4.76621,6.2076 l 0,46.46412 c 0,0 0.0321,5.53496 6.36136,5.31714" /><path
   style="fill:#233a6d;fill-rule:nonzero;stroke:none"
   id="path1706"
   class="ps017"
   d="m 528.87558,585.57871 c 0.0961,-0.0129 0.21139,-0.0257 0.38436,-0.0257 0.64704,0.0129 10.17945,-0.1986 17.33516,-8.09103 0.0129,-0.0257 14.34987,-16.84828 17.33517,-20.44216 2.8956,-3.70278 2.62013,-3.36966 2.76108,-6.37417 l 0,-8.6868 0,-6.04745 c -0.006,-0.0513 -0.0129,-0.10888 -0.0129,-0.16647 -0.0129,0 -0.0384,-1.05701 -0.4228,-1.83856 -0.47406,-0.79438 -0.63422,-1.20437 -2.10123,-1.31328 l -174.8699,-0.0192 0,0.0129 c -0.37157,0.37795 -1.78093,-0.81999 -2.06921,3.71559 l 0,46.4449 c 0.22422,0 -0.39078,2.83154 3.47216,2.81873 0.0129,0 0.15374,-0.0129 0.37156,-0.0129 l 0.064,0 z m -145.60641,1.06984 c -1.08265,-1.95389 -1.06983,-3.64512 -1.08265,-3.90138 l 0,-46.44491 c -0.0384,-3.44012 1.17875,-5.95776 2.92764,-7.29025 1.69764,-1.33249 3.42091,-1.4414 4.17043,-1.45421 0.12809,0 0.24344,0.006 0.28188,0.0129 l 174.62644,0 c 3.45295,-0.0129 5.81684,2.26139 6.62403,4.19607 0.50607,1.10187 0.71748,2.12044 0.81358,2.85716 l 0.0897,0.0897 0,1.04421 0,14.88798 c 0.141,3.34404 -0.80078,6.07948 -3.93341,9.59649 -3.03653,3.63871 -17.36078,20.46778 -17.42484,20.53826 -8.54586,9.33381 -19.27624,9.76304 -20.99311,9.79506 l -0.10889,0 0,-1.91545 -0.064,1.92828 -138.13678,0 0,-2.51125 -0.0513,2.51125 c -0.0257,-0.0129 -0.10889,0 -0.32032,0 -0.0705,0.006 -0.141,0.006 -0.21141,0.006 -3.6323,0 -6.19478,-1.98593 -7.20697,-3.94621" /><path
   style="fill:#233a6d;fill-rule:nonzero;stroke:none"
   id="path1710"
   class="ps017"
   d="m 159.74039,532.69942 0,-2.51763 z m 20.30123,45.72101 c 2.74825,6.2012 3.34403,6.8162 8.81492,7.12369 l 67.9441,0 c 32.04378,0 63.32524,0 63.56227,0.006 l 0.0384,0 c 0.24985,-0.077 2.56249,0.14728 5.4773,-4.60605 l 9.71819,-17.39922 c -0.0319,-0.0129 0.064,-0.0832 0.23063,-0.62141 0.17293,-0.52531 0.35874,-1.39655 0.35874,-2.53686 l 0,-24.32432 c -0.006,-0.0513 -0.006,-0.10889 -0.0129,-0.16019 -0.26264,-0.0192 0.56375,-2.91482 -4.21526,-3.2031 l -168.63668,0 c 3.70278,10.20507 14.65737,40.41669 16.72017,45.72102 m -4.68934,1.81294 c -2.54966,-6.57915 -17.96937,-49.18034 -17.98218,-49.19317 l -1.21077,-3.36965 175.90769,0 c 3.95904,0.10243 6.66885,1.99874 7.88602,4.0295 0.85844,1.40296 1.1211,2.70341 1.20437,3.49778 l 0.0576,0.10889 0,25.08025 c 0,3.4081 -1.12107,5.41965 -1.24919,5.65667 l -9.74383,17.40564 c -3.54262,6.14354 -8.11024,7.21336 -9.82071,7.1365 -0.27545,0 -0.44842,-0.0129 -0.27545,-0.0129 l -131.26934,0 c -0.25624,0.0129 -0.51891,0.0192 -0.76874,0.0192 -6.43823,0 -10.5446,-3.8245 -12.73552,-10.35882" /><path
   style="fill:#233a6d;fill-rule:nonzero;stroke:none"
   id="path1714"
   class="ps017"
   d="m 540.05502,386.85536 3.11342,0 0,17.53375 -3.51701,0 0,-13.5363 -2.95966,2.40873 -1.7617,-2.28059 z" /><path
   style="fill:#233a6d;fill-rule:nonzero;stroke:none"
   id="path1718"
   class="ps017"
   d="m 554.88216,398.13539 0,-7.61058 -0.0513,0 -4.34981,7.61058 z m -7.56571,-0.22422 6.55994,-11.0571 4.36902,0 0,11.28132 2.23577,0 0,2.61372 -2.23577,0 0,3.64511 -3.36325,0 0,-3.64511 -7.56571,0 z" /><path
   style="fill:#ea1f25;fill-rule:nonzero;stroke:none"
   id="path1722"
   class="ps030"
   d="m 292.30312,666.20387 -68.57189,36.36157 68.57189,36.34875 68.16192,-36.34875 z" /><path
   style="fill:#ffffff;fill-rule:nonzero;stroke:none"
   id="path1726"
   class="ps016"
   d="m 292.30312,723.82183 -16.0475,-8.41774 -16.68174,0 0,-8.80212 -7.71306,-4.03589 7.71306,-4.01668 0,-8.85977 16.87392,0 15.85532,-8.28322 15.79129,8.28322 17.02766,0 0,8.91743 7.53368,3.95902 -7.53368,3.96543 0,8.87258 -16.83548,0 z" /><path
   style="fill:#2c48a3;fill-rule:nonzero;stroke:none"
   id="path1728"
   class="ps031"
   d="m 259.55275,689.6909 65.59942,0 0,25.68885 -65.59942,0 z" /><path
   style="fill:#ffffff;fill-rule:nonzero;stroke:none"
   id="path1732"
   class="ps016"
   d="m 265.4394,695.65699 4.36262,0 3.3184,9.68617 0.0384,0 3.10699,-9.68617 4.38825,0 0,14.10004 -2.91481,0 0,-10.00647 -0.0384,0 -3.44652,10.00647 -2.39593,0 -3.45934,-9.91039 -0.0576,0 0,9.91039 -2.902,0 z" /><path
   style="fill:#ffffff;fill-rule:nonzero;stroke:none"
   id="path1736"
   class="ps016"
   d="m 293.27303,705.34189 c 0.19218,-3.15186 -1.47342,-6.09229 -4.9584,-6.09229 -3.09419,0 -5.22746,2.35106 -5.22746,5.40682 0,3.17748 2.01155,5.38761 5.22746,5.38761 2.29342,0 4.00387,-1.05061 4.78543,-3.46575 l -2.49201,0 c -0.16019,0.65342 -1.06982,1.33889 -2.20373,1.33889 -1.5503,0 -2.41514,-0.80078 -2.51122,-2.57528 z m -7.37993,-1.78734 c 0.0448,-0.78797 0.56373,-2.16528 2.35747,-2.16528 1.35812,0 1.9667,0.7367 2.22936,2.16528 z" /><path
   style="fill:#ffffff;fill-rule:nonzero;stroke:none"
   id="path1740"
   class="ps016"
   d="m 298.99696,699.54876 2.0564,0 0,1.8642 -2.0564,0 0,5.08011 c 0,0.94812 0.23703,1.17875 1.17874,1.17875 0.3011,0 0.58296,-0.0257 0.87766,-0.077 l 0,2.20373 c -0.47407,0.0705 -1.07625,0.0832 -1.63359,0.0832 -1.72326,0 -3.22871,-0.38437 -3.22871,-2.44075 l 0,-6.02824 -1.69124,0 0,-1.8642 1.69124,0 0,-3.07497 2.8059,0 z" /><path
   style="fill:#ffffff;fill-rule:nonzero;stroke:none"
   id="path1744"
   class="ps016"
   d="m 302.88233,699.54876 2.68419,0 0,1.88982 0.0384,0 c 0.5125,-1.28764 1.88343,-2.1909 3.26077,-2.1909 0.19858,0 0.44201,0.0513 0.61498,0.11534 l 0,2.6009 c -0.24343,-0.064 -0.67264,-0.0897 -1.01217,-0.0897 -2.0564,0 -2.76748,1.46701 -2.76748,3.27996 l 0,4.60607 -2.81872,0 z" /><path
   style="fill:#ffffff;fill-rule:nonzero;stroke:none"
   id="path1748"
   class="ps016"
   d="m 310.42689,704.65321 c 0,3.24154 2.0692,5.39402 5.26589,5.39402 3.24154,0 5.29794,-2.15248 5.29794,-5.39402 0,-3.26715 -2.0564,-5.40683 -5.29794,-5.40683 -3.19669,0 -5.26589,2.13968 -5.26589,5.40683 m 2.80592,0 c 0,-1.63998 0.56375,-3.26715 2.45997,-3.26715 1.92826,0 2.49842,1.62717 2.49842,3.26715 0,1.64 -0.57016,3.26717 -2.49842,3.26717 -1.89622,0 -2.45997,-1.62717 -2.45997,-3.26717" /><path
   style="fill:#b31b2d;fill-rule:nonzero;stroke:none"
   id="path1822"
   class="ps035"
   d="M 384.24227,650.42927 357.54125,510.0311 330.85305,650.42927 z" /><path
   style="fill:#ffffff;fill-rule:nonzero;stroke:none"
   id="path1826"
   class="ps016"
   d="m 331.81653,649.62849 51.45456,0 -25.73367,-135.31164 z m -0.96092,1.59513 -0.78797,-0.94811 26.68181,-140.39816 1.57592,0 26.69461,140.39816 0.0129,0 -0.78797,0.15374 0,0.79435 z" /><path
   style="fill:#b31b2d;fill-rule:nonzero;stroke:none"
   id="path1830"
   class="ps035"
   d="M 701.46102,443.89803 561.06285,417.19702 701.46102,390.50881 z" /><path
   style="fill:#ffffff;fill-rule:nonzero;stroke:none"
   id="path1834"
   class="ps016"
   d="m 565.34219,417.19764 135.31164,25.7337 0,-51.46737 z m -4.42667,0.78157 0,-1.56311 141.33987,-26.86758 0.0129,54.34374 -0.80718,0 -0.14101,0.79437 z" /><path
   style="fill:#b31b2d;fill-rule:nonzero;stroke:none"
   id="path1838"
   class="ps035"
   d="M 384.23587,0.38178752 357.53485,140.77995 330.85305,0.38178752 z" /><path
   style="fill:#ffffff;fill-rule:nonzero;stroke:none"
   id="path1842"
   class="ps016"
   d="m 357.53485,136.49164 25.7401,-135.3116406 -51.46097,0 z m -0.78797,4.42668 -26.86758,-141.34627548 54.35016,0.012812 0,0.79436814 0.78797,0.15374867 L 358.3164,140.91832 z" />
</svg>