<?xml version="1.0" encoding="UTF-8" standalone="no"?>
<!-- Created with Inkscape (http://www.inkscape.org/) -->

<svg
   xmlns:dc="http://purl.org/dc/elements/1.1/"
   xmlns:cc="http://creativecommons.org/ns#"
   xmlns:rdf="http://www.w3.org/1999/02/22-rdf-syntax-ns#"
   xmlns:svg="http://www.w3.org/2000/svg"
   xmlns="http://www.w3.org/2000/svg"
   xmlns:xlink="http://www.w3.org/1999/xlink"
   xmlns:sodipodi="http://sodipodi.sourceforge.net/DTD/sodipodi-0.dtd"
   xmlns:inkscape="http://www.inkscape.org/namespaces/inkscape"
   width="48"
   height="48"
   id="svg2816"
   version="1.1"
   inkscape:version="0.47 r22583"
   sodipodi:docname="svg4mobile.svg"
   inkscape:export-filename="/home/alvaro/projects/svg4mobile/svg4mobile/res/drawable/icon.png"
   inkscape:export-xdpi="90"
   inkscape:export-ydpi="90">
  <sodipodi:namedview
     id="base"
     pagecolor="#ffffff"
     bordercolor="#666666"
     borderopacity="1.0"
     inkscape:pageopacity="0.0"
     inkscape:pageshadow="2"
     inkscape:zoom="5.5"
     inkscape:cx="55.718513"
     inkscape:cy="37.550961"
     inkscape:current-layer="layer1"
     showgrid="true"
     inkscape:document-units="px"
     inkscape:grid-bbox="true"
     inkscape:window-width="1280"
     inkscape:window-height="739"
     inkscape:window-x="-4"
     inkscape:window-y="36"
     inkscape:window-maximized="1" />
  <defs
     id="defs2818">
    <inkscape:path-effect
       effect="skeletal"
       id="path-effect2926"
       is_visible="true"
       pattern="M 0,0 0,10 10,5 z"
       copytype="single_stretched"
       prop_scale="1"
       scale_y_rel="false"
       spacing="0"
       normal_offset="0"
       tang_offset="0"
       prop_units="false"
       vertical_pattern="false"
       fuse_tolerance="0" />
    <inkscape:path-effect
       effect="skeletal"
       id="path-effect2922"
       is_visible="true"
       pattern="M 0,0 0,10 10,5 z"
       copytype="single_stretched"
       prop_scale="1"
       scale_y_rel="false"
       spacing="0"
       normal_offset="0"
       tang_offset="0"
       prop_units="false"
       vertical_pattern="false"
       fuse_tolerance="0" />
    <inkscape:path-effect
       effect="skeletal"
       id="path-effect2918"
       is_visible="true"
       pattern="M 0,0 0,10 10,5 z"
       copytype="single_stretched"
       prop_scale="1"
       scale_y_rel="false"
       spacing="0"
       normal_offset="0"
       tang_offset="0"
       prop_units="false"
       vertical_pattern="false"
       fuse_tolerance="0" />
    <inkscape:perspective
       sodipodi:type="inkscape:persp3d"
       inkscape:vp_x="12.90909 : 97.272727 : 1"
       inkscape:vp_y="0 : 1000 : 0"
       inkscape:vp_z="-66.54545 : 94.363636 : 1"
       inkscape:persp3d-origin="-92.363636 : 83.696969 : 1"
       id="perspective2824" />
    <radialGradient
       gradientUnits="userSpaceOnUse"
       id="aigrd3"
       fy="64.567902"
       fx="20.892099"
       r="5.257"
       cy="64.567902"
       cx="20.892099">
      <stop
         id="stop15573"
         offset="0.00000000"
         style="stop-color: rgb(240, 240, 240); stop-opacity: 1;" />
      <stop
         id="stop15575"
         offset="1.0000000"
         style="stop-color: rgb(154, 154, 154); stop-opacity: 1;" />
    </radialGradient>
    <radialGradient
       gradientUnits="userSpaceOnUse"
       id="aigrd2"
       fy="114.5684"
       fx="20.892099"
       r="5.256"
       cy="114.5684"
       cx="20.892099">
      <stop
         id="stop15566"
         offset="0.00000000"
         style="stop-color: rgb(240, 240, 240); stop-opacity: 1;" />
      <stop
         id="stop15568"
         offset="1.0000000"
         style="stop-color: rgb(154, 154, 154); stop-opacity: 1;" />
    </radialGradient>
    <linearGradient
       id="linearGradient15662">
      <stop
         id="stop15664"
         offset="0.00000000"
         style="stop-color: rgb(255, 255, 255); stop-opacity: 1;" />
      <stop
         id="stop15666"
         offset="1.0000000"
         style="stop-color: rgb(248, 248, 248); stop-opacity: 1;" />
    </linearGradient>
    <linearGradient
       id="linearGradient269">
      <stop
         id="stop270"
         offset="0.00000000"
         style="stop-color: rgb(163, 163, 163); stop-opacity: 1;" />
      <stop
         id="stop271"
         offset="1.0000000"
         style="stop-color: rgb(76, 76, 76); stop-opacity: 1;" />
    </linearGradient>
    <linearGradient
       id="linearGradient259">
      <stop
         id="stop260"
         offset="0.00000000"
         style="stop-color: rgb(250, 250, 250); stop-opacity: 1;" />
      <stop
         id="stop261"
         offset="1.0000000"
         style="stop-color: rgb(187, 187, 187); stop-opacity: 1;" />
    </linearGradient>
    <linearGradient
       id="linearGradient2201">
      <stop
         id="stop2202"
         offset="0.00000000"
         style="stop-color: rgb(203, 203, 202); stop-opacity: 1;" />
      <stop
         id="stop2203"
         offset="1.0000000"
         style="stop-color: rgb(255, 255, 255); stop-opacity: 1;" />
    </linearGradient>
    <linearGradient
       xlink:href="#linearGradient1492"
       id="linearGradient1497"
       y2="-24.502316"
       x2="-6.6967444"
       y1="-66.618385"
       x1="35.779293"
       gradientTransform="scale(0.95529274,1.0467995)"
       gradientUnits="userSpaceOnUse" />
    <linearGradient
       id="linearGradient1492">
      <stop
         id="stop1493"
         offset="0.00000000"
         style="stop-color: rgb(218, 218, 218); stop-opacity: 1;" />
      <stop
         id="stop1496"
         offset="0.34923077"
         style="stop-color: rgb(241, 241, 241); stop-opacity: 1;" />
      <stop
         id="stop1494"
         offset="1.0000000"
         style="stop-color: rgb(240, 240, 240); stop-opacity: 1;" />
    </linearGradient>
    <linearGradient
       xlink:href="#linearGradient1492"
       id="linearGradient1495"
       y2="118.64621"
       x2="-102.34526"
       y1="-45.04985"
       x1="31.96946"
       gradientTransform="scale(0.95542505,1.0466546)"
       gradientUnits="userSpaceOnUse" />
    <linearGradient
       id="linearGradient1501">
      <stop
         id="stop1502"
         offset="0.00000000"
         style="stop-color: rgb(255, 255, 255); stop-opacity: 1;" />
      <stop
         id="stop1504"
         offset="1.0000000"
         style="stop-color: rgb(255, 255, 255); stop-opacity: 0;" />
    </linearGradient>
    <linearGradient
       xlink:href="#linearGradient1501"
       id="linearGradient1499"
       y2="16.04719"
       x2="-99.69474"
       y1="-159.7816"
       x1="139.17482"
       gradientTransform="scale(0.98900926,1.0111129)"
       gradientUnits="userSpaceOnUse" />
    <linearGradient
       id="linearGradient1507">
      <stop
         id="stop1508"
         offset="0.00000000"
         style="stop-color: rgb(0, 0, 0); stop-opacity: 0.0955056;" />
      <stop
         id="stop1510"
         offset="1.0000000"
         style="stop-color: rgb(0, 0, 0); stop-opacity: 0;" />
    </linearGradient>
    <linearGradient
       xlink:href="#linearGradient1507"
       id="linearGradient1506"
       y2="-78.26239"
       x2="21.326496"
       y1="87.607544"
       x1="-103.73897"
       gradientTransform="scale(0.95510779,1.0470022)"
       gradientUnits="userSpaceOnUse" />
    <linearGradient
       id="linearGradient3264">
      <stop
         id="stop3266"
         offset="0.00000000"
         style="stop-color: rgb(201, 201, 201); stop-opacity: 1;" />
      <stop
         id="stop3276"
         offset="0.25000000"
         style="stop-color: rgb(248, 248, 248); stop-opacity: 1;" />
      <stop
         id="stop3272"
         offset="0.50000000"
         style="stop-color: rgb(226, 226, 226); stop-opacity: 1;" />
      <stop
         id="stop3274"
         offset="0.75000000"
         style="stop-color: rgb(59, 59, 59); stop-opacity: 1;" />
      <stop
         id="stop3268"
         offset="1.0000000"
         style="stop-color: rgb(201, 201, 201); stop-opacity: 1;" />
    </linearGradient>
    <linearGradient
       gradientUnits="userSpaceOnUse"
       id="aigrd1"
       y2="248.6311"
       x2="153.0005"
       y1="15.4238"
       x1="99.777298">
      <stop
         id="stop53300"
         offset="0.00000000"
         style="stop-color: rgb(24, 67, 117); stop-opacity: 1;" />
      <stop
         id="stop53302"
         offset="1.0000000"
         style="stop-color: rgb(200, 189, 220); stop-opacity: 1;" />
    </linearGradient>
    <inkscape:perspective
       id="perspective101"
       inkscape:persp3d-origin="137.5 : 104.16667 : 1"
       inkscape:vp_z="275 : 156.25 : 1"
       inkscape:vp_y="0 : 1000 : 0"
       inkscape:vp_x="0 : 156.25 : 1"
       sodipodi:type="inkscape:persp3d" />
    <inkscape:perspective
       id="perspective3105"
       inkscape:persp3d-origin="0.5 : 0.33333333 : 1"
       inkscape:vp_z="1 : 0.5 : 1"
       inkscape:vp_y="0 : 1000 : 0"
       inkscape:vp_x="0 : 0.5 : 1"
       sodipodi:type="inkscape:persp3d" />
    <inkscape:perspective
       id="perspective3119"
       inkscape:persp3d-origin="0.5 : 0.33333333 : 1"
       inkscape:vp_z="1 : 0.5 : 1"
       inkscape:vp_y="0 : 1000 : 0"
       inkscape:vp_x="0 : 0.5 : 1"
       sodipodi:type="inkscape:persp3d" />
    <inkscape:perspective
       id="perspective3218"
       inkscape:persp3d-origin="802.85712 : 1114.6235 : 1"
       inkscape:vp_z="1605.7142 : 1671.9353 : 1"
       inkscape:vp_y="0 : 1000 : 0"
       inkscape:vp_x="0 : 1671.9353 : 1"
       sodipodi:type="inkscape:persp3d" />
    <inkscape:perspective
       id="perspective3247"
       inkscape:persp3d-origin="0.5 : 0.33333333 : 1"
       inkscape:vp_z="1 : 0.5 : 1"
       inkscape:vp_y="0 : 1000 : 0"
       inkscape:vp_x="0 : 0.5 : 1"
       sodipodi:type="inkscape:persp3d" />
    <inkscape:perspective
       id="perspective3431"
       inkscape:persp3d-origin="0.5 : 0.33333333 : 1"
       inkscape:vp_z="1 : 0.5 : 1"
       inkscape:vp_y="0 : 1000 : 0"
       inkscape:vp_x="0 : 0.5 : 1"
       sodipodi:type="inkscape:persp3d" />
    <inkscape:perspective
       id="perspective2974"
       inkscape:persp3d-origin="0.5 : 0.33333333 : 1"
       inkscape:vp_z="1 : 0.5 : 1"
       inkscape:vp_y="0 : 1000 : 0"
       inkscape:vp_x="0 : 0.5 : 1"
       sodipodi:type="inkscape:persp3d" />
  </defs>
  <metadata
     id="metadata2821">
    <rdf:RDF>
      <cc:Work
         rdf:about="">
        <dc:format>image/svg+xml</dc:format>
        <dc:type
           rdf:resource="http://purl.org/dc/dcmitype/StillImage" />
        <dc:title></dc:title>
      </cc:Work>
    </rdf:RDF>
  </metadata>
  <g
     id="layer1"
     inkscape:label="Layer 1"
     inkscape:groupmode="layer"
     transform="translate(0,-16)">
    <flowRoot
       xml:space="preserve"
       id="flowRoot3381"
       style="font-size:12px;font-style:normal;font-weight:normal;fill:#000000;fill-opacity:1;stroke:none;font-family:Bitstream Vera Sans"><flowRegion
         id="flowRegion3383"><rect
           id="rect3385"
           width="35.090908"
           height="61.272728"
           x="27.454546"
           y="2.1818182" /></flowRegion><flowPara
         id="flowPara3387">svg4mobile</flowPara></flowRoot>    <g
       id="g3341"
       transform="matrix(0.56101185,0,0,0.56101185,-6.4234218,25.612115)">
      <rect
         ry="0"
         y="4.6742325"
         x="-43.967606"
         height="58.982376"
         width="28.832872"
         id="rect1872"
         style="fill:#000000;fill-opacity:1;stroke:#000000;stroke-width:0.97074187;stroke-linecap:round;stroke-linejoin:miter;stroke-miterlimit:4;stroke-opacity:1;stroke-dasharray:none" />
      <path
         transform="matrix(0.01856097,0,0,0.01856097,-43.120312,17.86157)"
         d="m 476.49244,1351.1498 c 0,61.2837 -49.68027,110.964 -110.964,110.964 -61.28372,0 -110.96399,-49.6803 -110.96399,-110.964 0,-61.2837 49.68027,-110.964 110.96399,-110.964 61.28373,0 110.964,49.6803 110.964,110.964 z"
         sodipodi:ry="110.964"
         sodipodi:rx="110.964"
         sodipodi:cy="1351.1498"
         sodipodi:cx="365.52844"
         id="path3647"
         style="fill:#9b9b9b;fill-opacity:1;stroke:none"
         sodipodi:type="arc" />
      <path
         transform="matrix(0.01856097,0,0,0.01856097,-43.120312,23.434687)"
         d="m 476.49244,1351.1498 c 0,61.2837 -49.68027,110.964 -110.964,110.964 -61.28372,0 -110.96399,-49.6803 -110.96399,-110.964 0,-61.2837 49.68027,-110.964 110.96399,-110.964 61.28373,0 110.964,49.6803 110.964,110.964 z"
         sodipodi:ry="110.964"
         sodipodi:rx="110.964"
         sodipodi:cy="1351.1498"
         sodipodi:cx="365.52844"
         id="path3649"
         style="fill:#9b9b9b;fill-opacity:1;stroke:none"
         sodipodi:type="arc" />
      <path
         transform="matrix(0.01856097,0,0,0.01856097,-43.120312,29.007655)"
         d="m 476.49244,1351.1498 c 0,61.2837 -49.68027,110.964 -110.964,110.964 -61.28372,0 -110.96399,-49.6803 -110.96399,-110.964 0,-61.2837 49.68027,-110.964 110.96399,-110.964 61.28373,0 110.964,49.6803 110.964,110.964 z"
         sodipodi:ry="110.964"
         sodipodi:rx="110.964"
         sodipodi:cy="1351.1498"
         sodipodi:cx="365.52844"
         id="path3651"
         style="fill:#9b9b9b;fill-opacity:1;stroke:none"
         sodipodi:type="arc" />
      <path
         transform="matrix(0.01856097,0,0,0.01856097,-43.120312,34.580679)"
         d="m 476.49244,1351.1498 c 0,61.2837 -49.68027,110.964 -110.964,110.964 -61.28372,0 -110.96399,-49.6803 -110.96399,-110.964 0,-61.2837 49.68027,-110.964 110.96399,-110.964 61.28373,0 110.964,49.6803 110.964,110.964 z"
         sodipodi:ry="110.964"
         sodipodi:rx="110.964"
         sodipodi:cy="1351.1498"
         sodipodi:cx="365.52844"
         id="path3653"
         style="fill:#9b9b9b;fill-opacity:1;stroke:none"
         sodipodi:type="arc" />
      <path
         transform="matrix(0.01856097,0,0,0.01856097,-36.335739,17.86157)"
         d="m 476.49244,1351.1498 c 0,61.2837 -49.68027,110.964 -110.964,110.964 -61.28372,0 -110.96399,-49.6803 -110.96399,-110.964 0,-61.2837 49.68027,-110.964 110.96399,-110.964 61.28373,0 110.964,49.6803 110.964,110.964 z"
         sodipodi:ry="110.964"
         sodipodi:rx="110.964"
         sodipodi:cy="1351.1498"
         sodipodi:cx="365.52844"
         id="path3655"
         style="fill:#9b9b9b;fill-opacity:1;stroke:none"
         sodipodi:type="arc" />
      <path
         transform="matrix(0.01856097,0,0,0.01856097,-36.335739,23.434687)"
         d="m 476.49244,1351.1498 c 0,61.2837 -49.68027,110.964 -110.964,110.964 -61.28372,0 -110.96399,-49.6803 -110.96399,-110.964 0,-61.2837 49.68027,-110.964 110.96399,-110.964 61.28373,0 110.964,49.6803 110.964,110.964 z"
         sodipodi:ry="110.964"
         sodipodi:rx="110.964"
         sodipodi:cy="1351.1498"
         sodipodi:cx="365.52844"
         id="path3657"
         style="fill:#9b9b9b;fill-opacity:1;stroke:none"
         sodipodi:type="arc" />
      <path
         transform="matrix(0.01856097,0,0,0.01856097,-36.335739,29.007655)"
         d="m 476.49244,1351.1498 c 0,61.2837 -49.68027,110.964 -110.964,110.964 -61.28372,0 -110.96399,-49.6803 -110.96399,-110.964 0,-61.2837 49.68027,-110.964 110.96399,-110.964 61.28373,0 110.964,49.6803 110.964,110.964 z"
         sodipodi:ry="110.964"
         sodipodi:rx="110.964"
         sodipodi:cy="1351.1498"
         sodipodi:cx="365.52844"
         id="path3659"
         style="fill:#9b9b9b;fill-opacity:1;stroke:none"
         sodipodi:type="arc" />
      <path
         transform="matrix(0.01856097,0,0,0.01856097,-36.335739,34.580679)"
         d="m 476.49244,1351.1498 c 0,61.2837 -49.68027,110.964 -110.964,110.964 -61.28372,0 -110.96399,-49.6803 -110.96399,-110.964 0,-61.2837 49.68027,-110.964 110.96399,-110.964 61.28373,0 110.964,49.6803 110.964,110.964 z"
         sodipodi:ry="110.964"
         sodipodi:rx="110.964"
         sodipodi:cy="1351.1498"
         sodipodi:cx="365.52844"
         id="path3661"
         style="fill:#9b9b9b;fill-opacity:1;stroke:none"
         sodipodi:type="arc" />
      <path
         transform="matrix(0.01856097,0,0,0.01856097,-29.55117,17.86157)"
         d="m 476.49244,1351.1498 c 0,61.2837 -49.68027,110.964 -110.964,110.964 -61.28372,0 -110.96399,-49.6803 -110.96399,-110.964 0,-61.2837 49.68027,-110.964 110.96399,-110.964 61.28373,0 110.964,49.6803 110.964,110.964 z"
         sodipodi:ry="110.964"
         sodipodi:rx="110.964"
         sodipodi:cy="1351.1498"
         sodipodi:cx="365.52844"
         id="path3663"
         style="fill:#9b9b9b;fill-opacity:1;stroke:none"
         sodipodi:type="arc" />
      <path
         transform="matrix(0.01856097,0,0,0.01856097,-29.55117,23.434687)"
         d="m 476.49244,1351.1498 c 0,61.2837 -49.68027,110.964 -110.964,110.964 -61.28372,0 -110.96399,-49.6803 -110.96399,-110.964 0,-61.2837 49.68027,-110.964 110.96399,-110.964 61.28373,0 110.964,49.6803 110.964,110.964 z"
         sodipodi:ry="110.964"
         sodipodi:rx="110.964"
         sodipodi:cy="1351.1498"
         sodipodi:cx="365.52844"
         id="path3665"
         style="fill:#9b9b9b;fill-opacity:1;stroke:none"
         sodipodi:type="arc" />
      <path
         transform="matrix(0.01856097,0,0,0.01856097,-29.551165,29.007655)"
         d="m 476.49244,1351.1498 c 0,61.2837 -49.68027,110.964 -110.964,110.964 -61.28372,0 -110.96399,-49.6803 -110.96399,-110.964 0,-61.2837 49.68027,-110.964 110.96399,-110.964 61.28373,0 110.964,49.6803 110.964,110.964 z"
         sodipodi:ry="110.964"
         sodipodi:rx="110.964"
         sodipodi:cy="1351.1498"
         sodipodi:cx="365.52844"
         id="path3667"
         style="fill:#9b9b9b;fill-opacity:1;stroke:none"
         sodipodi:type="arc" />
      <path
         transform="matrix(0.01856097,0,0,0.01856097,-29.551165,34.580679)"
         d="m 476.49244,1351.1498 c 0,61.2837 -49.68027,110.964 -110.964,110.964 -61.28372,0 -110.96399,-49.6803 -110.96399,-110.964 0,-61.2837 49.68027,-110.964 110.96399,-110.964 61.28373,0 110.964,49.6803 110.964,110.964 z"
         sodipodi:ry="110.964"
         sodipodi:rx="110.964"
         sodipodi:cy="1351.1498"
         sodipodi:cx="365.52844"
         id="path3669"
         style="fill:#9b9b9b;fill-opacity:1;stroke:none"
         sodipodi:type="arc" />
      <path
         transform="matrix(0.02292818,0,0,0.02292818,-47.50549,6.1453287)"
         d="m 476.49244,1351.1498 c 0,61.2837 -49.68027,110.964 -110.964,110.964 -61.28372,0 -110.96399,-49.6803 -110.96399,-110.964 0,-61.2837 49.68027,-110.964 110.96399,-110.964 61.28373,0 110.964,49.6803 110.964,110.964 z"
         sodipodi:ry="110.964"
         sodipodi:rx="110.964"
         sodipodi:cy="1351.1498"
         sodipodi:cx="365.52844"
         id="path3671"
         style="fill:#18960c;fill-opacity:1;stroke:none"
         sodipodi:type="arc" />
      <path
         transform="matrix(0.02292818,0,0,0.02292818,-28.358648,6.1453287)"
         d="m 476.49244,1351.1498 c 0,61.2837 -49.68027,110.964 -110.964,110.964 -61.28372,0 -110.96399,-49.6803 -110.96399,-110.964 0,-61.2837 49.68027,-110.964 110.96399,-110.964 61.28373,0 110.964,49.6803 110.964,110.964 z"
         sodipodi:ry="110.964"
         sodipodi:rx="110.964"
         sodipodi:cy="1351.1498"
         sodipodi:cx="365.52844"
         id="path4558"
         style="fill:#960c12;fill-opacity:1;stroke:none"
         sodipodi:type="arc" />
      <rect
         y="-17.450615"
         x="-44.389847"
         height="21.726332"
         width="7.1088142"
         id="rect5445"
         style="fill:#000000;fill-opacity:1;stroke:none" />
      <g
         id="layer1-2"
         transform="matrix(0.03687237,0,0,0.03687237,-45.771072,1.0580923)">
        <g
           id="_189263792"
           style="fill-rule:evenodd"
           transform="matrix(4.67501,0,0,4.67501,-1353.75,-678.433)">
          <rect
             id="_151141056"
             style="fill:#ff9900"
             y="180.991"
             x="315.48599"
             height="136.42599"
             width="136.42599" />
          <rect
             id="_151140504"
             style="fill:#de8500"
             y="249.205"
             x="383.69699"
             height="68.003899"
             width="68.215401" />
          <rect
             id="_151140120"
             style="fill:#ffb13b"
             y="180.99001"
             x="315.487"
             height="68.215401"
             width="68.215401" />
          <g
             id="g107">
            <circle
               id="_151139416"
               style="fill:#ff9900"
               r="25.0634"
               cy="249.099"
               cx="340.75699"
               sodipodi:cx="340.75699"
               sodipodi:cy="249.099"
               sodipodi:rx="25.0634"
               sodipodi:ry="25.0634"
               d="m 365.82039,249.099 c 0,13.84213 -11.22127,25.0634 -25.0634,25.0634 -13.84214,0 -25.0634,-11.22127 -25.0634,-25.0634 0,-13.84213 11.22126,-25.0634 25.0634,-25.0634 13.84213,0 25.0634,11.22127 25.0634,25.0634 z" />
            <circle
               id="_151137016"
               style="fill:#ff9900"
               transform="matrix(0.0106858,0.0106858,-0.0106858,0.0106858,353.365,218.661)"
               r="1658.51"
               cy="0"
               cx="0"
               sodipodi:cx="0"
               sodipodi:cy="0"
               sodipodi:rx="1658.51"
               sodipodi:ry="1658.51"
               d="M 1658.51,0 C 1658.51,915.96979 915.96979,1658.51 0,1658.51 -915.96979,1658.51 -1658.51,915.96979 -1658.51,0 c 0,-915.96979 742.54021,-1658.51 1658.51,-1658.51 915.96979,0 1658.51,742.54021 1658.51,1658.51 z" />
            <circle
               id="_151136448"
               style="fill:#ff9900"
               transform="matrix(0,0.015112,-0.015112,0,383.803,206.053)"
               r="1658.51"
               cy="0"
               cx="0"
               sodipodi:cx="0"
               sodipodi:cy="0"
               sodipodi:rx="1658.51"
               sodipodi:ry="1658.51"
               d="M 1658.51,0 C 1658.51,915.96979 915.96979,1658.51 0,1658.51 -915.96979,1658.51 -1658.51,915.96979 -1658.51,0 c 0,-915.96979 742.54021,-1658.51 1658.51,-1658.51 915.96979,0 1658.51,742.54021 1658.51,1658.51 z" />
            <circle
               id="_151135880"
               style="fill:#ff9900"
               transform="matrix(-0.0106858,0.0106858,-0.0106858,-0.0106858,414.241,218.661)"
               r="1658.51"
               cy="0"
               cx="0"
               sodipodi:cx="0"
               sodipodi:cy="0"
               sodipodi:rx="1658.51"
               sodipodi:ry="1658.51"
               d="M 1658.51,0 C 1658.51,915.96979 915.96979,1658.51 0,1658.51 -915.96979,1658.51 -1658.51,915.96979 -1658.51,0 c 0,-915.96979 742.54021,-1658.51 1658.51,-1658.51 915.96979,0 1658.51,742.54021 1658.51,1658.51 z" />
            <circle
               id="_151135312"
               style="fill:#ff9900"
               r="25.0634"
               cy="249.099"
               cx="426.849"
               sodipodi:cx="426.849"
               sodipodi:cy="249.099"
               sodipodi:rx="25.0634"
               sodipodi:ry="25.0634"
               d="m 451.9124,249.099 c 0,13.84213 -11.22127,25.0634 -25.0634,25.0634 -13.84213,0 -25.0634,-11.22127 -25.0634,-25.0634 0,-13.84213 11.22127,-25.0634 25.0634,-25.0634 13.84213,0 25.0634,11.22127 25.0634,25.0634 z" />
            <circle
               id="_151134744"
               style="fill:#ff9900"
               transform="matrix(-0.0106858,-0.0106858,0.0106858,-0.0106858,414.241,279.538)"
               r="1658.51"
               cy="0"
               cx="0"
               sodipodi:cx="0"
               sodipodi:cy="0"
               sodipodi:rx="1658.51"
               sodipodi:ry="1658.51"
               d="M 1658.51,0 C 1658.51,915.96979 915.96979,1658.51 0,1658.51 -915.96979,1658.51 -1658.51,915.96979 -1658.51,0 c 0,-915.96979 742.54021,-1658.51 1658.51,-1658.51 915.96979,0 1658.51,742.54021 1658.51,1658.51 z" />
            <circle
               id="_151134176"
               style="fill:#ff9900"
               transform="matrix(0,-0.015112,0.015112,0,383.803,292.146)"
               r="1658.51"
               cy="0"
               cx="0"
               sodipodi:cx="0"
               sodipodi:cy="0"
               sodipodi:rx="1658.51"
               sodipodi:ry="1658.51"
               d="M 1658.51,0 C 1658.51,915.96979 915.96979,1658.51 0,1658.51 -915.96979,1658.51 -1658.51,915.96979 -1658.51,0 c 0,-915.96979 742.54021,-1658.51 1658.51,-1658.51 915.96979,0 1658.51,742.54021 1658.51,1658.51 z" />
            <circle
               id="_151038344"
               style="fill:#ff9900"
               transform="matrix(0.0106858,-0.0106858,0.0106858,0.0106858,353.365,279.538)"
               r="1658.51"
               cy="0"
               cx="0"
               sodipodi:cx="0"
               sodipodi:cy="0"
               sodipodi:rx="1658.51"
               sodipodi:ry="1658.51"
               d="M 1658.51,0 C 1658.51,915.96979 915.96979,1658.51 0,1658.51 -915.96979,1658.51 -1658.51,915.96979 -1658.51,0 c 0,-915.96979 742.54021,-1658.51 1658.51,-1658.51 915.96979,0 1658.51,742.54021 1658.51,1658.51 z" />
          </g>
          <path
             id="_151038768"
             style="fill:#000000"
             d="m 401.634,206.051 c 0,-9.84433 -7.98625,-17.8306 -17.8306,-17.8306 -9.84433,0 -17.8306,7.98625 -17.8306,17.8306 -6.96405,-6.95901 -18.2536,-6.95901 -25.2176,0 -6.95901,6.96405 -6.95901,18.2536 0,25.2176 -9.84433,0 -17.8306,7.98625 -17.8306,17.8306 0,9.84433 7.98625,17.8306 17.8306,17.8306 -6.95901,6.96405 -6.95901,18.2536 0,25.2176 6.96405,6.95901 18.2536,6.95901 25.2176,0 0,9.84433 7.98625,17.8306 17.8306,17.8306 9.84433,0 17.8306,-7.98625 17.8306,-17.8306 6.96405,6.95901 18.2536,6.95901 25.2176,0 6.95901,-6.96405 6.95901,-18.2536 0,-25.2176 9.84433,0 17.8255,-7.98625 17.8255,-17.8306 0,-9.84433 -7.98121,-17.8306 -17.8255,-17.8306 6.95901,-6.96405 6.95901,-18.2536 0,-25.2176 -6.96405,-6.95901 -18.2536,-6.95901 -25.2176,0 z" />
          <path
             id="_151037224"
             style="fill:#ffffff"
             d="m 390.626,212.879 0,19.7441 13.9633,-13.9633 c 0,-2.46738 0.94163,-4.93979 2.8249,-6.82305 3.77156,-3.77156 9.88462,-3.77156 13.6511,0 3.77156,3.76653 3.77156,9.87958 0,13.6511 -1.88326,1.88326 -4.35568,2.8249 -6.82305,2.8249 l -13.9633,13.9633 19.7441,0 c 1.74731,-1.74731 4.15929,-2.82993 6.82809,-2.82993 5.32752,0 9.64795,4.32546 9.64795,9.65298 0,5.32752 -4.32043,9.65298 -9.64795,9.65298 -2.6688,0 -5.08078,-1.08262 -6.82809,-2.82993 l -19.7441,0 13.9633,13.9633 c 2.46738,0 4.93979,0.94163 6.82305,2.8249 3.77156,3.77156 3.77156,9.88462 0,13.6511 -3.76653,3.77156 -9.87958,3.77156 -13.6511,0 -1.88326,-1.88326 -2.8249,-4.35568 -2.8249,-6.82305 l -13.9633,-13.9633 0,19.7441 c 1.74731,1.74731 2.82993,4.15929 2.82993,6.82809 0,5.32752 -4.32546,9.64795 -9.65298,9.64795 -5.32752,0 -9.65298,-4.32043 -9.65298,-9.64795 0,-2.6688 1.08262,-5.08078 2.82993,-6.82809 l 0,-19.7441 -13.9633,13.9633 c 0,2.46738 -0.94163,4.93979 -2.8249,6.82305 -3.77156,3.77156 -9.88462,3.77156 -13.6511,0 -3.77156,-3.76653 -3.77156,-9.87958 0,-13.6511 1.88326,-1.88326 4.35568,-2.8249 6.82305,-2.8249 l 13.9633,-13.9633 -19.7441,0 c -1.74731,1.74731 -4.15929,2.82993 -6.82809,2.82993 -5.32752,0 -9.64795,-4.32546 -9.64795,-9.65298 0,-5.32752 4.32043,-9.65298 9.64795,-9.65298 2.6688,0 5.08078,1.08262 6.82809,2.82993 l 19.7441,0 -13.9633,-13.9633 c -2.46738,0 -4.93979,-0.94163 -6.82305,-2.8249 -3.77156,-3.77156 -3.77156,-9.88462 0,-13.6511 3.76653,-3.77156 9.87958,-3.77156 13.6511,0 1.88326,1.88326 2.8249,4.35568 2.8249,6.82305 l 13.9633,13.9633 0,-19.7441 c -1.74731,-1.74731 -2.82993,-4.15929 -2.82993,-6.82809 0,-5.32752 4.32546,-9.64795 9.65298,-9.64795 5.32752,0 9.65298,4.32043 9.65298,9.64795 0,2.6688 -1.08262,5.08078 -2.82993,6.82809 z" />
          <rect
             id="_151036536"
             style="fill:#000000"
             y="249.203"
             x="322.92899"
             height="60.770401"
             width="121.742" />
          <rect
             id="_151035984"
             style="fill:#000000"
             y="283.30499"
             x="322.92899"
             height="26.6689"
             width="121.742" />
          <path
             id="_151164400"
             style="fill:#3f3f3f"
             d="m 335.689,254.84 97.2147,0 c 3.98305,0 7.23596,3.25291 7.23596,7.23596 l 0,24.4069 c -37.5696,-4.64773 -74.8169,-11.073 -111.687,-10.4788 l 0,-13.9281 c 0,-3.98305 3.25291,-7.23596 7.23596,-7.23596 l 3.8e-4,0 z" />
          <polygon
             id="_151164136"
             style="fill:#ffffff;stroke:#000000;stroke-width:0.503546"
             points="377.111,253.198 383.697,284.992 390.279,253.198 399.594,253.198 399.594,253.198 388.355,307.481 379.04,307.481 367.795,253.198 " />
          <path
             id="_151163752"
             style="fill:#ffffff;stroke:#000000;stroke-width:0.503546"
             d="m 415.496,275.682 15.902,0 0,15.897 0,0 c 0,8.78185 -7.12015,15.902 -15.897,15.902 -8.78185,0 -15.902,-7.12015 -15.902,-15.902 l 0,0 0,-22.4833 -0.005,0 c 0,-8.77681 7.12015,-15.897 15.902,-15.897 8.78185,0 15.902,7.12015 15.902,15.897 l -9.31561,0 c 0,-3.63561 -2.95078,-6.58135 -6.58639,-6.58135 -3.63561,0 -6.58135,2.94575 -6.58135,6.58135 l 0,22.4833 0,0 c 0,3.63561 2.94575,6.58639 6.58135,6.58639 3.63561,0 6.58639,-2.95078 6.58639,-6.58135 l 0,-0.005 0,-6.58135 -6.58639,0 0,-9.31561 4e-5,-4e-5 z" />
          <path
             id="_151162704"
             style="fill:#ffffff;stroke:#000000;stroke-width:0.503546"
             d="m 340.654,280.339 c -2.87525,-2.88029 -4.6578,-6.85327 -4.6578,-11.2442 0,-8.78185 7.12015,-15.897 15.902,-15.897 8.77681,0 15.897,7.11511 15.897,15.897 l -9.31057,0 c 0,-3.63561 -2.95078,-6.58639 -6.58639,-6.58639 -3.63561,0 -6.58639,2.95078 -6.58639,6.58639 0,1.8178 0.73518,3.45936 1.92355,4.65277 l 0.005,0 c 1.1934,1.1934 2.84,1.92858 4.6578,1.92858 l 0,0.005 c 4.39092,0 8.36391,1.77752 11.2392,4.6578 l 0,0 c 2.88029,2.87525 4.6578,6.85327 4.6578,11.2392 0,8.78185 -7.12015,15.902 -15.897,15.902 -8.78185,0 -15.902,-7.12015 -15.902,-15.902 l 9.31561,0 c 0,3.64064 2.95078,6.58639 6.58639,6.58639 3.63561,0 6.58639,-2.94575 6.58639,-6.58639 0,-1.81277 -0.73518,-3.45936 -1.92858,-4.65277 l 0,0 c -1.1934,-1.18837 -2.84,-1.92858 -4.6578,-1.92858 l 0,0 c -4.39092,0 -8.36391,-1.78255 -11.2442,-4.6578 l 0,0 -5e-5,-4e-5 z" />
        </g>
      </g>
    </g>
    <path
       style="fill:#ffd700;stroke:#000000;stroke-width:0.56649393px;stroke-linecap:butt;stroke-linejoin:miter;stroke-opacity:1"
       d="m 59.124015,28.242861 33.300251,-0.33107 10.776204,25.271855 -44.741826,-1.326485 0.665371,-23.6143 z"
       id="path3401-7"
       sodipodi:nodetypes="ccccc" />
    <g
       sodipodi:type="inkscape:box3d"
       style="fill:#696969;fill-opacity:1;fill-rule:nonzero;stroke:#454545;stroke-width:3;stroke-linecap:round;stroke-linejoin:bevel;stroke-miterlimit:4;stroke-opacity:1;stroke-dasharray:none"
       id="g3533"
       inkscape:perspectiveID="#perspective2824"
       inkscape:corner0="-3.608972 : 0.060586667 : 0 : 1"
       inkscape:corner7="-3.5399803 : -0.012281897 : -1.6389508 : 1">
      <path
         sodipodi:type="inkscape:box3dside"
         id="path3543"
         style="fill:#afafde;fill-rule:evenodd;stroke:none"
         inkscape:box3dsidetype="13"
         d="m 53.259361,-43.183778 1.096006,-0.269207 -47.4165491,5.133561 0.096965,0.08196 z" />
      <path
         sodipodi:type="inkscape:box3dside"
         id="path3535"
         style="fill:#353564;fill-rule:evenodd;stroke:none"
         inkscape:box3dsidetype="6"
         d="m 53.259361,-15.253787 0,-27.929991 -46.2235783,4.946319 0,17.153929 z" />
      <path
         sodipodi:type="inkscape:box3dside"
         id="path3539"
         style="fill:#8686bf;fill-rule:evenodd;stroke:none"
         inkscape:box3dsidetype="3"
         d="m 53.259361,-15.253787 1.096006,0.489435 0,-28.688633 -1.096006,0.269207 z" />
      <path
         sodipodi:type="inkscape:box3dside"
         id="path3537"
         style="fill:#4d4d9f;fill-rule:evenodd;stroke:none"
         inkscape:box3dsidetype="5"
         d="m 53.259361,-15.253787 1.096006,0.489435 -47.4165491,-6.117942 0.096965,-0.201236 z" />
      <path
         sodipodi:type="inkscape:box3dside"
         id="path3541"
         style="fill:#d7d7ff;fill-rule:evenodd;stroke:none"
         inkscape:box3dsidetype="14"
         d="m 54.355367,-14.764352 0,-28.688633 -47.4165491,5.133561 0,17.43713 z" />
      <path
         sodipodi:type="inkscape:box3dside"
         id="path3545"
         style="fill:#e9e9ff;fill-rule:evenodd;stroke:none"
         inkscape:box3dsidetype="11"
         d="m 7.0357827,-21.08353 -0.096965,0.201236 0,-17.43713 0.096965,0.08196 z" />
    </g>
    <path
       style="fill:#228b22;fill-opacity:1;fill-rule:nonzero;stroke:#454545;stroke-width:0.71096092;stroke-linecap:round;stroke-linejoin:bevel;stroke-miterlimit:4;stroke-opacity:1;stroke-dasharray:none"
       id="path2940"
       d="m 68.756236,29.766924 c -0.109422,-0.01517 -0.218126,-0.03702 -0.328268,-0.0455 -0.486273,-0.03746 -0.878315,-0.02636 -1.376804,0.01136 -0.780543,0.05908 -1.400337,0.142544 -2.173303,0.296306 -0.370827,0.07377 -0.736819,0.170054 -1.105227,0.255081 -0.62314,0.180739 -1.167297,0.299385 -1.741539,0.5978 -0.207459,0.107811 -0.572531,0.321323 -0.622075,0.610591 -0.04134,0.241387 0.176669,0.368562 0.315163,0.501537 0.342852,0.225033 0.730159,0.353535 1.121645,0.463289 0.241359,0.06767 0.345343,0.08004 0.571458,0.15509 0.05705,0.01893 0.111987,0.04373 0.167981,0.06559 0.03314,0.02206 0.06748,0.04239 0.09942,0.06616 0.144547,0.107548 0.282948,0.231272 0.422443,0.344504 0.107603,0.08735 0.218233,0.171099 0.322683,0.262192 0.146505,0.127769 0.286569,0.262741 0.429853,0.394112 0.832804,0.741442 1.471583,1.542293 1.885689,2.589613 0.334096,0.844964 0.323306,1.065672 0.480869,1.970707 0.01857,0.372244 0.05945,0.744043 0.0557,1.116731 -0.01254,1.242793 -0.199958,2.529214 -0.950125,3.56531 -0.629742,0.869768 -0.975725,0.941332 -1.869413,1.444775 -0.360234,0.06437 -0.714809,0.187253 -1.080702,0.193116 -1.133293,0.01816 -2.335436,-0.644623 -2.740036,-1.738486 -0.06604,-0.178541 -0.06676,-0.374829 -0.100133,-0.562243 -7.18e-4,-0.0046 0.06422,-0.01438 0.06491,-0.0098 l 0,0 c 0.03299,0.18104 0.03412,0.370901 0.09896,0.54312 0.392309,1.041956 1.555991,1.701403 2.642738,1.687444 0.35787,-0.0046 0.705386,-0.12166 1.058078,-0.18249 0.876305,-0.490147 1.2211,-0.562424 1.840039,-1.412098 0.743964,-1.021309 0.931267,-2.297705 0.947916,-3.525083 0.005,-0.36975 -0.03481,-0.738749 -0.05222,-1.108124 -0.153741,-0.898879 -0.141716,-1.114144 -0.470871,-1.953757 -0.110533,-0.281948 -0.240265,-0.5573 -0.389767,-0.820666 -0.380364,-0.670029 -0.906855,-1.240403 -1.472816,-1.755684 -0.533441,-0.499827 -0.267644,-0.265815 -0.741257,-0.66224 -0.135164,-0.113136 -0.270669,-0.241713 -0.414488,-0.345496 -0.02998,-0.02164 -0.06266,-0.03927 -0.094,-0.05889 -0.05543,-0.02036 -0.10995,-0.04341 -0.1663,-0.06108 -0.222368,-0.06971 -0.339283,-0.08542 -0.574624,-0.15069 -0.399592,-0.11082 -0.793175,-0.243226 -1.138753,-0.479686 -0.159404,-0.163136 -0.368207,-0.286017 -0.322104,-0.560241 0.05126,-0.304878 0.406438,-0.528485 0.632188,-0.650339 0.578568,-0.312296 1.11246,-0.427944 1.745477,-0.614774 0.369745,-0.08587 0.736891,-0.183816 1.109237,-0.257594 0.762428,-0.151069 1.414267,-0.237377 2.186064,-0.287235 0.501229,-0.03238 0.928303,-0.03841 1.418854,0.0098 0.110779,0.01089 0.219664,0.03619 0.329497,0.05428 0.0031,0.0016 -0.01896,0.04524 -0.02206,0.04369 z" />
    <path
       style="fill:#228b22;fill-opacity:1;fill-rule:nonzero;stroke:#454545;stroke-width:0.71096092;stroke-linecap:round;stroke-linejoin:bevel;stroke-miterlimit:4;stroke-opacity:1;stroke-dasharray:none"
       id="path2942"
       d="m 68.040525,35.273778 c 0.110068,0.676328 0.18544,1.359208 0.2299,2.043016 0.01989,0.305849 0.03184,0.612163 0.04776,0.918245 0.09593,1.790335 0.08166,3.585721 0.219817,5.374064 0.08813,1.140778 0.180528,1.73792 0.327069,2.861249 0.09409,0.550025 0.205803,1.33333 0.370175,1.897292 0.03769,0.1293 0.07815,0.26256 0.155137,0.373072 0.02284,0.03278 0.09052,0.04815 0.118266,0.01941 0.05284,-0.05474 0.05428,-0.142618 0.07207,-0.216601 0.03246,-0.135044 0.05226,-0.272823 0.07838,-0.409234 0.02079,-0.199863 0.04623,-0.399295 0.06235,-0.599587 0.09718,-1.207602 0.129011,-2.420617 0.194434,-3.630013 0.103414,-1.911704 0.108438,-1.835928 0.256399,-3.811039 0.27289,-2.846102 0.887327,-5.661468 1.910077,-8.33413 0.1024,-0.267587 0.22009,-0.52907 0.330134,-0.793605 0.07453,-0.145044 0.139507,-0.295405 0.223583,-0.435131 0.05149,-0.08558 0.174107,-0.233449 0.157248,0.01686 -0.0095,0.141017 -0.158762,0.492285 -0.201842,0.603482 -0.0011,0.0039 -0.05561,-0.01383 -0.05436,-0.01768 l 0,0 c 0.224538,-0.563798 0.04656,-0.09041 0.208165,-0.585023 0.01218,-0.03727 0.08096,-0.114381 0.04202,-0.109848 -0.208236,0.02425 -0.0264,0.776783 -0.301319,0.552047 -0.319483,0.804823 -0.427207,1.042901 -0.713461,1.938791 -0.744886,2.331269 -1.251912,4.733683 -1.476937,7.17219 -0.156862,1.99306 -0.156876,1.879919 -0.275428,3.807702 -0.07442,1.210139 -0.11856,2.424043 -0.231596,3.631606 -0.01886,0.201589 -0.04683,0.402224 -0.07024,0.603335 -0.02931,0.13948 -0.04092,0.283885 -0.08791,0.418439 -0.01763,0.05049 -0.139029,0.401465 -0.296062,0.198184 -0.08475,-0.109711 -0.130332,-0.246398 -0.172333,-0.378516 -0.184097,-0.57909 -0.291973,-1.324732 -0.395602,-1.901103 -0.149962,-1.128191 -0.244128,-1.720907 -0.332112,-2.867355 -0.137281,-1.78881 -0.113842,-3.584505 -0.196033,-5.375683 -0.01297,-0.305604 -0.02203,-0.6114 -0.03891,-0.916812 -0.03772,-0.68217 -0.108665,-1.36285 -0.203879,-2.039248 -5.92e-4,-0.0032 0.04447,-0.01155 0.04507,-0.0084 z" />
    <path
       style="fill:#228b22;fill-opacity:1;fill-rule:nonzero;stroke:#454545;stroke-width:0.71096092;stroke-linecap:round;stroke-linejoin:bevel;stroke-miterlimit:4;stroke-opacity:1;stroke-dasharray:none"
       id="path2944"
       d="m 74.299626,35.95968 c -0.0649,-0.267011 -0.121827,-0.550186 -0.275495,-0.783725 -0.01915,-0.02911 -0.04392,-0.05412 -0.06588,-0.08118 -0.02223,-0.01319 -0.0615,-0.04818 -0.0953,-0.0358 -0.0083,0.0031 -0.12557,0.225283 -0.134648,0.241266 -0.218385,0.352144 -0.489165,0.667747 -0.742649,0.994571 -0.369079,0.484221 -0.661011,1.033834 -0.799277,1.630075 -0.01863,0.08032 -0.02777,0.162537 -0.04166,0.243806 -0.02375,0.257752 0.02204,0.37035 0.173613,0.559773 0.121951,0.161508 0.233156,0.33061 0.364873,0.484415 0.188703,0.223939 0.436596,0.276899 0.70947,0.335984 0.153606,0.0229 0.30723,0.05238 0.462876,0.05729 0.0308,9.65e-4 0.06413,0.01228 0.09244,1.32e-4 0.04367,-0.01873 0.07482,-0.05862 0.112232,-0.08793 0.05803,-0.06428 0.120475,-0.124849 0.174103,-0.192851 0.236721,-0.300164 0.494362,-0.72875 0.611192,-1.09463 0.02002,-0.0627 0.02948,-0.128286 0.04422,-0.19243 0.0047,-0.07992 0.0285,-0.202352 -0.04849,-0.263277 -0.04106,-0.03249 -0.117906,-0.02268 -0.164865,-0.02333 -0.146206,-4.49e-4 -0.286126,-0.04403 -0.429034,-0.06843 -0.134916,-0.02347 -0.260038,-0.0074 -0.379404,0.05853 -0.05482,0.03243 -0.109867,0.06391 -0.163838,0.0974 -0.0062,0.0056 -0.01241,0.01127 -0.01863,0.01691 -0.0022,0.0025 -0.03591,-0.026 -0.0339,-0.0284 l 0,0 c 0.0077,-0.0071 0.01543,-0.01418 0.02315,-0.02127 0.05341,-0.03518 0.110224,-0.06546 0.164656,-0.09982 0.141091,-0.08063 0.265333,-0.09124 0.425682,-0.06578 0.140931,0.02488 0.279319,0.06661 0.423641,0.06671 0.0637,0.0023 0.140416,-0.0027 0.191907,0.04433 0.08176,0.07472 0.06558,0.199418 0.0594,0.295813 -0.01441,0.06646 -0.02322,0.134385 -0.04323,0.19938 -0.114336,0.371457 -0.376039,0.80878 -0.618834,1.109648 -0.05648,0.06999 -0.122454,0.131771 -0.183679,0.197657 -0.0527,0.03236 -0.10032,0.07506 -0.158102,0.09711 -0.02947,0.01125 -0.06311,4.27e-4 -0.09463,-6.52e-4 -0.157793,-0.0054 -0.313766,-0.03326 -0.469419,-0.05748 -0.281655,-0.06169 -0.534876,-0.122701 -0.728683,-0.35379 -0.131412,-0.15457 -0.242649,-0.323961 -0.363453,-0.486774 -0.162561,-0.202257 -0.206823,-0.316629 -0.187898,-0.591539 0.01337,-0.08301 0.02188,-0.166938 0.04012,-0.24901 0.13431,-0.604468 0.431067,-1.15882 0.805618,-1.647332 0.254617,-0.323894 0.527597,-0.635578 0.747696,-0.984724 0.03213,-0.05591 0.06293,-0.112584 0.09549,-0.168253 0.06924,-0.118413 0.107305,-0.119237 0.21707,-0.04303 0.0235,0.02883 0.04993,0.05552 0.07055,0.0865 0.157355,0.236392 0.216745,0.523949 0.276481,0.796536 4.74e-4,0.0032 -0.04495,0.01083 -0.04549,0.0076 z" />
    <text
       xml:space="preserve"
       style="font-size:10.5195322px;font-style:normal;font-weight:normal;fill:#006400;fill-opacity:1;stroke:none;font-family:Bitstream Vera Sans"
       x="76.35112"
       y="46.443047"
       id="text2946"><tspan
         sodipodi:role="line"
         id="tspan2948"
         x="76.35112"
         y="46.443047">4</tspan></text>
    <text
       xml:space="preserve"
       style="font-size:9.72403622px;font-style:normal;font-variant:normal;font-weight:bold;font-stretch:normal;fill:#000000;fill-opacity:1;stroke:none;font-family:Steiner;-inkscape-font-specification:Steiner Bold"
       x="74.367332"
       y="-38.475056"
       id="text2950"
       transform="matrix(0.64721939,0.76230379,-0.76230379,0.64721939,0,0)"><tspan
         sodipodi:role="line"
         id="tspan2952"
         x="74.367332"
         y="-38.475056">mobile</tspan></text>
    <rect
       style="fill:#fffaf0;fill-opacity:1;fill-rule:nonzero;stroke:#454545;stroke-width:3.01736569000000010;stroke-linecap:round;stroke-linejoin:bevel;stroke-miterlimit:4;stroke-opacity:1;stroke-dasharray:none"
       id="rect2964"
       width="44.528088"
       height="44.891727"
       x="1.8268647"
       y="17.645046"
       ry="9.0873938" />
    <flowRoot
       xml:space="preserve"
       id="flowRoot2954"
       style="font-size:12px;font-style:normal;font-weight:normal;fill:#000000;fill-opacity:1;stroke:none;font-family:Bitstream Vera Sans"
       transform="translate(4.0214844,17.796734)"><flowRegion
         id="flowRegion2956"><rect
           id="rect2958"
           width="47.636364"
           height="27.636364"
           x="3.6363637"
           y="13.636364" /></flowRegion><flowPara
         id="flowPara2960">icono</flowPara></flowRoot>  </g>
</svg>
