<?xml version="1.0" encoding="UTF-8" standalone="no"?>
<!-- Generator: PDFTron PDF2SVG Converter (DEMO VERSION) -->

<svg
   xmlns:dc="http://purl.org/dc/elements/1.1/"
   xmlns:cc="http://creativecommons.org/ns#"
   xmlns:rdf="http://www.w3.org/1999/02/22-rdf-syntax-ns#"
   xmlns:svg="http://www.w3.org/2000/svg"
   xmlns="http://www.w3.org/2000/svg"
   xmlns:sodipodi="http://sodipodi.sourceforge.net/DTD/sodipodi-0.dtd"
   xmlns:inkscape="http://www.inkscape.org/namespaces/inkscape"
   id="svgRoot"
   viewBox="0 0 702.26831 737.76249"
   xml:space="preserve"
   version="1.1"
   inkscape:version="0.47 r22583"
   width="698.27533"
   height="735.13837"
   sodipodi:docname="ifema.svg"><defs
   id="defs3494"><inkscape:perspective
   sodipodi:type="inkscape:persp3d"
   inkscape:vp_x="0 : 57.70525 : 1"
   inkscape:vp_y="0 : 1000 : 0"
   inkscape:vp_z="109.6233 : 57.70525 : 1"
   inkscape:persp3d-origin="54.81165 : 38.470167 : 1"
   id="perspective3496" />




































































































































































































































































</defs><metadata
   id="metadata3962"><rdf:RDF><cc:Work
       rdf:about=""><dc:format>image/svg+xml</dc:format><dc:type
         rdf:resource="http://purl.org/dc/dcmitype/StillImage" /><dc:title /></cc:Work></rdf:RDF></metadata><sodipodi:namedview
   pagecolor="#ffffff"
   bordercolor="#666666"
   borderopacity="1"
   objecttolerance="10"
   gridtolerance="10"
   guidetolerance="10"
   inkscape:pageopacity="0"
   inkscape:pageshadow="2"
   inkscape:window-width="1280"
   inkscape:window-height="752"
   id="namedview3960"
   showgrid="false"
   inkscape:zoom="0.59"
   inkscape:cx="376.63936"
   inkscape:cy="395.5157"
   inkscape:window-x="0"
   inkscape:window-y="0"
   inkscape:window-maximized="0"
   inkscape:current-layer="svgRoot" />


<path
   style="fill:#233a6d;fill-rule:nonzero;stroke:none"
   d="m 584.42304,595.52625 c -9.96945,39.07168 -48.24952,-18.56921 -8.33215,-12.57346 4.95774,2.03062 8.41377,7.20188 8.33215,12.57346 z"
   id="path1232" /><path
   style="fill:#233a6d;fill-rule:nonzero;stroke:none"
   d="m 565.49851,595.51984 c 14.17096,21.24598 12.45645,-20.50681 0,0 z m -16.7586,0 c -0.0366,-37.71523 61.4807,-19.07265 40.29679,12.31829 -11.13647,18.00443 -41.11105,8.8366 -40.29679,-12.31829 z"
   id="path1236" /><path
   style="fill:#ffffff;fill-rule:nonzero;stroke:none"
   d="m 159.74039,532.69942 c 0,-3.70274 0,-2.29563 0,0 z m 20.30123,45.72101 c 9.02098,13.15787 29.14305,4.73174 43.48505,7.12369 32.85881,-0.26265 65.90261,0.66675 98.61393,-0.5434 10.12096,-11.25915 16.65957,-25.52709 14.04557,-40.92949 4.55319,-17.10455 -16.87499,-9.95793 -26.66177,-11.37226 -48.73436,0 -97.46871,0 -146.20307,0 5.55606,15.24649 11.02382,30.52616 16.72017,45.72102 m -4.68934,1.81294 c 0.66497,-15.74365 -36.53862,-58.33385 -4.91702,-52.56282 53.87726,0 107.75451,0 161.63176,0 15.56941,4.3898 8.01233,26.1109 7.8988,38.37309 -6.35367,12.08825 -13.29041,28.94092 -30.03709,24.52924 -42.06036,-0.46369 -84.27145,0.92131 -126.23894,-0.68048 -4.30777,-1.42072 -7.02437,-5.55228 -8.33756,-9.65914"
   id="path1240" /><path
   style="fill:#ffffff;fill-rule:nonzero;stroke:none"
   d="m 528.87558,585.57871 c 20.5086,-5.20449 41.48477,-26.92041 37.81577,-49.66731 -6.73269,-7.60367 -22.82402,-1.21471 -33.12822,-3.32167 -48.42977,0.20516 -97.00475,-0.42983 -145.34445,0.29574 -2.01505,16.79665 -0.89232,34.32165 -0.63181,51.27598 18.57205,3.43508 39.26278,0.33804 58.60048,1.40189 27.56274,0.005 55.12549,0.0102 82.68823,0.0154 z m -145.60641,1.06984 c -1.95324,-17.95817 -1.41999,-36.69701 -0.28906,-54.78178 9.2107,-9.06582 25.15054,-2.1316 37.17765,-4.29607 48.01172,0 96.02343,0 144.03515,0 18.72153,11.5422 1.83532,39.87084 -11.5083,50.48273 -14.4217,16.13411 -26.65845,11.75676 -45.92225,12.53503 -38.56772,0 -77.13545,0 -115.70317,0 1.97232,-4.13137 -3.23669,4.9487 -7.79,-3.94021"
   id="path1244" /><path
   style="fill:#ffffff;fill-rule:nonzero;stroke:none"
   d="m 159.74039,532.69942 c 0,-3.70274 0,-2.29563 0,0 z m 20.30123,45.72101 c 9.02098,13.15787 29.14305,4.73174 43.48505,7.12369 32.85881,-0.26265 65.90261,0.66675 98.61393,-0.5434 10.12096,-11.25915 16.65957,-25.52709 14.04557,-40.92949 4.55319,-17.10455 -16.87499,-9.95793 -26.66177,-11.37226 -48.73436,0 -97.46871,0 -146.20307,0 5.55606,15.24649 11.02382,30.52616 16.72017,45.72102 m -4.68934,1.81294 c 0.66497,-15.74365 -36.53862,-58.33385 -4.91702,-52.56282 53.87726,0 107.75451,0 161.63176,0 15.56941,4.3898 8.01233,26.1109 7.8988,38.37309 -6.35367,12.08825 -13.29041,28.94092 -30.03709,24.52924 -42.06036,-0.46369 -84.27145,0.92131 -126.23894,-0.68048 -4.30777,-1.42072 -7.02437,-5.55228 -8.33756,-9.65914"
   id="path1248" /><path
   style="fill:#97a9c7;fill-rule:nonzero;stroke:none"
   d="m 148.39502,327.67942 c 21.80502,-3.9611 21.07104,20.63186 19.95529,35.58551 0,23.85696 0,47.71393 0,71.57089 -15.85737,3.08735 -24.1493,-1.39074 -19.95529,-18.35477 0,-29.60055 0,-59.20109 0,-88.80163 z"
   id="path1252" /><path
   style="fill:#97a9c7;fill-rule:nonzero;stroke:none"
   d="m 129.20142,482.05396 c 32.27946,23.4531 38.10672,-25.84758 14.37456,-34.77948 -0.006,-39.86563 -0.0122,-79.73127 -0.0183,-119.59691 -18.19569,-6.03018 -14.64193,9.80605 -14.35628,22.35661 -10e-6,44.00659 1e-5,88.01319 -10e-6,132.01978 z"
   id="path1256" /><path
   style="fill:#ffffff;fill-rule:nonzero;stroke:none"
   d="m 528.87558,585.57871 c 20.5086,-5.20449 41.48477,-26.92041 37.81577,-49.66731 -6.73269,-7.60367 -22.82402,-1.21471 -33.12822,-3.32167 -48.42977,0.20516 -97.00475,-0.42983 -145.34445,0.29574 -2.01505,16.79665 -0.89232,34.32165 -0.63181,51.27598 18.57205,3.43508 39.26278,0.33804 58.60048,1.40189 27.56274,0.005 55.12549,0.0102 82.68823,0.0154 z m -145.60641,1.06984 c -1.95324,-17.95817 -1.41999,-36.69701 -0.28906,-54.78178 9.2107,-9.06582 25.15054,-2.1316 37.17765,-4.29607 48.01172,0 96.02343,0 144.03515,0 18.72153,11.5422 1.83532,39.87084 -11.5083,50.48273 -14.4217,16.13411 -26.65845,11.75676 -45.92225,12.53503 -38.56772,0 -77.13545,0 -115.70317,0 1.97232,-4.13137 -3.23669,4.9487 -7.79,-3.94021"
   id="path1260" /><path
   style="fill:#233a6d;fill-rule:nonzero;stroke:none"
   d="m 160.26313,592.43846 c 12.44521,-6.28707 10.93363,18.68232 17.22808,26.16997 12.94204,33.71558 25.88409,67.43116 38.82613,101.14674 -12.42687,6.30981 -10.92518,-18.67964 -17.21679,-26.15656 -12.9458,-33.72005 -25.89161,-67.4401 -38.83742,-101.16015 z"
   id="path1264" /><path
   style="fill:#233a6d;fill-rule:nonzero;stroke:none"
   d="M 354.59761,724.18186 C 426.5349,681.69171 498.4722,639.20155 570.40949,596.7114 c 8.28724,11.2046 -16.60406,13.87793 -22.93079,21.3248 -63.15553,37.30802 -126.31105,74.61603 -189.46658,111.92404 -1.13817,-1.92613 -2.27634,-3.85225 -3.41451,-5.77838 z"
   id="path1268" /><path
   style="fill:#233a6d;fill-rule:nonzero;stroke:none"
   d="m 152.16762,34.602397 c 90.26139,11.204284 177.30789,38.718268 265.80359,58.772725 47.32646,12.194988 95.37735,22.040288 142.23154,35.767828 40.78124,15.06143 44.94877,63.13772 42.51082,100.28536 -0.0653,105.56515 1.15773,211.15212 0.76598,316.70341 -2.44557,35.73677 -38.86401,58.19062 -72.4288,53.34976 -115.91633,-0.0169 -231.83272,0.034 -347.74902,-0.0257 C 155.94876,597.18186 155.1732,565.51624 145.22499,546.02304 101.64034,430.94529 56.219208,316.53503 13.813037,201.02895 -9.3645911,130.95669 39.60871,48.951588 112.51529,36.564684 c 13.05219,-2.867839 26.3996,-2.914045 39.65233,-1.962287 z"
   id="path1272" /><path
   style="fill:#233a6d;fill-rule:nonzero;stroke:none"
   d="m 16.765011,163.627 c 1.47418,43.13462 24.136853,81.43202 37.490594,121.63729 37.800515,98.53451 75.463125,197.12296 113.349665,295.62381 10.98082,17.05097 34.03831,7.80883 51.05423,10.2059 110.33514,-0.15304 220.68989,0.32186 331.01282,-0.22144 30.30762,-2.17292 49.90454,-33.12891 45.70628,-61.80241 -0.96894,-112.50197 -0.01,-225.06718 -1.7991,-337.53086 -0.23049,-32.06115 -26.57968,-57.14948 -57.4559,-60.65615 C 427.84172,104.89342 319.98932,76.99669 211.40458,52.380641 165.07874,42.708245 111.93471,32.800263 70.450674,62.975925 37.205745,84.880702 16.386761,123.78996 16.765011,163.627 z M 541.25298,607.85818 C 420.2461,607.58401 299.20051,608.40522 178.21764,607.45019 149.1913,602.32071 147.29145,568.96668 136.6661,547.11398 93.26385,432.4663 47.969505,318.50566 5.7847937,203.41589 -17.924511,131.23867 29.927492,46.621808 104.13838,29.938378 c 12.81067,-3.986847 51.34064,-9.145327 48.12145,2.618081 11.84352,-16.934305 57.32043,7.958985 79.54914,6.895326 109.1724,26.47459 218.47292,52.758958 327.37563,80.264315 42.03408,12.9474 55.81631,60.79971 51.88952,100.41707 -0.13026,108.94816 1.24595,217.92307 0.72758,326.85427 -2.83877,34.86321 -35.63257,63.1807 -70.54872,60.87074 z"
   id="path1276" /><path
   style="fill:#233a6d;fill-rule:nonzero;stroke:none"
   d="m 36.937477,224.96761 c -9.96946,39.07166 -48.249528,-18.56921 -8.332156,-12.57345 4.95774,2.03061 8.413775,7.20187 8.332156,12.57345 z"
   id="path1280" /><path
   style="fill:#233a6d;fill-rule:nonzero;stroke:none"
   d="m 18.016141,224.96761 c 14.183853,21.22525 12.431205,-20.49722 0,0 z m -16.758605,0 c -0.054507,-37.71747 61.467001,-19.0843 40.293376,12.31062 -11.128986,18.00031 -41.11852238,8.84666 -40.293376,-12.31062 z"
   id="path1284" /><path
   style="fill:#233a6d;fill-rule:nonzero;stroke:none"
   d="m 130.50315,34.20201 c -9.98072,39.071695 -48.245597,-18.569897 -8.34026,-12.578863 4.95853,2.033533 8.42072,7.203551 8.34026,12.578863 z"
   id="path1288" /><path
   style="fill:#233a6d;fill-rule:nonzero;stroke:none"
   d="m 111.58182,34.20201 c 14.18745,21.232394 12.41673,-20.526123 0,0 z m -16.758608,0 C 94.748766,-3.5286755 156.30316,15.124578 135.10932,46.515454 123.97969,64.515438 94.001506,55.352534 94.823212,34.20201 z"
   id="path1292" /><path
   style="fill:#233a6d;fill-rule:nonzero;stroke:none"
   d="m 180.70786,598.97342 c -9.96941,39.07054 -48.24078,-18.5655 -8.33486,-12.57345 4.95734,2.03132 8.41608,7.20098 8.33486,12.57345 z"
   id="path1296" /><path
   style="fill:#233a6d;fill-rule:nonzero;stroke:none"
   d="m 161.78973,598.97022 c 14.16733,21.24284 12.44395,-20.50625 0,0 z m -16.75861,0 c -0.0531,-37.71364 61.47758,-19.07102 40.28297,12.31479 -11.12649,17.9916 -41.1122,8.83576 -40.28297,-12.31479 z"
   id="path1300" /><path
   style="fill:#233a6d;fill-rule:nonzero;stroke:none"
   d="m 597.18547,145.97281 c -9.9837,39.0608 -48.24211,-18.57151 -8.33757,-12.57886 4.95894,2.03282 8.41843,7.20444 8.33757,12.57886 z"
   id="path1304" /><path
   style="fill:#233a6d;fill-rule:nonzero;stroke:none"
   d="m 578.25452,145.97281 c 14.21692,21.23256 12.40637,-20.53782 0,0 z m -16.7522,0 c -0.0692,-37.72978 61.49033,-19.08271 40.29479,12.30995 -11.13635,17.98429 -41.10424,8.84137 -40.29479,-12.30995 z"
   id="path1308" /><path
   style="fill:#233a6d;fill-rule:nonzero;stroke:none"
   d="m 336.2144,607.36233 c -0.068,-40.98323 66.811,-20.72063 43.78342,13.38053 -12.10182,19.54607 -44.67814,9.61211 -43.78342,-13.38053 z"
   id="path1312" /><path
   style="fill:#233a6d;fill-rule:nonzero;stroke:none"
   d="m 344.59113,607.35913 c 17.57611,48.59564 51.4422,-32.88717 4.55881,-10.99059 l -3.33192,4.93885 -1.22689,6.05174 z m -16.76502,0 c -0.0707,-55.34212 90.19825,-27.97301 59.11309,18.07001 -16.3416,26.39273 -60.29945,12.95769 -59.11309,-18.07001 z"
   id="path1316" /><path
   style="fill:#ffffff;fill-rule:nonzero;stroke:none"
   d="m 11.728461,163.627 c 1.483091,44.45618 24.779519,83.92749 38.566917,125.34798 37.592137,97.98271 75.039002,196.02226 112.721772,293.9695 11.84464,20.65968 38.19102,10.85041 57.6805,13.17752 109.82588,-0.16584 219.67357,0.33083 329.48585,-0.24675 32.75937,-2.3581 54.6263,-35.62415 50.21736,-66.8342 -1.00067,-112.67353 0.0734,-225.41363 -1.85593,-338.04659 -0.32358,-34.03047 -28.18628,-61.0655 -61.05815,-64.94781 C 429.06424,100.02192 321.06975,72.098648 212.34393,47.447041 164.78238,37.336207 110.25284,27.878169 67.726923,58.762664 33.071567,81.572366 11.344023,122.1098 11.728461,163.627 z M 541.24529,602.82931 c -120.75474,-0.23375 -241.54175,0.46625 -362.2765,-0.34755 -25.99587,-5.07013 -26.95348,-35.67578 -36.88425,-55.26377 C 98.477674,432.05866 53.017337,317.5728 10.600971,201.9809 -13.167745,130.08137 37.215812,46.046111 111.95922,33.317796 c 30.02807,-5.529873 40.28909,-0.255011 65.19846,1.18621 86.26124,14.487111 170.301,39.407968 255.47817,59.008963 42.891,11.118651 86.5163,19.853441 128.92042,32.553761 39.82893,14.73569 47.4573,61.41538 44.4926,98.62383 -0.0964,107.25885 1.20047,214.5421 0.74543,321.78547 -2.61935,32.37601 -33.13613,58.62481 -65.54901,56.35328 z"
   id="path1320" /><path
   style="fill:#233a6d;fill-rule:nonzero;stroke:none"
   d="m 130.50315,34.20201 c -9.98072,39.071695 -48.245597,-18.569897 -8.34026,-12.578863 4.95853,2.033533 8.42072,7.203551 8.34026,12.578863 z"
   id="path1324" /><path
   style="fill:#ffffff;fill-rule:nonzero;stroke:none"
   d="m 106.55488,34.20201 c 25.44039,39.670498 25.60739,-38.8276084 0,0 z m -6.713696,0 C 106.81474,-8.9748793 160.02387,44.223829 116.84963,51.191238 107.74435,51.423085 99.62508,43.303718 99.841184,34.20201 z"
   id="path1328" /><path
   style="fill:#233a6d;fill-rule:nonzero;stroke:none"
   d="m 336.2144,607.36233 c -0.068,-40.98323 66.811,-20.72063 43.78342,13.38053 -12.10182,19.54607 -44.67814,9.61211 -43.78342,-13.38053 z"
   id="path1332" /><path
   style="fill:#ffffff;fill-rule:nonzero;stroke:none"
   d="m 339.55523,607.35657 c 11.50773,56.13285 73.6451,-20.26548 16.44358,-20.14728 -9.34666,1.738 -16.59922,10.68854 -16.44358,20.14728 z m -6.68807,0 c -0.0713,-46.72264 76.15221,-23.61817 49.90022,15.25907 -13.79228,22.29051 -50.92622,10.94871 -49.90022,-15.25907 z"
   id="path1336" /><path
   style="fill:#233a6d;fill-rule:nonzero;stroke:none"
   d="m 180.70786,598.97342 c -9.96941,39.07054 -48.24078,-18.5655 -8.33486,-12.57345 4.95734,2.03132 8.41608,7.20098 8.33486,12.57345 z"
   id="path1340" /><path
   style="fill:#ffffff;fill-rule:nonzero;stroke:none"
   d="m 156.76279,598.97663 c 25.44062,39.65172 25.61634,-38.80439 0,0 z m -6.70729,0 c 6.96691,-43.15645 60.16044,10.0167 17.00845,16.99563 -9.10417,0.22883 -17.23636,-7.88789 -17.00845,-16.99563 z"
   id="path1344" /><path
   style="fill:#233a6d;fill-rule:nonzero;stroke:none"
   d="m 584.42304,595.52625 c -9.96945,39.07168 -48.24952,-18.56921 -8.33215,-12.57346 4.95774,2.03062 8.41377,7.20188 8.33215,12.57346 z"
   id="path1348" /><path
   style="fill:#ffffff;fill-rule:nonzero;stroke:none"
   d="m 560.469,595.52625 c 25.41748,39.67841 25.64909,-38.78887 0,0 z m -6.70087,0 c 6.97319,-43.16264 60.17435,10.03267 17.00204,16.99563 -9.10354,0.229 -17.2316,-7.88952 -17.00204,-16.99563 z"
   id="path1352" /><path
   style="fill:#233a6d;fill-rule:nonzero;stroke:none"
   d="m 597.18547,145.97281 c -9.9837,39.0608 -48.24211,-18.57151 -8.33757,-12.57886 4.95894,2.03282 8.41843,7.20444 8.33757,12.57886 z"
   id="path1356" /><path
   style="fill:#ffffff;fill-rule:nonzero;stroke:none"
   d="m 573.23079,145.97281 c 25.44279,39.6557 25.61369,-38.81016 0,0 z m -6.7073,0 c 6.96015,-43.17096 60.18753,10.01918 17.00845,16.98923 -9.10384,0.23254 -17.23792,-7.88133 -17.00845,-16.98923 z"
   id="path1360" /><path
   style="fill:#233a6d;fill-rule:nonzero;stroke:none"
   d="m 36.937477,224.96761 c -9.96946,39.07166 -48.249528,-18.56921 -8.332156,-12.57345 4.95774,2.03061 8.413775,7.20187 8.332156,12.57345 z"
   id="path1364" /><path
   style="fill:#ffffff;fill-rule:nonzero;stroke:none"
   d="m 12.985997,224.96761 c 25.419922,39.68269 25.643226,-38.81439 0,0 z m -6.7008794,0 C 13.251093,181.79941 66.453872,234.988 23.287159,241.96965 14.187164,242.18492 6.0577767,234.07476 6.2851176,224.96761 z"
   id="path1368" /><path
   style="fill:#ffffff;fill-rule:nonzero;stroke:none"
   d="m 496.60053,394.40056 c -5.52811,-17.43909 -2.07311,-35.07845 1.79212,-52.42909 13.75288,-2.44282 27.67343,-3.95123 41.83934,-4.27821 10.18156,-1.95872 26.6131,-2.83998 32.73487,5.48202 4.65574,24.01011 7.53744,50.72825 -3.82259,73.23698 4.51893,25.61359 9.33616,52.62047 0.65183,77.82884 -16.94826,3.58894 -34.78919,-1.31663 -51.82901,1.27841 -15.50778,3.13916 -21.57877,-6.44344 -22.15634,-20.68975 -5.27806,-24.02352 0.91085,-49.12316 0.46973,-73.6006 0.10668,-2.2762 0.21337,-4.5524 0.32005,-6.8286 z"
   id="path1372" /><path
   style="fill:#233a6d;fill-rule:nonzero;stroke:none"
   d="m 500.2482,340.32652 -0.0513,0 0.0513,0 z m -3.64511,54.07469 c 1.2817,22.31411 -2.78023,48.21655 -2.00089,71.76671 4.93311,9.3845 0.0107,30.40976 15.55133,27.90257 14.54594,0.92231 28.86789,-0.97867 43.52487,0.66605 15.35041,4.52883 18.84766,-6.68843 19.66112,-19.50076 1.70799,-19.73462 -1.81874,-39.86931 -4.91663,-59.26496 11.5865,-23.00897 8.12068,-50.23043 3.36967,-74.70264 -16.89687,-8.12857 -35.19335,-0.39156 -53.06252,-2.10118 -10.38481,3.91148 -24.87156,-0.94265 -21.94266,15.82805 -4.49142,13.53067 -1.37268,25.69123 -0.18429,39.40616 z m 5.26588,100.67334 c -6.12323,-9.10781 -7.909,-23.34293 -9.20069,-34.80489 0.0106,-29.11846 6.41834,-58.63098 -0.60079,-87.3164 3.61182,-10.22339 0.55447,-25.27084 8.18715,-32.62674 12.70308,-0.59687 24.89736,-4.01603 37.82333,-3.11825 11.46069,-2.76143 25.70161,-2.4262 35.36785,3.8101 4.81316,24.76443 8.12386,52.22148 -3.42091,75.54825 4.52673,25.73049 9.31803,52.93085 0.42759,78.19723 -17.06043,4.28318 -35.28385,-1.20603 -52.54641,1.58832 -5.3457,-0.42587 -10.69141,-0.85175 -16.03712,-1.27762 z"
   id="path1376" /><path
   style="fill:#ffffff;fill-rule:nonzero;stroke:none"
   d="m 359.06144,483.15518 c -35.46741,-9.066 16.8677,-43.80366 11.42215,-7.56731 -1.84457,4.50376 -6.54309,7.64151 -11.42215,7.56731 z m -21.48637,8.87258 c 14.24951,0 28.49903,0 42.74854,0 0,-14.24737 0,-28.49475 0,-42.74212 -14.24951,0 -28.49903,0 -42.74854,0 0,14.24737 0,28.49475 0,42.74212 z"
   id="path1380" /><path
   style="fill:#233a6d;fill-rule:nonzero;stroke:none"
   d="m 345.83905,470.75856 c 6.53402,-34.83017 45.8776,10.41907 13.21599,12.39599 35.56247,-13.37983 -23.5184,-39.53194 -8.1647,-4.22009 20.98918,6.44896 -2.7787,10.56731 -5.05129,-8.1759 z m -8.25758,-20.64717 0,-0.82639 0,0.82639 z m 0.8264,41.07012 c 13.6879,0 27.37581,0 41.06371,0 0,-13.6879 0,-27.37581 0,-41.06371 -13.6879,0 -27.37581,0 -41.06371,0 0,13.6879 0,27.37581 0,41.06371 z m -1.672,1.68483 c 0,-14.80899 0,-29.61798 0,-44.42697 14.80685,0 29.61369,0 44.42054,0 0,14.80899 0,29.61798 0,44.42697 -14.80685,0 -29.61369,0 -44.42054,0 z"
   id="path1384" /><path
   style="fill:#ffffff;fill-rule:nonzero;stroke:none"
   d="m 529.76603,409.2277 c -10.35514,2.52506 -33.07417,-7.31377 -28.4435,10.1971 -2.72708,12.60733 23.90302,6.18144 28.4435,4.67582 0,-4.95764 0,-9.91528 0,-14.87292 z"
   id="path1386" /><path
   style="fill:#233a6d;fill-rule:nonzero;stroke:none"
   d="m 502.15533,425.30724 c 9.87513,-2.44987 31.91306,7.26306 26.7779,-10.1971 1.48666,-8.3636 -26.83385,-7.70859 -26.7779,-0.9708 0,3.72263 0,7.44527 0,11.1679 z m -1.6656,1.66562 c -3.62848,-15.93939 2.26322,-22.3586 18.35477,-18.57796 15.76751,-4.71566 11.44883,6.8895 11.75433,18.57796 -10.03637,0 -20.07273,0 -30.1091,0 z"
   id="path1388" /><path
   style="fill:#ffffff;fill-rule:nonzero;stroke:none"
   d="m 369.73929,301.02707 c -10.36455,2.95845 -34.50295,-4.07183 -11.84021,-4.22809 4.10117,1.33575 14.18327,-3.50271 11.84021,4.22809 z"
   id="path1390" /><path
   style="fill:#233a6d;fill-rule:nonzero;stroke:none"
   d="m 347.7007,300.8035 c 12.51108,2.76883 33.43318,-4.09354 9.79489,-3.94227 -3.82297,1.05064 -11.60889,-3.15168 -9.79489,3.94227 z m -0.21141,0.21141 c -1.36616,-7.83472 24.54354,-6.45965 22.24231,0.19858 -7.4141,-0.0662 -14.82821,-0.13239 -22.24231,-0.19858 z"
   id="path1394" /><path
   style="fill:#ffffff;fill-rule:nonzero;stroke:none"
   d="m 403.69212,435.42904 c -14.76863,-7.09032 -24.84268,10.18273 -13.28194,16.14361 16.05449,2.65165 13.55847,-2.43283 13.28194,-16.14361 z"
   id="path1396" /><path
   style="fill:#233a6d;fill-rule:nonzero;stroke:none"
   d="m 387.16413,450.67577 c 13.97762,8.33854 23.90969,-14.08389 9.51287,-14.41393 -13.18117,-3.13483 -8.89322,5.01155 -9.51287,14.41393 z m -1.72967,1.72968 c -4.57625,-15.73648 4.86758,-21.978 18.25766,-16.97641 4.03063,8.36472 0.29306,23.14084 -15.54661,16.97641 l -2.03942,0 -0.67163,0 z"
   id="path1398" /><path
   style="fill:#ffffff;fill-rule:nonzero;stroke:none"
   d="m 330.6615,435.42904 c -14.78604,-7.24721 -24.27448,10.47248 -12.89757,16.14361 16.14859,2.79601 12.92942,-2.75617 12.89757,-16.14361 z"
   id="path1400" /><path
   style="fill:#233a6d;fill-rule:nonzero;stroke:none"
   d="m 314.51789,450.73983 c 14.03092,8.45997 23.27693,-14.40708 9.12849,-14.47799 -13.14667,-3.28234 -8.28159,5.47909 -9.12849,14.47799 z m -1.66562,1.66562 c -4.40953,-15.38541 4.47798,-22.11519 17.80923,-16.97641 4.15792,8.22482 0.362,23.20269 -15.48254,16.97641 l -2.03942,0 -0.28727,0 z"
   id="path1402" /><path
   style="fill:#ffffff;fill-rule:nonzero;stroke:none"
   d="m 387.54851,249.90564 c -14.44105,6.84458 -25.65088,-9.61372 -13.73038,-15.75925 15.65447,-2.29848 14.41453,1.63262 13.73038,15.75925 z"
   id="path1404" /><path
   style="fill:#233a6d;fill-rule:nonzero;stroke:none"
   d="m 370.56633,249.06322 c 15.15637,8.39135 24.85402,-15.54535 7.99866,-14.0744 -12.2391,-2.97943 -6.87494,6.21204 -7.99866,14.0744 z m 17.00845,0.82642 0,-0.82642 0,0.82642 z m -18.68047,0.8456 c -4.34014,-16.65071 4.44332,-20.17781 19.51326,-17.41844 4.11014,16.03455 -3.24357,20.60524 -18.35477,17.41844 l -1.15849,0 z"
   id="path1408" /><path
   style="fill:#ffffff;fill-rule:nonzero;stroke:none"
   d="m 347.70198,249.90564 c -14.43824,6.81798 -25.74455,-9.56654 -13.79444,-15.75925 15.63803,-2.27319 14.5183,1.57904 13.79444,15.75925 z"
   id="path1410" /><path
   style="fill:#233a6d;fill-rule:nonzero;stroke:none"
   d="m 330.6615,249.07284 c 15.15884,8.38581 24.92823,-15.53266 8.05,-14.09363 -12.2802,-2.97215 -6.93997,6.17419 -8.05,14.09363 z m 17.04048,0.8328 0,-0.8328 0,0.8328 z m -18.70608,0.8328 c -4.34825,-16.6695 4.4633,-20.17919 19.53888,-17.42485 4.10779,16.03433 -3.2373,20.61578 -18.35477,17.42485 l -1.18411,0 z"
   id="path1412" /><path
   style="fill:#ffffff;fill-rule:nonzero;stroke:none"
   d="m 347.70198,317.10661 c -14.69512,6.86928 -25.62304,-9.75822 -13.79444,-16.07954 15.88536,-2.42285 14.41331,1.92742 13.79444,16.07954 z"
   id="path1414" /><path
   style="fill:#233a6d;fill-rule:nonzero;stroke:none"
   d="m 330.6615,316.27382 c 14.01717,8.16583 24.78717,-13.69804 10.08942,-14.47801 -13.3054,-2.95351 -9.7715,4.47597 -10.08942,14.47801 z m 17.04048,0.83279 0,-0.83279 0,0.83279 z m -18.70608,0.83282 c -4.21977,-16.64778 4.21903,-20.637 19.53888,-17.74516 3.97712,16.01043 -2.98893,21.07769 -18.35477,17.74516 l -1.18411,0 z"
   id="path1416" /><path
   style="fill:#ffffff;fill-rule:nonzero;stroke:none"
   d="m 387.54851,317.10661 c -14.69791,6.89573 -25.52873,-9.80622 -13.73038,-16.07954 15.90039,-2.44816 14.30941,1.98205 13.73038,16.07954 z"
   id="path1418" /><path
   style="fill:#233a6d;fill-rule:nonzero;stroke:none"
   d="m 370.57209,316.27382 c 13.9698,8.1793 24.71352,-13.70664 10.02536,-14.41395 -13.25883,-2.95378 -9.69028,4.47405 -10.02536,14.41395 z m 16.97642,0.83279 0,-0.83279 0,0.83279 z m -18.64202,0.83282 c -4.19288,-16.59954 4.15749,-20.65583 19.47482,-17.74516 3.97712,16.01043 -2.98893,21.07769 -18.35477,17.74516 l -1.12005,0 z"
   id="path1420" /><path
   style="fill:#ffffff;fill-rule:nonzero;stroke:none"
   d="m 404.71712,384.49979 c -14.50208,5.38884 -23.81546,-6.31566 -15.76981,-16.59204 15.86404,-2.5894 17.58438,1.57162 15.76981,16.59204 z"
   id="path1422" /><path
   style="fill:#233a6d;fill-rule:nonzero;stroke:none"
   d="m 387.71443,383.64905 c 14.36101,8.22269 24.55051,-13.99565 10.05089,-14.93285 -13.55583,-3.12921 -9.58392,5.01271 -10.05089,14.93285 z m 17.01485,0.8328 0,-0.8328 0,0.8328 z m -18.68047,0.83922 c -3.99909,-16.59794 3.79712,-21.40059 19.51969,-18.27687 3.75949,15.97004 -2.57803,21.84306 -18.35477,18.27687 l -1.16492,0 z"
   id="path1426" /><path
   style="fill:#ffffff;fill-rule:nonzero;stroke:none"
   d="m 347.70198,384.49979 c -14.60609,5.40256 -23.85815,-6.37051 -15.83386,-16.72016 15.96356,-2.62385 17.63688,1.6526 15.83386,16.72016 z"
   id="path1428" /><path
   style="fill:#233a6d;fill-rule:nonzero;stroke:none"
   d="m 330.72557,383.66697 c 14.44224,8.24774 24.45394,-14.1008 10.02535,-15.05455 -13.61646,-3.18023 -9.51148,5.17267 -10.02535,15.05455 z m 16.97641,0.83282 0,-0.83282 0,0.83282 z m -18.70608,0.8328 c -3.70344,-15.9503 2.38342,-22.11028 18.35477,-18.38578 5.07481,11.51188 0.67593,23.86798 -15.13124,18.38578 l -2.03942,0 -1.18411,0 z"
   id="path1430" /><path
   style="fill:#233a6d;fill-rule:nonzero;stroke:none"
   d="m 540.05502,470.36137 c 9.78545,5.47966 -2.95822,30.14681 -0.40359,5.29724 -3.77217,1.69967 -7.46032,-1.04445 0.40359,-5.29724 z"
   id="path1434" /><path
   style="fill:#233a6d;fill-rule:nonzero;stroke:none"
   d="m 547.95066,487.89706 c 4.85677,-8.59946 10.72923,-15.15289 0.40359,-16.57923 17.33684,-2.65164 4.53181,16.76897 9.20986,16.57923 -3.20448,0 -6.40897,0 -9.61345,0 z"
   id="path1438" /><path
   style="fill:#233a6d;fill-rule:nonzero;stroke:none"
   d="m 563.97512,424.28225 c -11.3019,-1.51073 -31.89585,6.2706 -26.20135,-12.23652 8.29403,0.49958 31.47955,-7.21033 26.20135,9.42904 l 0,2.03942 0,0.76806 z"
   id="path1440" /><path
   style="fill:#ffffff;fill-rule:nonzero;stroke:none"
   d="m 484.87079,391.22886 c 2.45137,-9.27519 -10.90418,-31.83635 3.31961,-29.86522 7.49794,16.5939 13.422,-16.32159 -2.94744,-6.29394 -19.97786,-5.8166 -9.32851,5.49576 -8.06182,18.26936 4.54159,21.77877 5.10388,44.60519 1.99456,66.49361 -23.50941,-12.0868 -20.42189,5.09812 0.39743,5.7069 20.44011,6.59477 12.80698,-1.18586 5.29769,-10.37736 -10e-6,-14.64445 -2e-5,-29.2889 -3e-5,-43.93335 z"
   id="path1444" /><path
   style="fill:#233a6d;fill-rule:nonzero;stroke:none"
   d="m 462.44269,440.24137 c 9.26642,-0.23073 28.3325,12.80378 30.94192,3.56185 -17.65286,0.45559 -6.02788,-23.19564 -9.35304,-34.50136 2.05249,-16.83211 -3.41762,-33.29602 -2.63935,-49.86827 11.94196,9.64433 20.30097,-4.5443 5.76557,-3.28637 -19.62129,-5.58839 -11.40456,2.62441 -9.25728,16.46096 4.75863,22.38959 5.01553,45.79593 2.10157,68.31862 -1.6074,1.24036 -23.58208,-11.22745 -17.55939,-0.68543 z m -1.29404,1.39655 c -6.54167,-17.36949 27.98093,6.76251 18.77789,-18.42256 1.5452,-21.36013 -1.87672,-42.31986 -5.82463,-63.2372 -12.0494,-11.61632 13.66867,-3.73233 21.07284,-6.82334 2.24189,13.0374 0.50195,18.65317 -12.29636,8.20708 -0.69586,12.45723 4.04312,25.62647 2.81874,35.9839 0,14.42024 0,28.84047 0,43.26071 22.98936,5.79697 -1.53025,12.29155 -12.66038,4.10653 -3.9627,-1.02504 -7.9254,-2.05008 -11.8881,-3.07512 z"
   id="path1448" /><path
   style="fill:#ffffff;fill-rule:nonzero;stroke:none"
   d="m 237.83575,427.10098 c 16.1546,3.77588 5.57706,-19.18037 8.58428,-28.55187 -6.24033,-17.40813 -11.69638,7.17234 -8.58428,16.84045 0,3.90381 0,7.80761 0,11.71142 z"
   id="path1450" /><path
   style="fill:#233a6d;fill-rule:nonzero;stroke:none"
   d="m 237.86009,393.80928 0,-0.8264 0,0.8264 z m 0.83921,32.46018 c 14.10558,1.60867 3.72518,-21.26866 6.89947,-30.59129 -11.92462,-8.16859 -5.20314,18.4014 -6.89947,26.68298 l 0,2.03942 0,1.86889 z m -1.67843,1.67842 c 0,-11.93687 0,-23.87375 0,-35.81062 17.49449,-5.24037 7.82628,16.68196 10.24992,26.51245 1.42133,10.46554 -0.5499,9.8403 -10.24992,9.29817 z"
   id="path1454" /><path
   style="fill:#ffffff;fill-rule:nonzero;stroke:none"
   d="m 347.72568,384.503 c -14.45451,-0.0299 -28.96443,-0.004 -43.4404,-0.0129 -4.38316,-15.71325 -16.06417,2.95262 -24.96339,0.37157 -9.64994,2.67118 -30.03988,-5.39763 -32.88454,4.07884 0,15.49081 0,30.98163 0,46.47244 33.76278,0 67.52555,0 101.28833,0 0.001,-16.96697 -0.002,-33.96274 0,-50.90995 z"
   id="path1458" /><path
   style="fill:#233a6d;fill-rule:nonzero;stroke:none"
   d="m 347.72248,384.49723 0,-0.8328 0,0.8328 z m -100.44912,8.47539 c 0,13.86514 0,27.73028 0,41.59542 33.2033,0 66.4066,0 99.6099,0 0,-16.41481 0,-32.82961 0,-49.24442 -14.16327,-0.59659 -30.68875,1.16903 -43.44039,-0.8392 -5.89974,-14.82249 -14.23699,5.96253 -25.32438,1.21077 -9.11919,3.20194 -31.61314,-6.97088 -30.84513,6.11826 l 0,1.15917 z m -1.66562,43.28025 c 0,-17.4099 0,-34.8198 0,-52.2297 14.35841,0 28.71683,0 43.07524,0 1.29994,-13.90888 18.23993,-2.27161 22.55017,-0.37155 12.11237,0.61237 26.64277,-1.19328 37.32854,0.8457 -0.005,17.20051 0.003,34.51217 0,51.75564 -34.31798,-3e-5 -68.63597,-6e-5 -102.95395,-9e-5 z"
   id="path1462" /><path
   style="fill:#ffffff;fill-rule:nonzero;stroke:none"
   d="m 271.14796,359.51562 c 16.37871,3.91457 5.90526,-19.02302 8.84054,-28.55187 -6.10267,-17.60143 -12.16279,6.76082 -8.84054,16.71234 0,3.94651 0,7.89302 0,11.83953 z"
   id="path1464" /><path
   style="fill:#233a6d;fill-rule:nonzero;stroke:none"
   d="m 271.16717,326.08748 0,-0.82642 0,0.82642 z m 0.8264,32.56268 c 14.38086,1.80707 3.97967,-21.16791 7.13009,-30.59129 -12.0177,-8.60268 -5.57025,18.16958 -7.13009,26.58048 l 0,2.03942 0,1.97139 z m -1.6656,1.67842 c 0,-11.97104 0,-23.94208 0,-35.91312 17.62349,-5.29464 8.1448,16.51292 10.47412,26.51245 1.49047,10.61245 -0.7045,9.93293 -10.47412,9.40067 z"
   id="path1468" /><path
   style="fill:#ffffff;fill-rule:nonzero;stroke:none"
   d="m 347.71927,321.336 c -2.49011,-9.79829 -23.08767,-1.48914 -32.63071,-4.2345 -10.89657,1.48817 -27.66862,-2.89915 -35.11479,2.03942 -0.0103,16.21024 -0.007,32.44188 0,48.65281 22.58397,0 45.16794,0 67.75191,0 -0.004,-15.48377 0.009,-30.98464 -0.006,-46.45773 z"
   id="path1472" /><path
   style="fill:#233a6d;fill-rule:nonzero;stroke:none"
   d="m 348.55144,321.336 -0.82639,0 0.82639,0 z m -67.75192,37.31608 c -3.57677,15.16536 17.52583,5.6876 26.51245,8.30883 13.18915,0 26.3783,0 39.56745,0 0,-16.34007 0,-32.68013 0,-49.0202 -22.02236,0 -44.04473,0 -66.06709,0 -0.0158,13.55948 -0.0138,27.1347 -0.0128,40.71137 z m -1.65919,9.98085 c -0.0241,-17.46103 -0.0154,-34.93476 0,-52.37705 23.13704,0 46.27407,0 69.41111,0 0.027,17.43632 0.007,34.92009 0.0129,52.37705 -23.14134,0 -46.28267,0 -69.42401,0 z"
   id="path1476" /><path
   style="fill:#ffffff;fill-rule:nonzero;stroke:none"
   d="m 347.72568,234.15793 c 0,-22.6096 0,-45.21919 0,-67.82879 -33.65174,0 -67.30349,0 -100.95523,0 0,22.6096 0,45.21919 0,67.82879 33.65174,0 67.30349,0 100.95523,0 z"
   id="path1480" /><path
   style="fill:#233a6d;fill-rule:nonzero;stroke:none"
   d="m 247.6039,233.31937 c 33.09227,0 66.18454,0 99.27681,0 0,-22.0544 0,-44.10879 0,-66.16319 -33.09227,0 -66.18454,0 -99.27681,0 0,22.0544 0,44.10879 0,66.16319 z m 100.11602,0.8392 0,-0.8392 0,0.8392 z m -84.39522,0.83282 c -16.99253,4.39686 -19.95661,-5.23472 -17.3928,-20.39419 0,-16.37101 0,-32.74203 0,-49.11304 34.21121,0 68.42243,0 102.63364,0 0,23.16908 0,46.33815 0,69.50723 -28.41361,0 -56.82723,0 -85.24084,0 z"
   id="path1484" /><path
   style="fill:#ffffff;fill-rule:nonzero;stroke:none"
   d="m 237.77167,292.69903 c 16.32297,3.88018 5.8231,-19.06248 8.7765,-28.55187 -5.92972,-17.93093 -12.14042,6.50241 -8.7765,16.52013 0,4.01058 0,8.02116 0,12.03174 z"
   id="path1486" /><path
   style="fill:#233a6d;fill-rule:nonzero;stroke:none"
   d="m 237.77232,259.07547 0,-0.8264 0,0.8264 z m 0.83922,32.7869 c 14.32825,1.74265 3.92173,-21.19478 7.07321,-30.60419 -10.93227,-9.53831 -6.19768,16.44939 -7.07322,24.32965 0,2.09151 1e-5,4.18303 1e-5,6.27454 z m -1.67842,1.66562 c 0,-12.04151 0,-24.08303 0,-36.12454 17.60154,-5.28549 8.09012,16.54197 10.43569,26.51245 1.3778,10.51205 -0.47061,10.29459 -10.43569,9.61209 z"
   id="path1490" /><path
   style="fill:#ffffff;fill-rule:nonzero;stroke:none"
   d="m 263.3324,234.14639 c -14.92729,-0.12599 2.52979,30.73219 0,5.69027 0,-1.89675 0,-3.79351 0,-5.69027 z"
   id="path1500" /><path
   style="fill:#233a6d;fill-rule:nonzero;stroke:none"
   d="m 258.84807,249.20096 c 10.95112,-5.16087 -3.49596,-24.5525 0,-1.98523 l 0,1.98523 z m 4.48433,1.66561 c -11.35955,4.15044 -7.55568,-23.67749 0,-17.55298 1.24488,3.46272 1.49986,14.10328 0,17.55298 z"
   id="path1502" /><path
   style="fill:#9ba9ca;fill-rule:nonzero;stroke:none"
   d="m 263.3324,250.03376 c -6.13541,-0.0876 -8.12626,0.19616 0,0 z"
   id="path1504" /><path
   style="fill:#161215;fill-rule:nonzero;stroke:none"
   d="m 257.82628,250.07669 c 14.00797,-0.19213 0.28992,0.0593 0,0 z"
   id="path1508" /><path
   style="fill:#ffffff;fill-rule:nonzero;stroke:none"
   d="m 246.74035,175.01721 c -18.13526,-5.49677 -9.47491,15.80208 -11.40303,26.51245 1.66596,10.46618 -6.36204,30.62631 11.40303,24.99337 0,-17.16861 0,-34.33721 0,-51.50582 z"
   id="path1510" /><path
   style="fill:#233a6d;fill-rule:nonzero;stroke:none"
   d="m 236.17014,225.69023 c 17.14077,4.37767 7.06466,-18.46153 9.73741,-28.55187 4.51642,-10.95529 -4.81676,-32.96817 -9.73741,-15.17008 0,14.57398 0,29.14797 0,43.72195 z m -1.66562,1.6656 c 0,-17.72381 0,-35.44761 0,-53.17142 17.1986,-5.13243 12.89918,7.44152 13.06863,20.39419 -2.69026,9.5951 5.42487,29.99558 -4.07884,32.77723 -2.9966,0 -5.99319,0 -8.98979,0 z"
   id="path1512" /><path
   style="fill:#ffffff;fill-rule:nonzero;stroke:none"
   d="m 470.69451,234.15793 c 0,-22.6096 0,-45.21919 0,-67.82879 -33.65174,0 -67.30348,0 -100.95522,0 0,22.6096 0,45.21919 0,67.82879 33.65174,0 67.30348,0 100.95522,0 z"
   id="path1516" /><path
   style="fill:#233a6d;fill-rule:nonzero;stroke:none"
   d="m 370.55993,233.31359 c 33.09867,0 66.19734,0 99.29601,0 -0.004,-22.04799 -0.009,-44.09597 -0.0129,-66.14396 -33.0944,0 -66.1888,0 -99.2832,0 3e-5,22.04799 6e-5,44.09597 9e-5,66.14396 z m 100.12882,0.84563 0,-0.84563 0,0.84563 z m -11.2621,0.82639 c -30.17745,0 -60.35489,0 -90.53234,0 0,-23.1648 0,-46.3296 0,-69.4944 34.21335,0 68.4267,0 102.64005,0 0,23.1648 0,46.3296 0,69.4944 -4.0359,0 -8.07181,0 -12.10771,0 z"
   id="path1520" /><path
   style="fill:#ffffff;fill-rule:nonzero;stroke:none"
   d="m 459.42602,234.14639 c -14.92729,-0.12599 2.52979,30.73219 0,5.69027 0,-1.89675 0,-3.79351 0,-5.69027 z"
   id="path1522" /><path
   style="fill:#233a6d;fill-rule:nonzero;stroke:none"
   d="m 454.94167,249.20096 c 10.95112,-5.16087 -3.49596,-24.5525 0,-1.98523 l 0,1.98523 z m 4.48435,1.72967 c -11.36743,4.14224 -7.5475,-23.73212 0,-17.61704 1.25255,3.49295 1.49006,14.13579 0,17.61704 z"
   id="path1524" /><path
   style="fill:#9ba9ca;fill-rule:nonzero;stroke:none"
   d="m 459.42602,250.03376 c -6.13541,-0.0876 -8.12626,0.19616 0,0 z"
   id="path1526" /><path
   style="fill:#161215;fill-rule:nonzero;stroke:none"
   d="m 453.90964,250.07028 c 13.72861,-0.29444 0.57133,0.166 0,0 z"
   id="path1530" /><path
   style="fill:#ffffff;fill-rule:nonzero;stroke:none"
   d="m 470.70092,226.52303 c 18.16924,5.5094 9.56717,-15.75252 11.46709,-26.51245 -1.64218,-10.51131 6.34225,-30.64922 -11.46709,-24.99337 0,17.16861 0,34.33721 0,51.50582 z"
   id="path1532" /><path
   style="fill:#233a6d;fill-rule:nonzero;stroke:none"
   d="m 470.69451,175.87629 0,-0.83281 0,0.83281 z m 0.81999,49.82739 c 17.17268,4.39677 7.11472,-18.43711 9.77587,-28.55187 4.52562,-10.97597 -4.8285,-32.9509 -9.76463,-15.15726 -0.004,14.56971 -0.007,29.13942 -0.0112,43.70913 z m -1.66561,1.67843 c 0,-17.72808 0,-35.45616 0,-53.18424 18.50038,-5.9694 12.29071,12.77124 13.1199,24.47303 -3.11096,9.17867 7.59485,32.17411 -8.15768,28.71121 -1.65407,0 -3.30815,0 -4.96222,0 z"
   id="path1536" /><path
   style="fill:#ffffff;fill-rule:nonzero;stroke:none"
   d="m 471.86428,367.87443 c 0,-16.92516 0,-33.85033 0,-50.77549 -28.31538,0 -56.63076,0 -84.94614,0 -0.0388,16.89277 -0.0107,33.85241 -0.0192,50.77549 28.32178,0 56.64356,0 84.96534,0 z"
   id="path1540" /><path
   style="fill:#233a6d;fill-rule:nonzero;stroke:none"
   d="m 387.73302,367.03972 c 27.76231,0 55.52461,0 83.28692,0 0,-16.36997 0,-32.73993 0,-49.1099 -27.75804,0 -55.51608,0 -83.27412,0 -0.0257,16.34831 -0.007,32.74138 -0.0128,49.1099 z m 84.13255,0.83279 0,-0.83279 0,0.83279 z m -85.81098,0.8328 c 0.0137,-17.47734 -0.0295,-35.01157 0.0256,-52.44751 28.87272,0 57.74544,0 86.61816,0 0,17.4825 0,34.96501 0,52.44751 -28.88125,0 -57.76251,0 -86.64376,0 z"
   id="path1544" /><path
   style="fill:#ffffff;fill-rule:nonzero;stroke:none"
   d="m 279.53431,460.10762 c 2.88673,7.78216 -6.25806,27.64564 6.11826,25.95791 14.99038,0 29.98075,0 44.97113,0 -2.4081,-10.4485 5.01433,-30.72753 -4.07884,-34.49096 -15.67018,0 -31.34037,0 -47.01055,0 0,2.84435 0,5.6887 0,8.53305 z"
   id="path1548" /><path
   style="fill:#233a6d;fill-rule:nonzero;stroke:none"
   d="m 279.52855,460.10762 0,-0.83921 0,0.83921 z m 0.82639,16.58564 c -3.67894,15.36293 17.40535,5.96264 26.52535,8.52664 12.53578,0.14429 28.81961,4.03663 22.89854,-14.27593 3.64465,-15.94177 -2.28915,-22.30509 -18.35477,-18.53659 -9.22151,3.16999 -31.70459,-6.9216 -31.05622,6.11826 -0.0201,6.04027 -0.0113,12.1087 -0.0129,18.16762 z m -1.65281,10.19866 c -0.0252,-12.05888 -0.01,-24.11345 0,-36.15656 17.58287,0 35.16574,0 52.74861,0 -1.38738,11.34461 2.75993,28.22392 -2.03942,36.15656 -16.90306,0 -33.80613,0 -50.70919,0 z"
   id="path1552" /><path
   style="fill:#ffffff;fill-rule:nonzero;stroke:none"
   d="m 271.46826,477.51773 c 16.22913,6.52806 6.4047,-30.98492 0,-13.346 0,4.44867 0,8.89733 0,13.346 z"
   id="path1554" /><path
   style="fill:#233a6d;fill-rule:nonzero;stroke:none"
   d="m 271.46442,460.93658 0,-0.8264 0,0.8264 z m 0.84563,15.76565 c 15.66381,4.63649 1.07888,-30.26482 0,-9.64739 0,3.2158 0,6.43159 0,9.64739 z m -1.68485,1.67202 c -6.20389,-12.64556 8.79841,-30.24764 9.74382,-10.95199 0.53056,9.65524 1.58664,12.72934 -9.74382,10.95199 z"
   id="path1558" /><path
   style="fill:#ffffff;fill-rule:nonzero;stroke:none"
   d="m 401.06558,132.35195 c -28.37944,0 -56.75889,0 -85.13833,0 2.49085,10.18638 -5.13652,30.49097 4.07884,33.95284 27.01983,0 54.03966,0 81.05949,0 0,-11.31761 0,-22.63523 0,-33.95284 z"
   id="path1560" /><path
   style="fill:#233a6d;fill-rule:nonzero;stroke:none"
   d="m 316.76006,165.47198 c 27.82424,0 55.64849,0 83.47273,0 -3.01078,-9.79105 6.66874,-32.27239 -6.11826,-32.28722 -25.78482,0 -51.56965,0 -77.35447,0 0,10.76241 0,21.52481 0,32.28722 z m -1.66561,1.66561 c 1.44082,-11.1118 -2.83408,-27.93932 2.03942,-35.61844 27.37875,-0.0112 59.34406,0.015 83.93171,0 1.95171,10.1987 0.27119,24.02964 0.8328,35.61844 -28.93464,0 -57.86929,0 -86.80393,0 z"
   id="path1562" /><path
   style="fill:#ffffff;fill-rule:nonzero;stroke:none"
   d="m 347.70198,321.33471 c 13.06864,0 26.13727,0 39.20591,0 -2.4985,-9.78777 -23.08865,-1.48389 -32.63071,-4.2281 -4.01196,0.6015 -8.36556,-2.33439 -6.5752,4.2281 z"
   id="path1564" /><path
   style="fill:#233a6d;fill-rule:nonzero;stroke:none"
   d="m 347.71927,317.92982 0,-0.8264 0,0.8264 z m 0.84563,2.56889 c 12.49848,0 24.99697,0 37.49545,0 -6.31139,-6.10162 -24.04538,-0.78063 -34.67013,-2.56889 -2.56726,-0.0921 -3.54591,-0.60635 -2.82532,2.56889 z m -1.67202,1.67201 c -1.17072,-12.65898 20.16984,-2.80668 28.55187,-5.91292 20.00336,-3.37689 10.79107,10.70996 -4.02773,5.91292 -8.17472,0 -16.34943,0 -24.52414,0 z"
   id="path1568" /><path
   style="fill:#9ba9ca;fill-rule:nonzero;stroke:none"
   d="m 347.70198,321.33471 c 0,-5.23341 0,-5.92397 0,0 z"
   id="path1570" /><path
   style="fill:#161215;fill-rule:nonzero;stroke:none"
   d="m 347.50659,321.33919 c -0.51897,-7.65324 1.06965,-3.57085 0,0 z"
   id="path1574" /><path
   style="fill:#9ba9ca;fill-rule:nonzero;stroke:none"
   d="m 386.90789,317.10661 c 0,5.23341 0,5.92397 0,0 z"
   id="path1576" /><path
   style="fill:#161215;fill-rule:nonzero;stroke:none"
   d="m 386.68176,321.32959 c -0.33931,-6.71302 0.80824,-5.37226 0,0 z"
   id="path1580" /><path
   style="fill:#ffffff;fill-rule:nonzero;stroke:none"
   d="m 386.90789,363.6156 c -13.04728,0 -26.09457,0 -39.14185,0 2.49852,9.78775 23.08865,1.48388 32.63071,4.22809 4.01517,-0.6044 8.29967,2.33976 6.51114,-4.22809 z"
   id="path1582" /><path
   style="fill:#233a6d;fill-rule:nonzero;stroke:none"
   d="m 348.59886,367.01087 c 12.49208,0 24.98416,0 37.47624,0 -6.32248,-6.08839 -24.04451,-0.77723 -34.67013,-2.56248 -2.56576,-0.11055 -3.51479,-0.57912 -2.80611,2.56248 z m 38.30903,0.89688 0,-0.89688 0,0.89688 z m -39.97465,0.76873 c -0.28077,-12.44244 21.41496,-2.90837 30.59129,-5.8937 19.37707,-2.14702 6.37431,10.90287 -6.09919,5.8937 -8.16404,0 -16.32807,0 -24.4921,0 z"
   id="path1584" /><path
   style="fill:#ffffff;fill-rule:nonzero;stroke:none"
   d="m 347.70198,388.72788 c 10.42001,2.99591 33.96703,-4.09852 11.45583,-4.22809 -4.0585,1.31977 -13.81846,-3.49008 -11.45583,4.22809 z"
   id="path1586" /><path
   style="fill:#233a6d;fill-rule:nonzero;stroke:none"
   d="m 347.72889,385.33515 0,-0.82639 0,0.82639 z m 0.82639,2.5689 c 14.8565,2.04883 28.48918,-3.70928 5.69218,-2.5689 -2.09329,0.87532 -7.48227,-2.16355 -5.69218,2.5689 z m -1.67202,1.672 c -3.38276,-10.46988 24.4819,1.02236 23.31215,-3.02787 0.24115,6.73899 -18.10132,1.22408 -23.31215,3.02787 z"
   id="path1590" /><path
   style="fill:#9ba9ca;fill-rule:nonzero;stroke:none"
   d="m 347.70198,388.72788 c 0,-5.23342 0,-5.92395 0,0 z"
   id="path1592" /><path
   style="fill:#161215;fill-rule:nonzero;stroke:none"
   d="m 347.50659,388.73877 c -0.50847,-7.73318 1.06753,-3.46871 0,0 z"
   id="path1596" /><path
   style="fill:#ffffff;fill-rule:nonzero;stroke:none"
   d="m 437.4124,460.10762 c 3.74781,-16.10945 -19.21165,-5.51163 -28.55187,-8.53305 -12.49309,-0.2198 -28.48925,-3.94268 -22.54392,14.27593 -2.9859,15.84251 1.22548,24.48772 18.35477,20.21503 9.57656,-2.69673 29.98066,5.43409 32.74102,-4.07884 0.01,-7.27254 0.065,-14.61925 0,-21.87907 z"
   id="path1600" /><path
   style="fill:#233a6d;fill-rule:nonzero;stroke:none"
   d="m 438.24458,460.10762 -0.8328,0 0.8328,0 z m -51.10863,25.11228 c 16.47887,0 32.95774,0 49.43661,0 0.0241,-10.9495 0.0274,-21.87063 0,-32.81892 -16.47887,0 -32.95774,0 -49.43661,0 0,10.93964 0,21.87928 0,32.81892 z m -1.65921,1.67202 c 1.38674,-11.34739 -2.75904,-28.22729 2.03942,-36.16296 16.61826,0.57309 35.52277,-1.14008 50.72842,0.84561 0.0394,11.76587 0.0372,23.55111 0,35.31735 -17.58928,0 -35.17856,0 -52.76784,0 z"
   id="path1604" /><path
   style="fill:#ffffff;fill-rule:nonzero;stroke:none"
   d="m 445.46051,460.09289 c -16.14436,-6.48647 -6.32186,30.95156 0,13.346 0,-4.44867 0,-8.89733 0,-13.346 z"
   id="path1606" /><path
   style="fill:#233a6d;fill-rule:nonzero;stroke:none"
   d="m 438.28557,476.68493 c 15.61634,4.61624 1.04429,-30.24241 0,-9.64098 0,3.21366 0,6.42732 0,9.64098 z m -1.6656,1.6656 c -3.47613,-10.6254 2.43876,-26.38396 9.67334,-17.05104 -1.47841,9.23154 5.39428,20.90568 -9.67334,17.05104 z"
   id="path1608" /><path
   style="fill:#ffffff;fill-rule:nonzero;stroke:none"
   d="m 470.65031,392.98032 c 2.62925,-15.53403 -20.71686,-5.09271 -30.59129,-8.12306 -13.24871,4.48127 -15.98782,-13.26105 -27.24384,-3.86069 -4.77048,7.95141 -24.12722,1.31656 -34.67013,3.49554 -15.75945,-4.61575 -6.21298,16.0744 -8.78949,24.64159 1.52249,11.31679 -6.2851,31.96366 12.23652,26.28133 29.68607,0 59.37215,0 89.05823,0 0.003,-14.13927 0.0147,-28.29761 0,-42.43471 z"
   id="path1612" /><path
   style="fill:#233a6d;fill-rule:nonzero;stroke:none"
   d="m 471.47671,392.97391 -0.8328,0 0.8328,0 z m -101.29476,-4.23449 c 0,15.27664 0,30.55327 0,45.82991 33.20971,0 66.41943,0 99.62914,0 0,-16.29309 0,-32.58618 0,-48.87927 -14.04286,-0.59529 -30.44071,1.16441 -43.08165,-0.8328 -5.14013,-15.17129 -14.42068,5.09299 -25.31798,0.46125 -8.38355,2.32704 -29.0051,-4.63548 -31.22951,3.42091 z m -1.65279,47.50834 c 0,-17.53162 0,-35.06325 0,-52.59487 14.48014,-0.004 28.96028,-0.009 43.44042,-0.0129 1.89273,-13.56103 18.50942,-1.67255 22.53091,0.38438 11.99554,0.60746 26.38694,-1.18093 36.97622,0.8328 0.0192,17.11579 0.0182,34.27447 0,51.3905 -34.31585,3e-5 -68.6317,6e-5 -102.94755,9e-5 z"
   id="path1616" /><path
   style="fill:#ffffff;fill-rule:nonzero;stroke:none"
   d="m 479.22116,392.95595 c -16.15461,-3.77589 -5.57709,19.18036 -8.5843,28.55187 6.24033,17.40813 11.69642,-7.17233 8.5843,-16.84045 0,-3.90381 0,-7.80761 0,-11.71142 z"
   id="path1618" /><path
   style="fill:#233a6d;fill-rule:nonzero;stroke:none"
   d="m 471.46966,426.26818 c 14.12865,1.62532 3.74633,-21.26033 6.9187,-30.59129 -11.92135,-8.23778 -5.24111,18.37307 -6.9187,26.66375 l 0,2.03942 0,1.88812 z m -1.6656,1.6656 c 1.42194,-11.19474 -2.80796,-28.04132 2.03942,-35.81062 14.87829,-4.64926 5.67678,14.92611 8.21048,24.47303 0.2549,10.71473 2.12794,12.69062 -10.2499,11.33759 z"
   id="path1620" /><path
   style="fill:#ffffff;fill-rule:nonzero;stroke:none"
   d="m 470.9072,258.24394 c 4.10467,-14.49005 -14.77072,-5.93717 -22.89608,-8.18071 -16.67998,4.0255 -18.63078,-6.67819 -32.58225,-5.38121 -2.97676,9.05794 -20.05827,4.01113 -30.84461,5.2595 -18.22573,-5.79996 -15.39047,9.46107 -14.8437,22.43361 3.11674,9.14801 -7.60527,32.13476 8.15768,28.63657 31.00298,0 62.00597,0 93.00896,0 0,-14.25592 0,-28.51184 0,-42.76776 z"
   id="putamierda8" /><path
   style="fill:#ffffff;fill-rule:nonzero;stroke:none"
   d="m 348.1753,258.24394 c 4.10467,-14.49005 -14.77072,-5.93717 -22.89608,-8.18071 -16.67998,4.0255 -18.63078,-6.67819 -32.58225,-5.38121 -2.97676,9.05794 -20.05827,4.01113 -30.84461,5.2595 -18.22573,-5.79996 -15.39047,9.46107 -14.8437,22.43361 3.11674,9.14801 -7.60527,32.13476 8.15768,28.63657 31.00298,0 62.00597,0 93.00896,0 0,-14.25592 0,-28.51184 0,-42.76776 z"
   id="putamierda7" /><path
   style="fill:#233a6d;fill-rule:nonzero;stroke:none"
   d="m 370.55993,300.16544 c 33.167,0 66.33401,0 99.50101,0 0,-16.42548 0,-32.85096 0,-49.27644 -14.17354,-0.49969 -30.48974,1.11502 -43.24823,-0.83273 -5.44035,-14.1358 -14.32772,5.42771 -25.08732,0.72027 -9.27391,3.15124 -31.75259,-6.90621 -31.16546,6.109 0,14.42663 0,28.85327 0,43.2799 z m -1.66562,1.67843 c 0,-17.5786 0,-35.1572 0,-52.7358 14.46946,-0.006 28.93891,-0.0128 43.40837,-0.0192 3.5033,-14.19528 17.13948,1.00501 24.34614,0.13452 11.37459,0.6147 25.08295,-1.14379 35.09055,0.8328 0,17.26256 0,34.52512 0,51.78768 -34.28169,0 -68.56337,0 -102.84506,0 z"
   id="path1628" /><path
   style="fill:#ffffff;fill-rule:nonzero;stroke:none"
   d="m 479.73366,292.76309 c -16.37873,3.91458 -5.90528,-19.023 -8.84056,-28.55187 5.86451,-18.03085 12.26982,6.34768 8.84056,16.45607 0,4.03193 0,8.06387 0,12.0958 z"
   id="path1630" /><path
   style="fill:#233a6d;fill-rule:nonzero;stroke:none"
   d="m 471.72591,291.93027 c 14.43405,1.84531 4.02934,-21.14814 7.17493,-30.59129 -10.90665,-9.82929 -6.39924,16.28649 -7.17493,24.23997 0,2.11711 0,4.23421 0,6.35132 z m 8.00775,0.83282 0,-0.83282 0,0.83282 z m -9.67336,0.83279 c 1.38352,-11.36129 -2.75454,-28.24416 2.03942,-36.195 16.05084,-3.7113 5.42703,19.25204 8.46674,28.55187 2.24567,10.37156 -2.79604,7.23785 -10.50616,7.64313 z"
   id="path1632" /><path
   style="fill:#233a6d;fill-rule:nonzero;stroke:none"
   d="m 265.18955,214.91116 c -6.25615,-11.11117 -4.75017,11.12393 0,0 z m -6.9315,8.94305 c 19.50033,1.00485 -15.13234,-13.43223 7.47826,-13.97426 10.01989,5.58454 -4.40245,26.63564 -7.47826,13.97426 z"
   id="path1636" /><path
   style="fill:#233a6d;fill-rule:nonzero;stroke:none"
   d="m 441.11583,209.48384 c 9.7854,5.47969 -2.95822,30.14677 -0.40359,5.29723 -3.76559,1.70202 -7.46556,-1.05299 0.40359,-5.29723 z"
   id="path1640" /><path
   style="fill:#233a6d;fill-rule:nonzero;stroke:none"
   d="m 457.55029,218.30195 c -7.47341,-23.4149 -4.63598,22.30025 0,0 z m -8.68681,0 c 15.64698,-33.06802 12.39182,31.60196 0,0 z"
   id="path1644" /><path
   style="fill:#233a6d;fill-rule:nonzero;stroke:none"
   d="m 291.85278,462.37862 c 9.7854,5.47969 -2.95822,30.14677 -0.40359,5.29723 -3.77222,1.69966 -7.4603,-1.04446 0.40359,-5.29723 z"
   id="path1648" /><path
   style="fill:#233a6d;fill-rule:nonzero;stroke:none"
   d="m 257.15041,426.18746 c 11.39195,0.74307 0.49369,-8.30772 4.49716,-11.80661 -10.21837,-4.40298 12.0057,-0.68741 5.77438,7.37759 5.94504,7.17003 -12.69739,12.26481 -10.27154,4.42902 z"
   id="path1652" /><path
   style="fill:#233a6d;fill-rule:nonzero;stroke:none"
   d="m 300.14176,346.92939 c -17.90552,-3.1599 14.34763,17.51633 -10.5062,14.72146 13.59772,-0.88018 -10.42919,-22.97414 10.50622,-15.29573 l -2e-5,0.57427 z"
   id="path1656" /><path
   style="fill:#233a6d;fill-rule:nonzero;stroke:none"
   d="m 257.07546,276.9558 c 19.81682,-8.89857 6.11444,21.82952 2.07819,15.66758 6.13022,-12.07111 6.01738,-11.13895 -2.07819,-15.66758 z"
   id="path1660" /><path
   style="fill:#233a6d;fill-rule:nonzero;stroke:none"
   d="m 416.96127,479.91429 c 4.85681,-8.59947 10.72923,-15.15284 0.4036,-16.57922 17.33684,-2.65166 4.53179,16.769 9.20985,16.57922 -3.20448,0 -6.40897,0 -9.61345,0 z"
   id="path1664" /><path
   style="fill:#233a6d;fill-rule:nonzero;stroke:none"
   d="m 455.94297,423.19705 c 4.75725,-17.73708 -10.09629,3.48809 0,0 z m -7.56573,-0.22422 c 6.87481,-17.77138 12.13234,-7.98726 13.16474,2.26364 -3.58832,7.29369 -7.96142,1.22673 -13.16474,-2.26364 z"
   id="path1668" /><path
   style="fill:#233a6d;fill-rule:nonzero;stroke:none"
   d="m 452.60214,356.42592 c 6.25149,11.11041 4.74686,-11.12321 0,0 z m 6.9315,-8.94304 c -19.50285,-1.00449 15.13868,13.42912 -7.48367,13.97417 -10.00957,-5.58133 4.40535,-26.6511 7.48367,-13.97417 z"
   id="path1672" /><path
   style="fill:#233a6d;fill-rule:nonzero;stroke:none"
   d="m 455.29209,284.01543 c 8.47277,-8.30294 -10.1417,-3.91339 0,0 z m -0.25624,8.16148 c 10.169,-6.53235 -10.19153,-6.45725 0,0 z m -2.95966,-6.82899 c -1.71221,-26.06129 21.521,17.97076 -2.73113,6.68875 -1.28132,-2.45678 0.0564,-5.84887 2.73113,-6.68875 z"
   id="path1676" /><path
   style="fill:#ec2923;fill-rule:nonzero;stroke:none"
   d="m 543.02686,297.05524 c -11.52808,-1.34485 -28.44625,2.70039 -36.57938,-2.03942 0,-25.22258 0,-50.44516 0,-75.66774 11.52808,1.34485 28.44625,-2.70039 36.57938,2.03942 0,25.22258 0,50.44516 0,75.66774 z"
   id="path1678" /><path
   style="fill:#ec2923;fill-rule:nonzero;stroke:none"
   d="m 584.98743,297.05524 c -11.55586,-1.33842 -28.47992,2.69135 -36.64344,-2.03942 0,-25.22258 0,-50.44516 0,-75.66774 11.55586,1.33842 28.47992,-2.69135 36.64344,2.03942 0,25.22258 0,50.44516 0,75.66774 z"
   id="path1680" /><path
   style="fill:#b48439;fill-rule:nonzero;stroke:none"
   d="m 543.02686,214.54343 c -11.55586,-1.33842 -28.47992,2.69135 -36.64344,-2.03942 0,-20.88771 0,-41.77543 0,-62.66314 11.55586,1.33842 28.47992,-2.69135 36.64344,2.03942 0,20.88771 0,41.77543 0,62.66314 z"
   id="path1682" /><path
   style="fill:#f8a11a;fill-rule:nonzero;stroke:none"
   d="m 140.46158,223.19181 c -22.01595,0 -44.031909,0 -66.047863,0 0,-24.40761 0,-48.81521 0,-73.22282 22.015954,0 44.031913,0 66.047863,0 0,24.40761 0,48.81521 0,73.22282 z"
   id="path1684" /><path
   style="fill:#f8a11a;fill-rule:nonzero;stroke:none"
   d="m 211.57035,223.25587 c -22.01596,0 -44.03191,0 -66.04787,0 0,-24.42896 0,-48.85792 0,-73.28688 22.01596,0 44.03191,0 66.04787,0 0,24.42896 0,48.85792 0,73.28688 z"
   id="path1686" /><path
   style="fill:#54b435;fill-rule:nonzero;stroke:none"
   d="m 211.57035,295.5818 c -22.03731,0 -44.07462,0 -66.11193,0 0,-22.44303 0,-44.88607 0,-67.3291 22.03731,0 44.07462,0 66.11193,0 0,22.44303 0,44.88607 0,67.3291 z"
   id="path1688" /><path
   style="fill:#54b435;fill-rule:nonzero;stroke:none"
   d="m 140.52564,295.5818 c -22.01595,0 -44.031907,0 -66.047861,0 0,-22.29356 0,-44.58712 0,-66.88068 22.015954,0 44.031911,0 66.047861,0 0,22.29356 0,44.58712 0,66.88068 z"
   id="path1690" /><path
   style="fill:#ffffff;fill-rule:nonzero;stroke:none"
   d="m 211.69847,374.76237 c -10.37216,-2.5294 -33.12118,7.31807 -28.50757,-10.1971 2.52364,-10.08577 -5.18451,-30.40333 4.07884,-33.7494 12.6966,0.20496 30.29418,-4.49107 24.42873,14.27593 0,9.89019 0,19.78038 0,29.67057 z"
   id="path1692" /><path
   style="fill:#4192d6;fill-rule:nonzero;stroke:none"
   d="m 183.1909,494.62228 c 10.37216,-2.5294 33.12118,7.31807 28.50757,-10.1971 0,-34.8673 0,-69.73461 0,-104.60192 -10.37216,2.5294 -33.12118,-7.31807 -28.50757,10.1971 0,34.8673 0,69.73461 0,104.60192 z"
   id="path1694" /><path
   style="fill:#fad318;fill-rule:nonzero;stroke:none"
   d="m 159.74359,530.1882 c 12.31507,18.57565 8.31224,62.75774 39.31326,57.87355 41.18368,-0.34567 82.50533,0.68878 123.60347,-0.5125 13.32024,-11.95203 18.23855,-30.00603 16.04031,-47.55645 0.26882,-16.48102 -22.60482,-7.51737 -33.24536,-9.8046 -48.57056,0 -97.14112,0 -145.71168,0 z"
   id="path1698" /><path
   style="fill:#892494;fill-rule:nonzero;stroke:none"
   d="m 391.06744,588.0752 c 48.19196,-0.66251 96.59483,1.34347 144.65107,-1.0362 19.03256,-10.09081 38.85222,-30.75866 32.88781,-54.0787 -11.65363,-6.23335 -27.70285,-1.29684 -41.15306,-2.87396 -46.76218,0.40848 -93.73009,-0.81588 -140.36408,0.61018 -5.18598,16.04293 -1.06342,34.8761 -2.3831,52.06154 -0.0231,3.21065 3.16978,5.85353 6.36136,5.31714 z"
   id="path1702" /><path
   style="fill:#233a6d;fill-rule:nonzero;stroke:none"
   d="m 528.87558,585.57871 c 20.5086,-5.20449 41.48477,-26.92041 37.81577,-49.66731 -6.73269,-7.60367 -22.82402,-1.21471 -33.12822,-3.32167 -48.42977,0.20516 -97.00475,-0.42983 -145.34445,0.29574 -2.01505,16.79665 -0.89232,34.32165 -0.63181,51.27598 18.57205,3.43508 39.26278,0.33804 58.60048,1.40189 27.56274,0.005 55.12549,0.0102 82.68823,0.0154 z m -145.60641,1.06984 c -1.95324,-17.95817 -1.41999,-36.69701 -0.28906,-54.78178 9.2107,-9.06582 25.15054,-2.1316 37.17765,-4.29607 48.01172,0 96.02343,0 144.03515,0 18.72153,11.5422 1.83532,39.87084 -11.5083,50.48273 -14.4217,16.13411 -26.65845,11.75676 -45.92225,12.53503 -38.56772,0 -77.13545,0 -115.70317,0 1.97232,-4.13137 -3.23669,4.9487 -7.79,-3.94021"
   id="path1706" /><path
   style="fill:#233a6d;fill-rule:nonzero;stroke:none"
   d="m 159.74039,532.69942 c 0,-3.70274 0,-2.29563 0,0 z m 20.30123,45.72101 c 9.02098,13.15787 29.14305,4.73174 43.48505,7.12369 32.85881,-0.26265 65.90261,0.66675 98.61393,-0.5434 10.12096,-11.25915 16.65957,-25.52709 14.04557,-40.92949 4.55319,-17.10455 -16.87499,-9.95793 -26.66177,-11.37226 -48.73436,0 -97.46871,0 -146.20307,0 5.55606,15.24649 11.02382,30.52616 16.72017,45.72102 m -4.68934,1.81294 c 0.66497,-15.74365 -36.53862,-58.33385 -4.91702,-52.56282 53.87726,0 107.75451,0 161.63176,0 15.56941,4.3898 8.01233,26.1109 7.8988,38.37309 -6.35367,12.08825 -13.29041,28.94092 -30.03709,24.52924 -42.06036,-0.46369 -84.27145,0.92131 -126.23894,-0.68048 -4.30777,-1.42072 -7.02437,-5.55228 -8.33756,-9.65914"
   id="path1710" /><path
   style="fill:#233a6d;fill-rule:nonzero;stroke:none"
   d="m 540.05502,386.85536 c 9.78545,5.47966 -2.95822,30.14679 -0.40359,5.29723 -3.77214,1.6996 -7.46036,-1.0444 0.40359,-5.29723 z"
   id="path1714" /><path
   style="fill:#233a6d;fill-rule:nonzero;stroke:none"
   d="m 554.88216,398.13539 c 4.75726,-17.7371 -10.0963,3.48807 0,0 z m -7.56571,-0.22422 c 6.87481,-17.77142 12.13231,-7.98726 13.16473,2.26364 -3.58832,7.29361 -7.96145,1.22676 -13.16473,-2.26364 z"
   id="path1718" /><path
   style="fill:#ea1f25;fill-rule:nonzero;stroke:none"
   d="m 292.30312,666.20387 c -22.8573,12.12052 -45.71459,24.24105 -68.57189,36.36157 22.8573,12.11625 45.71459,24.2325 68.57189,36.34875 22.72064,-12.11625 45.44128,-24.2325 68.16192,-36.34875 -22.72064,-12.12052 -45.44128,-24.24105 -68.16192,-36.36157 z"
   id="path1722" /><path
   style="fill:#ffffff;fill-rule:nonzero;stroke:none"
   d="m 292.30312,723.82183 c -8.94141,-8.96331 -25.03122,-6.99084 -32.72924,-10.45716 -6.8562,-13.43196 -2.88258,-8.86743 0,-23.67504 12.80568,3.50113 23.93494,-4.99596 34.53528,-7.33588 7.70145,10.72259 27.91039,2.69258 31.01291,11.41472 8.81708,9.81608 1.70468,11.33252 -2.03942,21.63562 -11.73649,-2.0279 -21.05953,2.35992 -30.77953,8.41774 z"
   id="path1726" /><path
   style="fill:#2c48a3;fill-rule:nonzero;stroke:none"
   d="m 259.55275,689.6909 c 21.86647,0 43.73295,0 65.59942,0 -1.43813,11.20365 6.18328,31.46686 -12.23652,25.68885 -17.78763,0 -35.57527,0 -53.3629,0 0,-8.56295 0,-17.1259 0,-25.68885 z"
   id="path1728" /><path
   style="fill:#ffffff;fill-rule:nonzero;stroke:none"
   d="m 265.4394,695.65699 c 11.04924,7.13046 4.36498,10.37038 14.90525,0 2.34566,16.28344 -3.4686,12.93016 -3.30794,6.02182 -3.36723,22.2364 -11.3199,-15.89214 -8.69525,8.07822 -6.20007,1.30456 -1.38599,-10.44329 -2.90206,-14.10004 z"
   id="path1732" /><path
   style="fill:#ffffff;fill-rule:nonzero;stroke:none"
   d="m 293.27303,705.34189 c -10.58883,-18.24789 -8.43529,14.81318 -2.21239,1.23639 -8.9359,3.06646 -4.17874,-3.52052 2.21239,-1.23639 z m -7.37993,-1.78734 c 2.90447,-5.60943 7.27246,2.30133 0,0 z"
   id="path1736" /><path
   style="fill:#ffffff;fill-rule:nonzero;stroke:none"
   d="m 298.99696,699.54876 c 2.96732,4.33524 -0.009,17.15743 -4.49714,1.864 0.0576,-2.01769 4.69348,-9.75035 4.49714,-1.864 z"
   id="path1740" /><path
   style="fill:#ffffff;fill-rule:nonzero;stroke:none"
   d="m 302.88233,699.54876 c 11.8168,-5.74192 1.09604,16.32523 -2e-5,6.13265 10e-6,-2.04422 10e-6,-4.08843 2e-5,-6.13265 z"
   id="path1744" /><path
   style="fill:#ffffff;fill-rule:nonzero;stroke:none"
   d="m 310.42689,704.65321 c 12.82757,19.58534 11.73867,-18.85184 0,0 z m 2.80592,0 c 6.22697,-11.59697 5.35145,11.16347 0,0 z"
   id="path1748" /><path
   style="fill:#b31b2d;fill-rule:nonzero;stroke:none"
   d="m 384.24227,650.42927 c -8.90034,-46.79939 -17.80068,-93.59878 -26.70102,-140.39817 -8.89607,46.79939 -17.79213,93.59878 -26.6882,140.39817 17.79641,0 35.59281,0 53.38922,0 z"
   id="path1822" /><path
   style="fill:#ffffff;fill-rule:nonzero;stroke:none"
   d="m 331.81653,649.62849 c 17.15152,0 34.30304,0 51.45456,0 -8.57789,-45.10388 -17.15578,-90.20776 -25.73367,-135.31164 -8.57363,45.10388 -17.14726,90.20776 -25.72089,135.31164 z m -0.96092,1.59513 c 4.93473,-37.8574 14.28374,-76.85516 20.91559,-115.15098 1.99349,-6.48285 4.50821,-38.26788 8.07793,-18.18119 8.39808,44.1238 16.76819,88.28138 25.18375,132.38406 -16.31694,2.19878 -36.55921,0.32439 -54.17727,0.94811 z"
   id="path1826" /><path
   style="fill:#b31b2d;fill-rule:nonzero;stroke:none"
   d="m 701.46102,443.89803 c -46.79939,-8.90034 -93.59878,-17.80067 -140.39817,-26.70101 46.79939,-8.89607 93.59878,-17.79214 140.39817,-26.68821 0,17.79641 0,35.59281 0,53.38922 z"
   id="path1830" /><path
   style="fill:#ffffff;fill-rule:nonzero;stroke:none"
   d="m 565.34219,417.19764 c 45.10388,8.5779 90.20776,17.1558 135.31164,25.7337 0,-17.15579 0,-34.31158 0,-51.46737 -45.10388,8.57789 -90.20776,17.15578 -135.31164,25.73367 z m -4.42667,0.78157 c 8.95064,-5.34808 24.55383,-5.18908 36.06375,-8.41854 35.09204,-6.67072 70.18408,-13.34143 105.27612,-20.01215 -0.64827,18.09189 1.3014,38.41754 -0.93529,55.13811 -46.80153,-8.90247 -93.60305,-17.80495 -140.40458,-26.70742 z"
   id="path1834" /><path
   style="fill:#b31b2d;fill-rule:nonzero;stroke:none"
   d="M 384.23587,0.38178752 C 375.33553,47.181175 366.43519,93.980563 357.53485,140.77995 348.64092,93.980563 339.74698,47.181175 330.85305,0.38178752 c 17.79427,0 35.58855,0 53.38282,0 z"
   id="path1838" /><path
   style="fill:#ffffff;fill-rule:nonzero;stroke:none"
   d="m 357.53485,136.49164 c 8.58003,-45.10388 17.16007,-90.20776 25.7401,-135.3116406 -17.15366,0 -34.30731,0 -51.46097,0 C 340.3876,46.28388 348.96123,91.38776 357.53485,136.49164 z m -0.78797,4.42668 C 347.79102,93.802895 338.83516,46.68747 329.8793,-0.42795548 347.97477,0.22890011 368.27593,-1.7110115 385.01743,0.53297333 376.11709,47.328089 367.21674,94.123204 358.3164,140.91832 l -1.56952,0 z"
   id="path1842" />
</svg>