<?xml version="1.0" encoding="UTF-8" standalone="no"?>
<!-- Generator: Adobe Illustrator 12.0.1, SVG Export Plug-In . SVG Version: 6.00 Build 51448)  -->

<svg
   xmlns:dc="http://purl.org/dc/elements/1.1/"
   xmlns:cc="http://creativecommons.org/ns#"
   xmlns:rdf="http://www.w3.org/1999/02/22-rdf-syntax-ns#"
   xmlns:svg="http://www.w3.org/2000/svg"
   xmlns="http://www.w3.org/2000/svg"
   xmlns:sodipodi="http://sodipodi.sourceforge.net/DTD/sodipodi-0.dtd"
   xmlns:inkscape="http://www.inkscape.org/namespaces/inkscape"
   version="1.1"
   id="Layer_1"
   viewBox="0 0 272.41 526.6"
   overflow="visible"
   enable-background="new 0 0 272.41 526.6"
   xml:space="preserve"
   inkscape:version="0.47 r22583"
   sodipodi:docname="johnny_automatic_iPod.svg"
   width="100%"
   height="100%"><metadata
   id="metadata187"><rdf:RDF><cc:Work
       rdf:about=""><dc:format>image/svg+xml</dc:format><dc:type
         rdf:resource="http://purl.org/dc/dcmitype/StillImage" /></cc:Work></rdf:RDF></metadata><defs
   id="defs185"><inkscape:perspective
   sodipodi:type="inkscape:persp3d"
   inkscape:vp_x="0 : 263.29999 : 1"
   inkscape:vp_y="0 : 1000 : 0"
   inkscape:vp_z="272.41 : 263.29999 : 1"
   inkscape:persp3d-origin="136.205 : 175.53333 : 1"
   id="perspective189" />
	
	
	
	
	
	
	
	
	
	
	
	
	
	
	
	
	
	
	
	
	
	
	
	
	
	
	
	
	
	
	
	
	
	
	
	
	
	
	
	
	
	
	
	
	
	
	
	
	
	
	
	
	
	
	
	
	
	
	
	
	
	
	
	
	
	
	
	
	
	
	
	
	
	
	
	
	
	
	
	
	
	
	
	
	
	
	
	
	
</defs><sodipodi:namedview
   pagecolor="#ffffff"
   bordercolor="#666666"
   borderopacity="1"
   objecttolerance="10"
   gridtolerance="10"
   guidetolerance="10"
   inkscape:pageopacity="0"
   inkscape:pageshadow="2"
   inkscape:window-width="956"
   inkscape:window-height="653"
   id="namedview183"
   showgrid="false"
   inkscape:zoom="0.44815802"
   inkscape:cx="136.205"
   inkscape:cy="259.09834"
   inkscape:window-x="0"
   inkscape:window-y="0"
   inkscape:window-maximized="0"
   inkscape:current-layer="Layer_1" />
<path
   style="fill:#dcddde"
   d="M 223.337,21.147 C 215.05583,34.310926 190.74002,32.366166 176.13918,40.14124 132.12351,53.824423 88.250646,67.967472 44.537,82.587 36.209826,75.15827 13.210228,64.756022 35.388478,76.412944 48.128508,81.63766 34.742219,96.765626 29.045912,101.00193 9.4582574,97.477641 -0.04214706,72.334988 23.822148,66.006422 88.317427,43.625299 154.75487,26.421515 218.92869,3.0592332 236.49061,-4.1208596 273.6481,15.890479 239.96473,20.569129 234.81289,22.646032 228.44042,24.510879 223.337,21.147 z m -10.558,-10.8 c -10.69208,6.200951 -44.28853,6.947286 -37.60211,20.680241 14.66888,-2.732081 42.00896,-5.591317 46.04699,-19.071655 C 219.28544,9.531059 215.45698,9.5961775 212.779,10.347 z m -62.401,21.84 c -10.68659,-6.474203 -25.3979,14.333761 -6.83475,9.8895 4.65897,0.683106 16.15983,-6.276536 6.83475,-9.8895 z m -31.44,9.84 c -9.75872,-2.410899 -31.587644,12.893312 -10.48816,9.546564 4.37313,-1.093707 27.60184,-7.23876 10.48816,-9.546564 z"
   id="path5" /><path
   style="fill:#dcddde"
   d="M 220.218,13.467 C 209.57643,18.036315 184.02528,31.264513 180.81946,22.541385 193.77682,19.856319 206.61772,7.9969722 220.218,13.467 z"
   id="path7" /><path
   style="fill:#ffffff"
   d="m 176.779,24.267 c 10.88264,10.948563 -14.25406,6.112243 0,0 z"
   id="path9" /><path
   style="fill:#ffffff"
   d="m 183.257,27.867 c -0.63833,1.872145 -2.33313,-0.763232 0,0 z"
   id="path11" /><path
   d="m 153.739,37.227 c -7.16388,13.799213 -29.62895,-3.18717 -9.76138,-5.20014 3.42399,-0.633752 11.01231,-0.336312 9.76138,5.20014 z m -0.96,-0.72 c -8.0264,-13.178346 -29.15668,11.042015 -6.66674,3.987232 2.50688,-0.623626 5.3348,-1.526185 6.66674,-3.987232 z"
   id="path13" /><path
   style="fill:#ffffff"
   d="m 133.579,38.907 c 6.82881,-13.977158 29.99923,1.816792 7.36597,2.456315 -2.56903,0.21187 -5.86261,0.124233 -7.36597,-2.456315 z m 17.758,-4.08 c -9.90211,-2.424244 -18.32964,2.834381 -10.9313,5.208791 -0.72367,-13.914833 16.23539,1.775952 0.8513,0.551209 2.69378,-1.004072 12.46676,-0.608648 10.08,-5.76 z"
   id="path15" /><path
   style="fill:#ffffff"
   d="m 149.417,34.827 c 4.57352,1.85692 -3.03004,5.607971 0,0 z"
   id="path17" /><path
   style="fill:#ffffff"
   d="m 137.179,36.507 c 4.49787,0.194717 -2.26082,6.660714 0,0 z"
   id="path19" /><path
   style="fill:#ffffff"
   d="m 135.739,39.387 c -2.05071,-4.53993 4.1546,-0.44553 0,0 z"
   id="path21" /><path
   style="fill:#ffffff"
   d="m 117.739,43.227 c -1.44082,11.065822 -23.031004,4.007472 -4.31399,1.581584 1.47192,-0.429984 2.87435,-1.059491 4.31399,-1.581584 z"
   id="path23" /><path
   style="fill:#ffffff"
   d="m 119.659,43.227 c 2.98373,1.045716 -1.86254,4.252343 0,0 z"
   id="path25" /><path
   style="fill:#ffffff"
   d="m 121.099,43.227 c 5.78875,0.324162 -2.79383,5.04014 0,0 z"
   id="path27" /><path
   style="fill:#ffffff"
   d="m 118.938,43.707 c 1.67887,2.557129 -1.35353,1.657703 0,0 z"
   id="path29" /><path
   style="fill:#ffffff"
   d="m 102.858,48.027 c 3.43727,1.26005 -2.0697,4.489678 0,0 z"
   id="path31" /><path
   style="fill:#ffffff"
   d="m 100.938,48.747 c 2.10521,1.526202 -1.784835,3.002699 0,0 z"
   id="path33" /><path
   style="fill:#ffffff"
   d="m 101.659,48.747 c 2.35483,1.313898 -1.46958,3.136002 0,0 z"
   id="path35" /><path
   style="fill:#ffffff"
   d="m 98.779,50.187 c 0.977869,-5.09401 2.8089,2.515197 0,0 z"
   id="path37" /><path
   d="m 243.5,54.027 c 1.59973,7.355315 -1.16078,7.006593 0,0 z"
   id="path39" /><path
   d="m 159.5,61.947 c 0.89461,10.185824 -0.21746,17.385295 -0.0757,2.722221 L 159.5,61.947 z"
   id="path41" /><path
   d="m 157.337,62.667 c 2.60707,9.902593 -1.21768,25.688928 0.48409,7.013714 L 157.64516,67.349747 157.337,62.667 l 0,0 z"
   id="path43" /><path
   d="m 153.019,65.547 c 0.93114,4.670487 -0.0294,14.237412 -0.11697,3.986399 L 153.019,65.547 z"
   id="path45" /><path
   d="m 151.337,80.667 c -1.62649,-14.6807 1.65555,-16.898433 0,0 z"
   id="path47" /><path
   d="m 149.417,68.187 c 1.33076,8.871527 -0.009,31.86719 -0.0605,10.937487 0.0693,-3.644877 0.23942,-7.292703 0.0605,-10.937487 z"
   id="path49" /><path
   d="m 147.739,70.587 c 0.73424,16.184225 -0.32904,23.545192 0,0 z"
   id="path51" /><path
   d="m 145.58,76.347 c 2.55278,9.123299 -1.5302,10.034838 0,0 z"
   id="path53" /><path
   d="m 268.218,78.987 c 0.80203,35.75395 0.80104,71.52604 0,107.28 0,-35.76 0,-71.52 0,-107.28 z"
   id="path55" /><path
   d="m 93.739,81.867 c 1.338874,3.855654 -0.0068,13.680142 -0.15513,4.070644 L 93.739,81.867 z"
   id="path57" /><path
   d="m 91.579,82.587 c 1.522981,8.022683 -0.226143,26.69258 2.17e-4,7.767602 L 91.642384,86.470834 91.579,82.587 z"
   id="path59" /><path
   d="m 89.898,83.787 c 0.918596,10.645976 -0.449798,26.69873 -0.0016,7.17265 -0.03853,-2.390526 -0.08026,-4.782388 0.0016,-7.17265 z"
   id="path61" /><path
   style="fill:#dcddde"
   d="m 31.338,103.947 c -3.811819,11.36682 -0.727756,34.17776 -1.867906,50.20146 0.365197,111.24161 -1.262442,222.5754 -0.153068,333.75719 -1.951927,12.36793 22.00082,35.63634 -1.288564,21.91195 C -0.87777199,499.69263 -1.1180028,468.44496 1.3596078,443.25412 1.5389094,334.92137 2.3480371,226.58245 2.4265376,118.25596 -0.37029997,97.66522 5.250616,74.335528 24.261611,99.617295 26.439369,101.31721 28.548903,103.28002 31.338,103.947 z"
   id="path63" /><path
   style="fill:#ffffff"
   d="m 239.178,89.787 c 2.18839,1.698642 -1.24826,3.276168 0,0 z"
   id="path65" /><path
   style="fill:#ffffff"
   d="m 239.178,94.587 c 1.93365,0.890964 -0.84123,2.727251 0,0 z"
   id="path67" /><path
   style="fill:#ffffff"
   d="m 239.178,96.747 c 1.94697,0.401485 -1.36549,2.487254 0,0 z"
   id="path69" /><path
   d="m 43.099,138.747 c 1.25216,53.17014 0.06736,106.40436 0.479996,159.602 C 42.45146,245.15438 43.425716,191.94707 43.099,138.747 z"
   id="path71" /><path
   d="m 255.979,151.707 c 1.59674,10.53468 -0.59103,32.69233 -0.003,9.54787 0.004,-3.18262 0.007,-6.36525 0.003,-9.54787 z"
   id="path73" /><path
   d="m 262.218,154.587 c 1.05022,10.3098 -0.45366,23.26341 6e-5,5.9081 -6e-5,-1.96936 -4e-5,-3.93873 -6e-5,-5.9081 z"
   id="path75" /><path
   d="m 258.138,155.067 c 1.14574,10.11155 0.32701,51.46961 -0.12237,22.36594 0.0118,-7.45542 0.39556,-14.91102 0.12237,-22.36594 z"
   id="path77" /><path
   d="m 260.059,158.187 c 0.75983,10.14698 -0.19144,32.23941 -0.003,9.64297 0.0298,-3.21417 0.0608,-6.42886 0.003,-9.64297 z"
   id="path79" /><path
   d="m 264.378,162.027 c 0.72708,12.50437 -0.45,11.85456 0,0 z"
   id="path81" /><path
   d="m 266.059,169.707 c 1.32772,15.16494 -0.97652,16.75328 0,0 z"
   id="path83" /><path
   d="m 268.218,187.707 c 2.0146,2.61853 -1.07595,4.57318 0,0 z"
   id="path85" /><path
   d="m 267.979,192.267 c 2.53255,2.49089 -1.08987,4.48457 0,0 z"
   id="path87" /><path
   d="m 268.218,195.867 c 1.86774,0.78835 -1.13406,4.14305 0,0 z"
   id="path89" /><path
   d="m 48.858,208.587 c 2.015723,2.83114 -0.97893,6.18596 0,0 z"
   id="path91" /><path
   d="m 267.979,208.587 c 2.09437,0.36616 -1.19939,2.42003 0,0 z"
   id="path93" /><path
   d="m 48.858,215.307 c 1.459965,9.03352 0.106104,47.11207 -0.0711,20.31802 0.04088,-6.77244 0.247919,-13.54575 0.0711,-20.31802 z"
   id="path95" /><path
   d="m 267.979,222.747 c 0.3962,61.4162 0.29307,122.83419 0.1195,184.251 -0.2804,-61.41668 -0.0383,-122.83403 -0.1195,-184.251 z"
   id="path97" /><path
   d="m 216.859,240.027 c 1.59591,6.91462 -0.62386,11.7211 0,0 z"
   id="path99" /><path
   d="m 216.859,249.147 c 0.14216,10.65448 1.26131,40.7127 2.58243,13.21442 0.50548,-9.62485 -4.1289,23.57007 8.08009,23.72897 33.04368,35.46733 23.21262,92.7268 -5.11053,127.93419 -23.49807,31.69836 -68.60373,54.80428 -106.88793,36.0574 -13.5371,2.74497 -2.07663,15.15913 -8.00257,-1.78682 -0.38332,10.12015 -0.84464,23.75742 -0.82149,5.25659 -1.86223,-24.99233 -2.09266,43.68836 -2.1438,8.38523 1.14481,-10.2908 -2.08887,-27.48494 -1.72368,-7.97127 -0.18807,8.34094 0.52779,29.60886 -0.47155,29.97566 -0.57716,-11.10115 1.3577,-41.33456 -1.19941,-39.28747 -1.302002,10.14834 -0.2704,36.7621 -0.70385,11.38087 1.00631,-8.79825 -2.384749,-24.11721 -1.919556,-6.16523 -0.05339,6.08146 0.788422,-20.75168 -9.281384,-23.24505 -26.64189,-45.06736 -5.357134,-104.73711 32.66253,-136.33414 24.15126,-20.44161 59.83618,-30.63296 89.54804,-16.36121 4.36232,-8.18921 -0.21377,-26.64279 1.86193,-5.79307 1.96763,17.36257 1.50311,-34.53698 1.66079,-4.90994 1.30664,30.07794 2.47443,-7.09523 1.86994,-14.07913 z m 2.16,30.72 c -34.90089,-23.9411 -83.20542,-7.37876 -108.47186,23.05333 -30.633855,33.18961 -44.952085,88.40848 -17.260471,127.60514 21.256671,29.7045 65.772081,31.90796 94.782841,12.48553 44.59296,-25.64314 72.14191,-84.79461 53.00082,-134.32851 C 237.03984,296.99555 227.02777,286.54682 219.019,279.867 z"
   id="path101" /><path
   d="m 210.859,259.947 c 0.95493,12.66979 -0.4821,16.14466 0,0 z"
   id="path103" /><path
   style="fill:#dcddde"
   d="m 219.019,281.308 c 29.855,19.42606 33.02084,61.25696 23.27491,92.69539 -13.93445,45.62102 -58.15398,86.85347 -108.24741,81.07987 C 99.327705,450.66299 76.604876,414.97064 78.556692,381.5545 79.428939,329.84711 117.8458,277.46067 170.33491,269.12436 c 16.25542,-1.97483 37.23669,0.25338 48.68409,12.18364 z m -50.881,47.519 c -27.51394,1.74277 -47.62502,39.78612 -27.9655,61.44762 29.16664,22.812 70.02293,-23.54606 49.66737,-51.82742 -4.67908,-7.0083 -13.33991,-10.9457 -21.70187,-9.6202 z"
   id="path105" /><path
   d="m 194.779,349.467 c 3.99201,25.06035 -20.824,53.49233 -46.87539,45.49555 -27.71483,-12.91401 -14.66426,-54.71919 9.76768,-63.84067 14.83669,-6.7667 35.10521,0.84652 37.10771,18.34512 z M 165.5,329.787 c -25.55709,4.32198 -43.90231,41.30501 -23.22077,60.78158 23.43188,15.99986 53.73994,-11.53763 51.70632,-36.52899 0.0478,-15.1157 -13.49592,-26.9235 -28.48555,-24.25259 z"
   id="path107" /><path
   style="fill:#ffffff"
   d="m 174.378,330.267 c 23.90704,3.76959 24.47968,37.13218 9.60039,51.3896 -11.77535,17.73339 -45.00963,19.54891 -49.95051,-4.56756 -5.11897,-22.72699 15.93979,-50.92631 40.35012,-46.82204 z"
   id="path109" /><path
   d="m 267.979,408.267 c 1.67019,6.32898 -1.7191,7.59099 0,0 z"
   id="path111" /><path
   d="m 268.699,430.347 c 0.10391,1.12339 0.10391,1.12339 0,0 z"
   id="path113" /><path
   d="m 268.699,436.827 c 0.0641,1.45844 0.0641,1.45844 0,0 z"
   id="path115" /><path
   d="m 270.138,23.547 c 5.09727,31.549295 0.81942,63.687888 2.18224,95.49593 0.28514,108.07493 -0.6022,216.14998 -0.62457,324.21717 1.95383,29.74033 -33.78954,29.59646 -53.68027,37.40052 C 168.95354,495.34261 120.59227,512.27373 71.417,526.586 46.66814,522.14157 18.805639,510.49296 3.7545723,490.37881 -4.1565832,465.67167 2.4616088,439.16769 0.45584722,413.65647 0.76877255,307.72654 1.8356617,201.79309 1.7174966,95.866172 3.1990204,70.933977 28.437809,60.655337 49.388751,56.331827 107.12784,37.400863 165.78994,21.12495 223.00463,0.7133612 241.83059,-2.8370502 257.34212,12.044569 270.138,23.547 z M 12.378,90.507 C -7.4822156,89.512422 6.7616893,125.71187 2.2873905,139.82796 2.715323,245.83636 0.94566473,351.84114 1.5485508,457.8495 -5.4642986,482.58936 13.955448,511.18314 38.561186,512.60379 25.094234,494.61219 29.229886,472.9675 28.994809,451.93093 28.929345,343.66483 29.386966,235.38941 29.668722,127.13379 32.565413,106.40582 32.147592,100.96272 12.378,90.507 z M 228.619,24.027 C 239.20821,20.347428 269.31213,14.567894 243.83089,5.0048829 222.20291,-5.39993 200.83132,12.576686 179.713,16.618192 128.31006,33.358982 76.141723,48.198296 24.92638,65.163106 4.5290005,70.872541 4.406373,93.235915 24.273973,99.116449 34.081115,105.57442 39.68208,87.836381 40.880706,81.180774 35.646269,74.739101 11.012079,63.589832 30.01861,74.331179 47.896422,87.107214 67.247157,74.772636 84.946775,69.180827 131.92011,53.757847 179.34139,39.413469 226.35702,24.334352 228.1903,21.410491 217.89444,21.07657 228.619,24.027 z m -0.481,0.96 C 166.12293,44.278276 104.25181,64.324407 42.372294,83.857182 28.760089,86.668613 39.0196,113.27793 37.327259,106.87661 c -11.178322,-0.49308 13.518591,3.13121 8.207738,4.11957 -1.405866,19.83603 0.06741,-10.43082 -12.585858,-1.41051 -6.713964,18.48148 -0.251577,39.78074 -2.37026,59.45434 0.06357,57.43636 -0.675358,114.86022 -0.556894,172.30669 -0.08937,46.97768 -0.378324,93.96002 0.220814,140.92097 -2.555314,14.85326 7.718701,37.01705 24.99042,31.19671 -9.93772,-0.33922 -12.360507,7.58766 -0.267673,3.35436 -14.533136,8.67756 24.982062,10.83559 31.907498,4.51109 55.939366,-19.27235 113.140386,-35.2275 169.102826,-54.25484 9.00115,-8.50274 8.09248,-8.31682 1.20958,0.55468 24.57148,-13.33087 10.11873,-43.50017 13.70658,-65.5102 -0.32183,-113.6716 0.56295,-227.33779 0.68567,-340.996623 -1.24192,-14.999006 6.03283,-42.016769 -15.36747,-44.654357 -10.50483,1.040232 -33.12274,7.576022 -15.58413,15.788766 4.78681,9.162039 3.16919,25.966703 2.3045,5.767398 -6.25515,-10.241817 -0.79728,13.881239 -6.37217,-1.381689 C 216.04804,36.895385 196.33685,49.49512 175.6784,53.145221 138.19406,65.192878 100.25113,76.044392 63.058706,88.857455 56.896282,92.442372 38.261122,114.17165 50.921907,100.50518 58.289066,90.788343 41.57745,79.04335 55.324751,90.764913 47.399646,79.633712 47.038417,86.420975 57.706678,89.617508 80.273817,83.485124 102.23188,73.729067 125.47796,68.343764 162.63398,56.950692 199.64766,45.100373 236.78,33.631 c -9.16606,-4.51725 10.31165,1.247282 -3.17641,-5.77678 -1.71155,-1.173006 -3.59982,-1.980353 -5.46559,-2.86722 z"
   id="path117" /><path
   style="fill:#ffffff"
   d="m 220.218,15.627 c -5.00656,4.517676 -7.40148,0.951357 0,0 z"
   id="path119" /><path
   style="fill:#ffffff"
   d="m 240.378,32.667 c -10.31109,-1.919232 -0.0945,1.437684 -11.41916,3.413521 C 175.87386,52.723762 122.72315,69.156171 69.592186,85.651746 60.959316,100.323 39.213963,73.691956 55.114675,90.666243 43.981413,84.78332 48.061918,80.522247 53.541303,91.387426 52.896231,100.48412 39.745607,113.136 50.426674,99.039597 62.676793,89.052085 81.007549,80.113413 99.078721,77.152934 145.27202,62.801358 191.26713,47.793567 237.737,34.347 c 2.7791,17.393065 1.90756,-12.461653 5.53149,7.104234 1.80509,18.842695 1.57251,-16.179856 -11.03253,-15.656112 8.34003,-12.254177 40.88264,-14.088579 39.65889,8.819339 -0.824,137.482439 -1.11217,275.022989 -1.03685,412.531539 4.53894,11.75669 -25.35576,29.21791 -6.03427,11.46769 -13.12943,14.69376 -31.53389,16.52507 -49.13876,21.57097 -48.0978,14.61231 -95.72321,30.72536 -143.78897,45.44034 -7.059786,1.43598 -32.298932,-6.5051 -14.4,-9.601 -10.681965,5.04777 -17.446702,-2.06258 -1.787276,-2.9297 -29.775086,9.39258 -25.676977,-35.49437 -25.867981,-53.88945 -0.01848,-97.44961 0.356923,-194.9513 0.870278,-292.40216 1.529929,-18.55322 -5.411501,-48.35556 4.54145,-59.84224 9.144399,2.78708 11.34897,19.69106 10.076219,2.87165 -9.411841,1.09203 -17.951176,-9.29931 -4.369167,-1.38744 C 17.575804,95.001551 54.382722,75.962663 69.760313,75.242111 122.47829,58.256185 175.28326,41.5413 228.137,24.983 c 4.50434,1.814298 8.4274,4.740186 12.241,7.684 z m 26.161,-0.24 c 2.06582,11.008054 2.30171,16.911986 2.03402,2.478391 -2.58535,-12.575879 -31.50264,-2.465217 -7.91817,-6.299073 2.36259,0.335775 4.8344,1.533442 5.88415,3.820682 z M 243.5,59.547 c 1.92371,-5.309454 -1.78993,-7.775705 0,0 z m -84,18.72 c 1.20661,-9.761745 -0.31105,-20.558263 -0.0566,-4.506261 L 159.5,78.267 z m -1.681,-8.88 c -1.52232,10.393993 1.08338,14.93747 0.35771,1.126795 -0.0139,-6.990627 -1.1283,-9.69045 -0.35771,-1.126795 z m -4.8,6.72 c 0.93114,-4.670487 -0.0294,-14.237412 -0.11697,-3.986399 L 153.019,76.107 z m -81.601,43.44 c 0.137716,43.67998 -0.618681,87.36151 0,131.04 19.365293,9.24879 38.53089,-9.2315 58.06949,-10.86579 35.51131,-10.89756 70.94856,-22.04047 106.57051,-32.57421 11.28977,-22.56879 1.26954,-48.65271 4.58198,-72.72723 -5.05691,-20.93888 11.39494,-56.424992 -10.3197,-67.531126 -21.95047,4.432894 -42.47844,14.596292 -64.60731,19.361952 C 140.4813,93.860054 115.24172,101.44909 90.136,109.467 c 7.685154,-7.56609 -18.672065,7.75941 -18.718,10.08 z m 80.162,-52.32 c -2.18356,12.623468 1.48643,16.43489 0,0 z m -2.163,1.68 c -0.56543,8.392764 0.7686,27.031274 0.48,8.076519 -0.71933,-1.807573 1.19481,-7.834923 -0.48,-8.076519 z m 6,13.92 c 1.27167,-13.278785 -1.74719,-16.828431 0,0 z m -7.438,7.2 c 0.25734,-11.997057 -0.44443,-23.132025 -0.25838,-4.631692 L 147.979,90.027 z m -1.681,-5.28 c 0.67386,-7.758671 -1.45827,-10.360868 0,0 z m 121.92,101.52 c 0.80104,-35.75396 0.80203,-71.52605 0,-107.28 0,35.76 0,71.52 0,107.28 z M 94.219,92.187 C 95.22038,88.06112 93.101633,78.444632 93.739237,88.16922 L 94.219,92.187 z m -2.64,-8.88 c -0.58695,10.543911 0.944848,23.15197 0.442986,5.389515 C 91.515029,88.743981 92.937641,82.168809 91.579,83.307 z m -2.161,18.24 c 2.260756,-4.464037 -0.457737,-26.663157 0.473866,-5.825146 0.07113,1.958557 -0.270781,3.884705 -0.473866,5.825146 z m -46.319,37.92 c 0.323916,52.95942 -0.645445,105.92605 0.48,158.88 0.021,-53.20035 -0.115217,-106.4014 0.24,-159.601 l -0.72,0 0,0.721 z m 212.88,37.44 c 1.47295,-7.77511 -0.27968,-33.58997 -0.008,-12.4695 -0.006,4.1565 -0.008,8.31302 0.008,12.4695 z m 6.239,-5.76 c 0.83859,-14.27535 -0.19019,-23.95968 0,0 z m -4.08,-15.36 c -0.58154,9.19105 0.65427,46.92845 0.41224,19.16175 0.0126,-5.94436 0.48488,-15.64076 -0.41224,-19.16175 z m 2.16,27.12 c 0.23414,-10.73537 -0.33907,-31.71611 -0.27595,-8.89567 0.001,2.96678 0.0452,5.93642 0.27595,8.89567 z m 4.321,-9.12 c 0.35749,-11.41912 -0.86947,-12.84979 0,0 z m 1.2,8.4 c 2.24857,-7.36633 -0.90577,-17.3497 0,0 z m 2.88,9.12 c 1.16053,-4.29616 -2.02297,-3.18842 0,0 z m 0,4.32 c 0.98798,-4.76783 -2.78311,-3.02221 0,0 z m -0.481,2.16 c 1.86774,-0.78835 -1.13406,-4.14305 0,0 z m 0,10.32 c 1.55401,-3.99273 -0.37011,-12.69851 -0.29813,-3.61911 l 0.29813,3.61911 z m -219.36,5.04 c 2.351126,-3.73651 -1.491384,-7.4925 0,0 z m 219.36,-3.12 c 1.9529,-1.58433 -1.89192,-2.04475 0,0 z m -219.36,3.84 c -0.808984,2.95499 2.189058,-0.55959 0,0 z m 219.36,5.04 -0.0546,-2.48589 0.0546,2.48589 z m -219.36,-2.88 c -0.268353,9.74318 0.286307,48.7094 0.526272,18.78505 -0.02657,-6.25509 0.30708,-12.56573 -0.526272,-18.78505 z m 219.121,99.36 c 0.0826,30.53694 -0.16228,61.07466 0.1195,91.611 0.17226,-61.41681 0.27883,-122.8348 -0.1195,-184.251 0,30.88 0,61.76 0,92.64 z m -51.12,-66.96 c 1.46556,-7.24631 -0.57431,-11.79292 0,0 z m -0.24,28.56 c -2.98573,-8.30663 -1.10444,-37.19731 -1.66474,-12.99818 -0.44315,17.73695 -2.5638,2.18264 -1.84119,-5.94468 5.94607,29.22935 -22.87032,2.92157 -36.94792,9.40912 -62.03748,5.73228 -108.061279,73.001 -97.075374,133.11604 1.022098,20.90944 23.164294,33.07445 19.358052,54.08815 -0.568845,-10.73387 2.085872,-19.77354 1.771792,-2.92891 0.12512,7.25786 0.31661,25.75734 0.47795,8.14599 -2.025518,-10.57442 2.81797,-23.65396 1.68343,-5.86878 0,11.31308 0,22.62617 0,33.93925 1.71985,-11.35422 -1.38839,-41.68857 2.11241,-40.13572 0.18485,11.16664 -0.21749,39.02309 0.45418,13.91352 -0.24475,-11.40281 2.116,-20.63256 1.67756,-3.18137 0.20546,20.49697 0.78002,-29.18738 2.764,-0.20048 -1.28779,11.03232 -2.4596,-18.74218 8.95634,-7.56115 32.08982,15.78059 70.60535,-1.19883 93.95797,-25.09851 33.93133,-33.59972 50.35475,-92.63567 20.24168,-133.73985 -12.34974,-6.70329 -14.57867,-21.21817 -13.40398,-34.30732 1.48774,8.42987 -2.15921,28.11153 -1.78919,8.52585 0.57911,-13.52666 -0.99712,-18.50944 -0.45892,-2.15263 0.0227,4.32758 -0.004,8.65873 -0.27405,12.97966 z m -5.76,-16.32 c -0.0348,14.21626 -0.0722,8.8368 1.05061,-0.19872 l -0.92613,-0.54015 -0.12448,0.73887 z m -168.001,121.2 c 0.04013,15.53705 -0.09094,60.67259 0.08692,57.41573 0.232586,-46.11434 0.614042,-92.22915 0.412876,-138.34437 -0.924984,26.94685 -0.264464,53.96338 -0.499795,80.92864 z m 225.121,33.6 c 1.24555,-5.77594 -1.12441,-11.35467 0,0 z m 0.96,18.96 c 1.0732,-2.63202 -1.60708,-5.15937 0,0 z m 0,7.68 -0.1926,-4.37532 0.1926,4.37532 z m -2.88,12.48 c 3.60995,-9.56569 3.48091,-17.47961 0,0 z m -22.559,16.32 c 1.85003,0.9931 3.69496,-3.2402 0,0 z m -20.401,6.24 c 9.4646,-2.28231 25.5589,-8.14731 7.38897,-2.56423 -2.49194,0.76738 -4.96624,1.59813 -7.38897,2.56423 z m -5.28,1.44 c 4.46007,0.49505 8.40169,-3.93487 0,0 z m -13.92,3.84 c -35.7438,11.56822 -71.8859,21.92648 -107.28,34.559 39.9154,-12.98661 79.96832,-25.54439 120.002,-38.16 -4.32246,0.91791 -8.35066,2.87426 -12.722,3.601 z m -155.76,10.32 c -1.623762,11.82612 29.955364,30.35213 7.365784,14.44411 C 53.349249,507.60493 46.399883,481.91604 48.139,492.747 z"
   id="path121" /><path
   d="M 247.58,30.507 C 261.3307,15.831269 273.24192,46.891202 268.6885,45.470246 271.38339,32.588921 259.18983,23.533385 247.58,30.507 z"
   id="path123" /><path
   d="m 152.059,36.027 c -2.84632,5.11826 -16.06903,4.660505 -3.361,2.4 -3.19829,-8.568035 -8.79519,0.652076 -11.11337,0.707024 C 132.64034,34.817742 148.4137,31.336917 152.059,36.027 z m -15.121,3.12 c 1.58883,-4.486143 -4.08911,0.848259 0,0 z m 12.24,-1.2 c 4.45646,-0.639576 -1.88834,-5.874223 0,0 z m -11.518,1.92 c 3.48109,-2.866574 -3.16793,-5.914216 0,0 z"
   id="path125" /><path
   style="fill:#ffffff"
   d="m 123.259,43.227 c 2.63351,1.829805 -2.15392,3.760097 0,0 z"
   id="path127" /><path
   style="fill:#ffffff"
   d="m 100.699,48.027 c -1.060718,5.003569 -5.582432,-0.159763 0,0 z"
   id="path129" /><path
   d="m 125.418,43.467 c -5.15669,13.755739 -43.435354,7.199849 -15.20511,0.513631 4.79314,-1.459545 10.5893,-3.753532 15.20511,-0.513631 z m -21.119,4.08 c 7.29228,8.134416 20.69428,-10.050131 3.45406,-1.010651 -1.15135,0.336903 -2.30271,0.673766 -3.45406,1.010651 z m 15.84,-1.68 c 2.2594,-4.063364 -2.6962,-2.577641 0,0 z m 1.199,0 c 6.00687,-1.60699 -4.0497,-5.056392 0,0 z m 1.441,0 c 3.49913,-1.025709 -0.72088,-5.140256 0,0 z m -4.321,-1.92 c -0.31382,3.612656 1.99765,0.124518 0,0 z m -20.639,4.8 c -1.820731,6.702953 6.09734,-4.929097 0,0 z m 2.4,1.68 c 1.26858,-3.575922 -3.986909,0.716558 0,0 z m 3.119,0.48 c 2.73012,-4.074128 -2.99561,-3.13275 0,0 z m -2.159,0 c 1.93882,-3.205141 -2.32244,-1.823959 0,0 z m 0.48,0 c 2.34466,-1.441811 -1.37146,-3.076638 0,0 z"
   id="path131" /><path
   d="m 89.898,109.467 c 9.713669,-2.45389 43.50451,-13.880937 62.54744,-19.214027 26.14233,-7.891605 52.30503,-15.720976 78.33256,-23.985973 21.36697,12.365 4.38874,42.45454 9.96865,62.32233 -0.84184,24.50259 0.99097,49.01932 -0.12665,73.51767 -16.12488,13.19887 -38.57947,12.69244 -57.12874,20.95707 C 148.7209,233.76523 114.00404,244.64625 79.1,254.907 61.031553,238.05491 75.883366,210.6195 71.266656,189.19139 71.402023,165.97682 71.327835,142.7617 71.42,119.547 c 2.350781,-8.16579 12.535896,-6.60651 18.478,-10.08 z m -13.199,142.56 c -8.921493,-19.3825 -1.256418,-41.23784 -3.756834,-61.6921 0.135779,-23.75468 -0.904151,-47.53898 0.636834,-71.2679 19.786204,-10.65583 42.45288,-14.36225 63.49219,-21.936584 31.78977,-9.643059 63.31234,-20.198551 95.40661,-28.813666 7.02867,4.865988 10.62937,9.153786 2.21477,0.997615 -26.02911,-0.387017 -48.89844,15.260124 -74.22286,19.642828 -28.62077,8.567883 -57.14913,17.444897 -85.572636,26.646197 -5.290576,23.37599 -0.612233,47.56084 -2.706186,71.29261 -0.297483,20.82949 0.05522,41.66075 -0.05289,62.491 24.857751,7.96593 47.14314,-12.36443 71.19992,-15.18739 30.98698,-9.4965 62.03566,-18.79282 92.96008,-28.49261 9.56293,-24.87593 -0.13427,-51.87262 3.5295,-77.65566 0.34136,-9.5402 -0.23258,-38.986101 -0.58153,-14.81456 -0.48315,28.10175 0.44191,56.21115 -0.30597,84.31022 -0.045,-41.35999 0.0302,-82.72 0,-124.08 -19.43129,-9.90594 -39.03887,9.399413 -58.8258,10.88454 -34.61396,10.568373 -69.19449,21.24993 -103.6532,32.31546 -7.819656,25.25374 -0.505972,52.03782 -3.162483,77.94497 4.110988,17.38944 -8.295026,47.13041 6.91424,56.75957 8.219606,1.40901 28.969413,-9.5824 9.972993,-1.39879 -4.329616,1.43956 -8.904777,2.34884 -13.48675,2.05425 z M 239.66,92.187 c 1.12049,-3.753167 -2.18654,-1.858306 0,0 z m 0,3.84 c 0.8409,-2.723193 -1.93561,-0.89302 0,0 z m -0.482,1.92 c 1.94697,-0.401485 -1.36549,-2.487254 0,0 z"
   id="path133" /><path
   d="m 155.66,68.427 c 0.92877,17.476256 -2.36805,12.876148 0,0 z"
   id="path135" /><path
   d="m 176.779,100.107 c -7.0272,11.33064 -23.41902,35.72313 -25.61892,38.04465 8.64538,-12.61036 16.58381,-25.70148 25.61892,-38.04465 z"
   id="path137" /><path
   d="m 230.298,111.867 c -3.74775,8.53336 -26.19131,38.84461 -10.51743,15.85759 3.55349,-5.25386 7.12856,-10.49506 10.51743,-15.85759 z"
   id="path139" /><path
   d="m 163.819,114.027 c -8.87567,15.44231 -31.54029,47.39281 -34.00664,50.8289 11.20177,-17.03239 22.90239,-33.7318 34.00664,-50.8289 z"
   id="path141" /><path
   d="m 221.66,120.267 c -4.92789,8.69377 -26.38943,39.90806 -22.56587,33.92059 7.19748,-11.52081 15.22195,-22.49562 22.56587,-33.92059 z"
   id="path143" /><path
   d="m 164.539,121.707 c -8.72471,13.72127 -28.54165,43.33204 -31.1073,46.31328 10.09706,-15.61844 20.54069,-31.00967 31.1073,-46.31328 z"
   id="path145" /><path
   d="m 222.378,127.947 c -4.66862,8.17848 -22.54952,35.11877 -20.44758,30.63301 6.38785,-10.49276 13.827,-20.29218 20.44758,-30.63301 z"
   id="path147" /><path
   d="m 165.257,167.547 c -6.74543,10.93231 -21.94646,34.31323 -24.55124,36.39326 8.33495,-12.02869 16.27419,-24.32521 24.55124,-36.39326 z"
   id="path149" /><path
   d="m 152.779,181.707 c -11.78349,16.92818 -22.45953,34.63054 -34.78193,51.17798 11.86523,-16.87515 22.36324,-34.68839 34.78193,-51.17798 z"
   id="path151" /><path
   d="m 153.5,189.147 c -10.89397,15.67681 -20.77393,32.06237 -32.18978,47.37118 C 131.97815,220.68672 142.03699,204.42959 153.5,189.147 z"
   id="path153" /><path
   d="m 268.218,198.507 c 1.86558,8.24747 -1.13105,13.09732 0,0 z"
   id="path155" /><path
   d="m 238.458,199.227 c 1.78535,1.57568 -1.49897,3.12997 0,0 z"
   id="path157" /><path
   d="m 237.5,202.827 c -30.66389,14.01234 -64.26777,19.82013 -95.89175,31.31067 -7.5726,2.41453 -37.77035,11.66871 -32.05873,9.51527 42.15551,-13.96771 85.60691,-24.91891 127.12466,-40.22433 L 237.5,202.827 z"
   id="path159" /><path
   d="m 49.338,213.627 c 2.359397,2.5419 -2.453471,0.97603 0,0 z"
   id="path161" /><path
   d="m 268.699,219.387 c -1.38633,8.19412 -0.49654,-15.13437 0,0 z"
   id="path163" /><path
   d="m 43.099,298.587 c 1.021452,47.92626 -0.356795,95.8663 -0.115073,143.79453 C 42.747133,394.45409 42.77552,346.51662 43.099,298.587 z"
   id="path165" /><path
   d="m 268.218,442.587 c -0.17397,10.03419 -2.61951,13.11011 -0.0339,1.05907 l 0.0339,-1.05907 z"
   id="path167" /><path
   d="m 245.66,470.188 c -0.90464,1.78128 -4.82309,-0.22676 0,0 z"
   id="path169" /><path
   d="m 243.257,470.907 c -8.83578,3.64318 -25.95974,7.41118 -7.70549,2.18799 2.56859,-0.72898 5.14328,-1.43661 7.70549,-2.18799 z"
   id="path171" /><path
   d="m 222.619,477.147 c -4.81887,3.86265 -4.55624,-0.63962 0,0 z"
   id="path173" /><path
   d="m 216.619,478.827 c -40.03338,12.6155 -80.0854,25.17503 -120.001,38.16 39.61959,-13.88655 79.85439,-25.91378 120.001,-38.16 z"
   id="path175" /><path
   d="m 47.898,488.427 c -3.142672,12.30132 29.311641,36.40436 8.089367,19.03012 C 51.395718,502.17609 48.363915,495.4439 47.898,488.427 z"
   id="path177" /><path
   d="m 220.939,11.307 c -5.95096,17.526413 -34.03268,16.417704 -47.00472,19.323202 0.15265,-15.660951 30.4979,-14.907972 42.88564,-20.603003 L 220.939,11.307 z m -0.721,1.44 C 207.3994,11.052334 181.82932,18.314906 180.98465,26.092153 194.82039,24.867085 208.40764,19.989286 220.218,12.747 z m -4.801,5.04 c 5.44921,-0.487678 6.68857,-4.07925 0,0 z m -43.438,10.8 c 12.5893,13.947175 5.53739,-12.947753 0,0 z m 10.08,-0.24 c 2.32885,0.763462 0.6414,-1.871386 0,0 z"
   id="path179" /><path
   style="fill:#a4a4a4"
   d="M 102.378,246.027 C 86.636652,256.15124 64.420885,250.07734 73.425814,227.94388 73.328156,191.89189 73.01122,155.83685 73.578,119.787 92.495255,108.44647 115.21237,106.08721 135.57389,98.041631 167.82968,88.04324 200.14664,78.243882 232.458,68.427 c 15.05785,19.71911 1.85545,46.73375 6.49455,69.49466 0.0366,16.73755 -0.19591,50.14503 0.0606,56.5208 0.71941,-32.08148 -0.60194,-64.18199 0.64385,-96.25546 0.004,34.00018 0.41462,67.99971 0.24,102 -20.51286,17.94228 -50.12579,15.62826 -73.8291,27.07298 -28.90727,8.98755 -57.84943,17.8662 -86.892275,26.40689 -16.193766,-15.06114 -2.522842,-40.08204 -6.999311,-59.36819 0.307056,-24.69852 0.388548,-49.39902 0.535436,-74.09881 14.054204,-14.17626 36.67757,-12.39894 53.94459,-20.982606 C 162.34525,88.548179 197.85342,77.275067 233.656,66.987 c 7.73344,3.289384 6.12006,13.573602 1.199,1.439 -35.29892,7.461785 -69.12374,20.680417 -103.82495,30.515554 -17.94219,7.652686 -42.13643,8.895426 -55.930678,21.013726 -6.060523,25.87609 -0.07604,52.70212 -2.244092,78.99238 4.040041,16.55847 -12.174537,61.33163 17.914591,50.84042 3.825565,-1.36012 7.537,-3.21169 11.608129,-3.76108 z m 47.039,-105.36 c 8.12891,-10.63374 24.15083,-35.17764 25.56727,-38.08153 -8.89706,12.44009 -16.8164,25.54161 -25.56727,38.08153 z m 61.682,0.24 c 5.94731,-7.06153 25.90034,-38.91288 10.50209,-15.87251 -3.55544,5.25415 -7.12545,10.50061 -10.50209,15.87251 z m -83.52,27.36 c 10.23799,-14.57798 32.34888,-46.83144 34.01153,-50.82567 -11.17905,17.04755 -22.88124,33.74578 -34.01153,50.82567 z m 80.879,-27.6 c -7.15727,7.70455 -15.60215,24.44213 -4.59006,6.79008 6.1132,-8.72401 23.47942,-35.44788 8.644,-13.65396 -1.46104,2.22028 -2.8466,4.49428 -4.05394,6.86388 z m -77.04,30.48 c 9.41899,-13.23061 29.15384,-42.94454 31.01026,-46.37815 -10.54967,15.31537 -20.96123,30.72862 -31.01026,46.37815 z m 67.919,-8.16 c 5.11594,-7.82631 21.06172,-30.28853 20.25873,-30.78768 -6.81559,10.21954 -14.19605,20.084 -20.25873,30.78768 z m -39.358,12.96 c -5.51756,7.25244 -20.50013,29.42138 -18.32724,27.48589 5.20605,-8.22304 20.11782,-28.80526 19.98359,-30.8603 l -1.65635,3.37441 0,0 z m -11.28,10.56 c -8.19897,13.68238 -28.97757,43.12552 -30.2014,46.01159 7.71448,-11.25472 33.39503,-48.4872 30.69661,-46.6195 l -0.49521,0.60791 0,0 z m -5.039,15.84 c -4.30732,8.36561 -19.78586,28.7131 -19.64092,30.71828 9.93903,-14.56402 19.60832,-29.30949 29.48092,-43.91828 -3.99194,3.87079 -5.80744,9.36262 -9.84,13.2 z m 94.798,-0.72 c 1.74984,-2.54987 -1.18829,-3.11974 0,0 z m -14.639,6.48 c -40.10817,13.23517 -80.79445,24.62575 -120.96,37.68 44.7693,-13.9865 90.50766,-26.18632 134.38287,-42.22911 -4.43707,0.82924 -8.64667,5.16453 -13.42287,4.54911 z"
   id="path181" />
</svg>