<?xml version="1.0" encoding="UTF-8" standalone="no"?>
<!-- Created with Inkscape (http://www.inkscape.org/) -->

<svg
   xmlns:dc="http://purl.org/dc/elements/1.1/"
   xmlns:cc="http://creativecommons.org/ns#"
   xmlns:rdf="http://www.w3.org/1999/02/22-rdf-syntax-ns#"
   xmlns:svg="http://www.w3.org/2000/svg"
   xmlns="http://www.w3.org/2000/svg"
   xmlns:sodipodi="http://sodipodi.sourceforge.net/DTD/sodipodi-0.dtd"
   xmlns:inkscape="http://www.inkscape.org/namespaces/inkscape"
   id="svg2835"
   version="1.1"
   inkscape:version="0.47 r22583"
   width="98.227753"
   height="107"
   xml:space="preserve"
   sodipodi:docname="uah.svg"><sodipodi:namedview
     pagecolor="#ffffff"
     bordercolor="#666666"
     borderopacity="1"
     objecttolerance="10"
     gridtolerance="10"
     guidetolerance="10"
     inkscape:pageopacity="0"
     inkscape:pageshadow="2"
     inkscape:window-width="1280"
     inkscape:window-height="752"
     id="namedview2837"
     showgrid="false"
     inkscape:zoom="1.7800235"
     inkscape:cx="-15.46375"
     inkscape:cy="75.406379"
     inkscape:window-x="0"
     inkscape:window-y="0"
     inkscape:window-maximized="0"
     inkscape:current-layer="svg2835"
     borderlayer="false" /><metadata
     id="metadata2841"><rdf:RDF><cc:Work
         rdf:about=""><dc:format>image/svg+xml</dc:format><dc:type
           rdf:resource="http://purl.org/dc/dcmitype/StillImage" /><dc:title /></cc:Work></rdf:RDF></metadata><defs
     id="defs2839"><inkscape:perspective
       id="perspective2843"
       inkscape:persp3d-origin="0.5 : 0.33333333 : 1"
       inkscape:vp_z="1 : 0.5 : 1"
       inkscape:vp_y="0 : 1000 : 0"
       inkscape:vp_x="0 : 0.5 : 1"
       sodipodi:type="inkscape:persp3d" /></defs><path
     style="fill:#1f57ad;fill-opacity:1;fill-rule:nonzero;stroke:none"
     d="m 0,107 c 32.742583,0 65.485167,0 98.22775,0 0,-35.666667 0,-71.333333 0,-107 C 65.485167,0 32.742583,0 0,0 0,35.666667 0,71.333333 0,107 z"
     id="path2847" /><path
     style="fill:#ffffff;fill-opacity:1;fill-rule:nonzero;stroke:none"
     d="m 39.56955,21.752 c 4.269233,4.835234 0.564587,-4.923374 0,0 z m 16.309,-0.89 c -2.654265,5.878438 4.721203,-1.505386 0,0 z m -2.151,1.672 c 0.507546,-6.517921 -12.870099,-4.530142 -9.806787,-0.115225 3.264024,-0.244626 6.549618,-0.210929 9.806787,0.115225 z m -26.441,8.041 c -3.070339,3.344893 -5.339464,-2.799635 -1.467841,-2.468425 0.823768,0.565 1.158934,1.570009 1.467841,2.468425 z m 4.328,3.22 c -2.083,0.784 -4.166,1.568 -6.249,2.352 -0.87751,-3.607242 4.583093,-5.840571 6.249,-2.352 z m -6.233,6.08 c -1.316467,-3.743903 10.71111,-5.643171 4.573603,-1.532236 -1.478901,0.64095 -3.059119,0.991618 -4.573603,1.532236 z m -1.637,0.525 C 20.046177,39.221822 18.661188,49.575518 17.107151,43.269723 16.649488,41.135567 25.082019,36.119865 23.74455,40.4 z m -3.169,6.201 c -1.592432,-3.570511 5.727892,-5.901901 2.4539,-1.238745 -0.59325,0.734087 -1.505086,1.212443 -2.4539,1.238745 z m 33.054,-21.02 c -3.048734,-0.04989 -9.246443,0.731747 -10.166627,-0.405533 3.285191,-0.899585 7.042835,-1.187269 10.166627,0.405533 z m 11.333,8.214 c 0.881862,-5.933977 9.963355,2.989497 4.073952,1.533356 C 67.678518,34.817237 66.320534,34.306119 64.96255,33.795 z m 11.039,12.806 c -3.647685,0.950449 -3.966802,-7.49515 -0.609,-2.962125 0.669723,0.836752 0.617461,1.957745 0.609,2.962125 z m -3.161,-8.091 c 3.457946,0.0059 9.579351,4.883859 4.860714,7.15398 C 78.121905,40.84303 72.663901,42.234866 72.84055,38.51 z m -8.255,-3.106 c 2.206,0.83 4.412,1.66 6.618,2.49 0.925079,3.875401 -7.294368,0.07543 -6.618,-2.49 z m 6.701,-3.689 c -5.4852,-3.082029 5.53505,-4.418424 0.367564,-0.222738 l -0.248444,0.150553 -0.11912,0.07219 0,0 z m -17.353,-2.825 c 0.640719,5.454964 9.236298,3.129216 9.296398,8.191854 2.093935,4.603685 9.535559,2.526074 8.672083,8.903141 4.806399,1.273004 3.917258,5.881946 4.47199,9.67511 2.111209,0.620883 0.976222,-3.790566 1.266529,-5.419121 -0.691725,-3.558531 5.615712,-4.578495 2.938184,-8.992999 -1.612954,-4.266811 -10.802145,-2.80526 -7.584805,-9.137346 4.643856,-3.909249 7.329216,4.492402 12.381088,3.226625 6.525982,0.467092 -3.564283,-3.5646 -0.431317,-4.399445 2.233434,2.018011 7.48569,0.430616 2.709221,-1.259144 C 82.876887,25.774314 81.642224,17.93308 74.97705,16.37375 73.056673,15.672641 67.921211,18.731835 71.425612,15.032859 76.305002,8.9345442 65.476937,3.2448094 62.216083,9.9892061 c -2.022237,1.7656519 -4.972271,7.4498609 -3.232102,8.4091219 4.304545,-1.824312 4.213623,-8.128136 8.544149,-9.1954714 5.642039,3.0793164 -1.375616,7.4046284 -3.092906,10.3691294 -1.717466,3.949808 2.593703,6.806382 4.910439,7.859391 -1.792212,4.973283 -8.621664,6.653639 -12.589327,2.986561 -4.098163,-2.688202 7.6756,-1.82443 3.686473,-5.562289 -7.825238,-2.223531 -16.358445,-2.283417 -24.210483,-0.08374 -5.28414,3.437075 9.766668,3.577288 2.110422,6.491642 -1.728399,0.650148 -3.456799,1.300297 -5.185198,1.950445 -1.806872,-2.17561 -9.291731,-5.511198 -3.035107,-7.447968 6.677656,-4.010468 -1.460078,-9.788399 -3.193749,-13.691719 1.329977,-5.3575994 6.883474,-1.378258 6.851192,2.476123 1.536599,2.691196 6.873439,5.830685 4.042031,0.465445 C 36.159263,10.645316 30.30892,3.9119997 25.610012,8.3326718 22.768553,10.676456 25.756118,16.619274 26.21316,16.80199 20.499672,14.923742 15.265548,19.565596 13.27869,24.606071 12.149912,27.572482 7.8976583,30.390266 6.8287223,31.701806 8.6956135,32.49548 15.292272,29.515723 11.11755,33.132 c -6.1047434,2.861647 4.543032,3.304854 5.849217,0.273732 3.01001,-4.684388 10.069665,-1.242495 6.090483,3.610862 -3.764761,0.682017 -10.002754,4.19297 -6.681041,8.729274 4.459043,2.142845 1.0813,7.971405 3.534139,10.289651 1.37337,-1.399007 0.349446,-3.906499 0.665204,-5.794535 -0.763036,-3.274817 5.043508,-1.856322 4.351199,-6.224544 0.612075,-4.81555 8.380879,-2.688845 8.682277,-7.987912 1.617475,-3.478499 7.663537,-2.649735 9.547624,-6.720185 3.311439,-0.973259 7.199247,0.449882 10.776898,-0.418343 z m 25.027,34.19 c 0.06324,-3.339179 -3.246055,-6.214134 -3.917381,-1.492616 -1.908207,2.816664 3.366706,3.365733 3.917381,1.492616 z m -57.026,0 c 0.06209,-3.338841 -3.246165,-6.214101 -3.917506,-1.492273 -1.9077,2.816472 3.367145,3.365207 3.917506,1.492273 z m 29.631,1 c -2.214,0 -4.428,0 -6.642,0 0,-2.213667 0,-4.427333 0,-6.641 2.214,0 4.428,0 6.642,0 0,2.213667 0,4.427333 0,6.641 z m -32.461,6.535 c 0.06509,-4.035494 -3.916078,-4.978462 -3.835935,-0.439215 0.584601,1.267433 2.672122,0.111866 3.835935,0.439215 z m 5.445,0 c 0.06509,-4.035494 -3.916078,-4.978462 -3.835935,-0.439215 0.584601,1.267433 2.672122,0.111866 3.835935,0.439215 z m 27.016,0 c 0,-2.178333 0,-4.356667 0,-6.535 2.147333,0 4.294667,0 6.442,0 0.07218,-3.716891 -1.911335,-8.074258 -6.215841,-6.720419 0.578646,-3.684485 -0.901393,-8.56124 -5.744155,-6.190414 -2.888387,1.557662 1.195181,7.875299 -4.074515,6.137312 -4.425786,0.834492 -4.845188,9.338976 1.157525,6.773521 4.138422,-0.353163 -0.795677,8.901619 5.278997,6.535 1.051996,0 2.103993,0 3.155989,0 z m 14.074,0 C 65.341982,60.935323 62.440264,49.837984 53.426428,44.726931 48.636534,45.26532 46.935433,37.69589 52.766895,39.854064 58.08373,37.028897 45.84673,39.706001 49.578611,36.068562 c 3.159418,0.628101 4.25439,-2.352607 0.360336,-1.746499 -1.069772,-0.283199 -1.128957,-5.09421 -2.630072,-1.860301 1.821991,3.27312 -6.398237,0.999761 -2.562582,3.476356 5.193738,-0.211802 1.493913,3.593187 -1.870962,2.270793 -2.066673,3.1584 7.759914,-0.366336 4.225106,4.853451 -5.204744,1.835551 -10.258155,5.473249 -12.581274,10.925659 -2.347585,5.057869 -3.930737,10.918425 -3.545216,16.40975 7.253168,2.822457 5.582615,-5.794098 6.247542,-10.170999 1.642233,-5.859828 7.009331,-13.204052 13.95301,-10.568023 7.281353,3.634206 9.251592,12.709999 8.690957,20.173235 0.89982,1.853757 4.086938,0.256143 5.774094,0.783016 z m 10.492,0 c 0.06356,-4.034867 -3.915604,-4.978482 -3.836789,-0.439312 0.584395,1.267581 2.672888,0.111863 3.836789,0.439312 z m 5.444,0 c 0.06464,-4.035254 -3.914678,-4.978208 -3.835789,-0.439312 0.584192,1.267576 2.672117,0.111947 3.835789,0.439312 z"
     id="path2863" /><path
     style="fill:#ffffff;fill-opacity:1;fill-rule:nonzero;stroke:none"
     d="m 16.69397,78.79978 c 0.06327,-3.340209 -3.245964,-6.214823 -3.917626,-1.492554 -1.907365,2.816197 3.366317,3.363582 3.917626,1.492554 z m 5.445,0 c 0.06214,-3.339381 -3.245736,-6.214898 -3.917601,-1.49264 -1.907194,2.816097 3.366253,3.36377 3.917601,1.49264 z m 5.445,0 c 0.06211,-3.339052 -3.245481,-6.215067 -3.917476,-1.492982 -1.907508,2.816311 3.365277,3.364212 3.917476,1.492982 z m -13.613,8.007 c 0.06293,-3.339334 -3.244607,-6.214833 -3.916501,-1.492897 -1.9078257,2.815949 3.365237,3.364368 3.916501,1.492897 z m 5.446,0 c 0.06118,-3.339049 -3.246075,-6.215501 -3.917858,-1.492812 -1.906932,2.816402 3.365673,3.363896 3.917858,1.492812 z m 5.444,0 c 0.06338,-3.339756 -3.245744,-6.215054 -3.917458,-1.492951 -1.906682,2.815948 3.366144,3.364461 3.917458,1.492951 z m 5.445,0 c 0.06223,-3.339052 -3.245591,-6.215131 -3.917458,-1.492951 -1.906577,2.81599 3.365838,3.364364 3.917458,1.492951 z m -13.612,8.007 c 0.06322,-3.340303 -3.245903,-6.214914 -3.917626,-1.492554 -1.907365,2.816197 3.366317,3.363582 3.917626,1.492554 z m 5.445,0 c 0.06209,-3.339474 -3.245675,-6.214988 -3.917601,-1.49264 -1.907194,2.816097 3.366253,3.36377 3.917601,1.49264 z m 5.445,0 c 0.06207,-3.339146 -3.24542,-6.215158 -3.917476,-1.492982 -1.907508,2.816311 3.365277,3.364212 3.917476,1.492982 z m -16.335,0 c 0.06323,-3.340238 -3.2457795,-6.214956 -3.9176011,-1.49264 -1.9072993,2.816055 3.3665581,3.363868 3.9176011,1.49264 z m 21.779,0 c 0.06428,-3.339846 -3.245283,-6.214614 -3.917101,-1.493036 -1.907428,2.815957 3.365811,3.364589 3.917101,1.493036 z m 40.692,-16.014 c 0.06338,-3.339756 -3.245744,-6.215054 -3.917458,-1.492951 -1.906682,2.815948 3.366144,3.364461 3.917458,1.492951 z m 5.445,0 c 0.06327,-3.340144 -3.24584,-6.214866 -3.917601,-1.49264 -1.907105,2.816078 3.366023,3.363784 3.917601,1.49264 z m 5.445,0 c 0.06329,-3.33975 -3.245826,-6.214891 -3.917501,-1.492897 -1.907678,2.816411 3.365341,3.364025 3.917501,1.492897 z m -13.612,8.007 c 0.06213,-3.339407 -3.245764,-6.214945 -3.917601,-1.49264 -1.907,2.816119 3.365717,3.363687 3.917601,1.49264 z m 5.445,0 c 0.06214,-3.339046 -3.245674,-6.214968 -3.917501,-1.492897 -1.907678,2.816411 3.365341,3.364025 3.917501,1.492897 z m 5.444,0 c 0.06296,-3.339404 -3.244521,-6.214767 -3.917101,-1.493036 -1.907428,2.815957 3.365811,3.364589 3.917101,1.493036 z m 5.445,0 c 0.06327,-3.340144 -3.24584,-6.214866 -3.917601,-1.49264 -1.907105,2.816078 3.366023,3.363784 3.917601,1.49264 z m -13.612,8.007 c 0.06333,-3.33985 -3.245683,-6.215145 -3.917458,-1.492951 -1.906682,2.815948 3.366144,3.364461 3.917458,1.492951 z m 5.445,0 c 0.06323,-3.340238 -3.245779,-6.214956 -3.917601,-1.49264 -1.907105,2.816078 3.366023,3.363784 3.917601,1.49264 z m 5.445,0 c 0.06324,-3.339844 -3.245765,-6.214981 -3.917501,-1.492897 -1.907678,2.816411 3.365341,3.364025 3.917501,1.492897 z m -16.335,0 c 0.0633,-3.33978 -3.245771,-6.215212 -3.916858,-1.492812 -1.907079,2.81594 3.365569,3.36424 3.916858,1.492812 z m 21.779,0 c 0.06288,-3.339429 -3.244546,-6.214924 -3.916501,-1.492897 -1.907826,2.815949 3.365237,3.364368 3.916501,1.492897 z m -44.925,-24.387 c 2.214,0 4.428,0 6.642,0 0,2.213667 0,4.427333 0,6.641 -2.214,0 -4.428,0 -6.642,0 0,-2.213667 0,-4.427333 0,-6.641 z m -29.927,-0.106 c 0.183911,3.910857 7.508367,-0.697615 1.721355,-0.0038 l -0.628324,0.05304 -1.093031,-0.04927 z m 5.445,0 c 0.183068,3.910761 7.507402,-0.697399 1.721275,-0.0038 l -0.628435,0.05306 -1.09284,-0.04928 z m 24.482,0 c -4.428044,-0.448724 -8.277578,-0.05104 -5.351098,5.076749 1.718498,3.153874 7.166108,0.06996 5.351098,5.446763 -0.379674,5.19438 9.320266,2.999557 6.5528,-2.032965 0.073,-3.320064 7.370225,-0.356098 6.061198,-5.714201 1.829758,-4.920653 -6.708751,-1.804736 -9.400647,-2.780639 -1.071109,-0.0065 -2.142261,-0.0043 -3.213351,0.0043 z m 14.863,0 c -0.69172,6.203878 -3.712522,13.576255 -10.473036,15.028715 -6.521955,0.611902 -10.717545,-5.936347 -11.993859,-11.537339 0.907108,-6.492832 -10.350085,-3.556453 -6.441709,2.124057 3.516499,4.954072 7.994271,9.809063 8.0956,16.480708 -1.02585,4.176378 2.345643,3.352672 5.034018,3.350859 4.114997,-1.129556 3.583577,2.145297 3.502798,5.35216 3.391312,2.45167 -0.830104,-7.990541 4.600672,-5.297189 8.145397,2.110551 4.359202,-8.16611 7.937853,-12.169796 2.377747,-3.911663 9.245858,-9.572073 3.841953,-13.552634 -1.361578,0.265944 -2.718456,0.232848 -4.10429,0.220459 z m 12.236,0 c 0.176334,3.917057 7.535589,-0.712581 1.717969,-0.0037 l -0.640149,0.05156 -1.07782,-0.04783 z m 5.445,0 c 0.183068,3.910761 7.507402,-0.697399 1.721275,-0.0038 l -0.628435,0.05306 -1.09284,-0.04928 z"
     id="path2859" /></svg>