<?xml version="1.0" encoding="UTF-8" standalone="no"?>
<!-- Created with Inkscape (http://www.inkscape.org/) -->

<svg
   xmlns:dc="http://purl.org/dc/elements/1.1/"
   xmlns:cc="http://creativecommons.org/ns#"
   xmlns:rdf="http://www.w3.org/1999/02/22-rdf-syntax-ns#"
   xmlns:svg="http://www.w3.org/2000/svg"
   xmlns="http://www.w3.org/2000/svg"
   xmlns:sodipodi="http://sodipodi.sourceforge.net/DTD/sodipodi-0.dtd"
   xmlns:inkscape="http://www.inkscape.org/namespaces/inkscape"
   version="1.0"
   width="900"
   height="600"
   id="svg29798"
   inkscape:version="0.47 r22583"
   sodipodi:docname="War_flag_of_the_Imperial_Japanese_Army.svg">
  <metadata
     id="metadata45">
    <rdf:RDF>
      <cc:Work
         rdf:about="">
        <dc:format>image/svg+xml</dc:format>
        <dc:type
           rdf:resource="http://purl.org/dc/dcmitype/StillImage" />
        <dc:title></dc:title>
      </cc:Work>
    </rdf:RDF>
  </metadata>
  <sodipodi:namedview
     pagecolor="#ffffff"
     bordercolor="#666666"
     borderopacity="1"
     objecttolerance="10"
     gridtolerance="10"
     guidetolerance="10"
     inkscape:pageopacity="0"
     inkscape:pageshadow="2"
     inkscape:window-width="640"
     inkscape:window-height="499"
     id="namedview43"
     showgrid="false"
     inkscape:zoom="0.39333333"
     inkscape:cx="450"
     inkscape:cy="352.91319"
     inkscape:window-x="0"
     inkscape:window-y="47"
     inkscape:window-maximized="0"
     inkscape:current-layer="svg29798" />
  <defs
     id="defs29800">
    <inkscape:perspective
       sodipodi:type="inkscape:persp3d"
       inkscape:vp_x="0 : 300 : 1"
       inkscape:vp_y="0 : 1000 : 0"
       inkscape:vp_z="900 : 300 : 1"
       inkscape:persp3d-origin="450 : 200 : 1"
       id="perspective47" />
  </defs>
  <rect
     width="900"
     height="600"
     x="0"
     y="0"
     style="fill:#ffffff;stroke:none"
     id="rect2224" />
  <circle
     cx="450"
     cy="300"
     r="180"
     transform="matrix(0.85,0,0,0.85,59.5004,45)"
     style="fill:#be0026;fill-opacity:1"
     id="circle6077"
     d="m 630,300 c 0,99.41125 -80.58875,180 -180,180 -99.41125,0 -180,-80.58875 -180,-180 0,-99.41125 80.58875,-180 180,-180 99.41125,0 180,80.58875 180,180 z"
     sodipodi:cx="450"
     sodipodi:cy="300"
     sodipodi:rx="180"
     sodipodi:ry="180" />
  <path
     d="m 0,0.0039022 129.92969,0 L 348.3086,184.82812 328.10938,205.89062 0,0.0039022 z"
     style="fill:#be0026;fill-opacity:1;fill-rule:evenodd;stroke:none"
     id="path8068" />
  <path
     d="m 230.0625,-0.00391026 74.8711,0 L 399.07422,156.41797 372.08985,168.0039 230.0625,-0.00391026 z"
     style="fill:#be0026;fill-opacity:1;fill-rule:evenodd;stroke:none"
     id="path9039" />
  <path
     d="m 405.0625,-0.00391026 69.8711,0 L 456.42578,150.68359 427.22266,150.64843 405.0625,-0.00391026 z"
     style="fill:#be0026;fill-opacity:1;fill-rule:evenodd;stroke:none"
     id="path10010" />
  <path
     d="m 575.0625,-0.00391027 74.8711,0 L 511.63672,167.85547 484.55469,156.45312 575.0625,-0.00391027 z"
     style="fill:#be0026;fill-opacity:1;fill-rule:evenodd;stroke:none"
     id="path10981" />
  <path
     d="m 750.06251,-4.0152363e-6 129.86718,0 L 555.85157,205.66797 535.54297,184.6289 750.06251,-4.0152363e-6 z"
     style="fill:#be0026;fill-opacity:1;fill-rule:evenodd;stroke:none"
     id="path11952" />
  <path
     id="path13007"
     style="fill:#be0026;fill-opacity:1;fill-rule:evenodd;stroke:none"
     d="m 405.0625,599.99219 69.8711,0 -18.54688,-150.67969 -29.14453,-0.082 -22.17969,150.76172 z" />
  <path
     id="path13978"
     style="fill:#be0026;fill-opacity:1;fill-rule:evenodd;stroke:none"
     d="m 230.06641,599.98828 74.86719,0 94.16797,-156.42969 -26.97657,-11.5039 -142.05859,167.93359 z" />
  <path
     id="path14949"
     style="fill:#be0026;fill-opacity:1;fill-rule:evenodd;stroke:none"
     d="m 0,599.98828 129.92578,0 L 348.19531,415.39453 326.95313,394.98437 0,599.98828 z" />
  <path
     id="path15920"
     style="fill:#be0026;fill-opacity:1;fill-rule:evenodd;stroke:none"
     d="m 575.0625,600 74.8711,0 L 511.41016,432.04687 484.59375,443.69531 575.0625,600 z" />
  <path
     id="path16891"
     style="fill:#be0026;fill-opacity:1;fill-rule:evenodd;stroke:none"
     d="m 750.0586,599.98828 129.87109,0 -324.17578,-205.59766 -20.08984,21.20313 214.39453,184.39453 z" />
  <g
     id="g23769"
     transform="translate(10,0)" />
  <path
     id="path23774"
     style="fill:#be0026;fill-opacity:1;fill-rule:evenodd;stroke:none"
     d="m 899.9961,95.062497 0,0 0,74.875003 -316.19531,86.92187 -10.9336,-27.3789 L 899.9961,95.062497 z" />
  <path
     id="path24745"
     style="fill:#be0026;fill-opacity:1;fill-rule:evenodd;stroke:none"
     d="m 899.9961,265.0625 0,69.875 -310.32031,-20.19922 0.26562,-29.46094 310.05469,-20.21484 z" />
  <path
     id="path25716"
     style="fill:#be0026;fill-opacity:1;fill-rule:evenodd;stroke:none"
     d="m 899.9961,430.0625 0,0 0,74.875 L 572.51563,370.40625 583.875,343.30469 899.9961,430.0625 z" />
  <path
     id="path26812"
     style="fill:#be0026;fill-opacity:1;fill-rule:evenodd;stroke:none"
     d="m 0.01171875,95.062497 0,74.875003 L 300.10938,257.05078 311.5,229.96094 0.01171875,95.062497 z" />
  <path
     id="path27785"
     style="fill:#be0026;fill-opacity:1;fill-rule:evenodd;stroke:none"
     d="m 0.0117187,265.0625 0,0 0,69.875 L 294.05078,314.69922 294.00391,285.33594 0.0117187,265.0625 z" />
  <path
     id="path28756"
     style="fill:#be0026;fill-opacity:1;fill-rule:evenodd;stroke:none"
     d="m 0.0234375,430.06641 0,74.87109 L 311.41016,370.23047 299.9961,343.17187 0.0234375,430.06641 z" />
</svg>
